<svg width="205" height="49" viewBox="0 0 205 49" fill="none" xmlns="http://www.w3.org/2000/svg">
<path fill-rule="evenodd" clip-rule="evenodd" d="M48.9199 24.4599C48.9199 37.9684 37.9684 48.9199 24.4599 48.9199C10.9514 48.9199 0 37.9684 0 24.4599C0 10.9514 10.9514 0 24.4599 0C37.9684 0 48.9199 10.9514 48.9199 24.4599Z" fill="#4D4D4D"/>
<path fill-rule="evenodd" clip-rule="evenodd" d="M81.5332 15.3894C81.2088 18.5078 79.229 20.8385 75.5954 22.3834C74.7394 22.7331 73.8673 22.9953 72.9811 23.1702C77.5894 24.0156 79.8936 26.1715 79.8936 29.6396C79.8936 32.5832 78.306 35.0599 75.1306 37.0707C71.9543 39.0815 68.0182 40.0869 63.3212 40.0869C61.017 40.0869 59.0974 39.7297 57.5607 39.0164C56.0248 38.3021 55.2565 37.1144 55.2565 35.4534C55.2565 33.4138 56.3501 29.8582 58.5355 24.7875C60.7219 19.7169 62.7451 15.3894 64.6062 11.805C64.9022 11.2218 65.1238 10.8145 65.2709 10.581L63.6756 10.7996C61.3714 11.1204 59.252 11.6589 57.3174 12.4169C55.3819 13.1749 54.0751 14.1217 53.3954 15.2582C53.3662 15.3457 53.2926 15.3894 53.1738 15.3894C53.056 15.3894 52.9966 15.3094 52.9966 15.1494C52.9966 14.9885 53.0117 14.8797 53.0409 14.8211C54.1638 11.7901 56.2172 9.94021 59.2002 9.26964C60.5597 8.97854 62.3765 8.83252 64.6505 8.83252H73.3799C76.0687 8.83252 78.0995 9.40078 79.4732 10.5373C80.8468 11.6738 81.5332 13.1015 81.5332 14.8211V15.3894ZM76.9248 14.2535C76.6589 11.6893 74.6064 10.3194 70.7655 10.1445C69.3777 11.9219 67.5458 15.2589 65.2709 20.1547C62.9968 25.0505 61.5487 28.5837 60.9283 30.7554C60.308 32.9261 59.9978 34.5723 59.9978 35.6949C59.9978 36.8165 60.3231 37.5448 60.9727 37.8805C61.6232 38.2153 62.7008 38.3827 64.2074 38.3827C67.0141 38.3827 69.4663 37.6322 71.5631 36.132C73.6608 34.6309 74.7092 32.3941 74.7092 29.4217C74.7092 27.9643 74.3472 26.7115 73.6241 25.6624C72.9 24.6133 71.844 24.0014 70.4553 23.8265C68.6244 24.3222 66.8519 24.5696 65.1379 24.5696C64.6364 24.5696 64.3846 24.4673 64.3846 24.2636C64.3846 23.5931 64.8428 23.1345 65.7583 22.8872C66.6747 22.6388 67.5458 22.5151 68.3727 22.5151C69.2004 22.5151 70.0122 22.5737 70.8098 22.69C72.7303 22.1068 74.2293 21.0577 75.3079 19.5427C76.3855 18.0276 76.9248 16.454 76.9248 14.8218V14.2535Z" fill="#4D4D4D"/>
<path fill-rule="evenodd" clip-rule="evenodd" d="M93.3818 21.4189L95.6603 21.4629H96.107C95.6603 21.7857 95.0272 22.7384 94.2088 24.3217C93.3894 25.905 92.7792 27.1 92.3771 27.9067C91.975 28.7124 91.5282 29.7979 91.0368 31.1613C90.5454 32.5248 90.2992 33.6309 90.2992 34.4815C90.2992 35.3321 90.5977 35.757 91.1927 35.757C91.5805 35.7279 92.1233 35.4566 92.8238 34.9438C93.5234 34.43 94.1042 33.8882 94.5662 33.3164C95.0272 32.7447 95.5338 32.011 96.0852 31.1174C96.6355 30.2227 97.1127 29.446 97.5148 28.7863C97.9169 28.1266 98.1478 27.7963 98.2068 27.7963C98.4159 27.7963 98.5195 28.0676 98.5195 28.6104C98.5195 29.1522 98.3712 29.6725 98.0728 30.1713C96.7924 32.2534 95.7354 33.8508 94.9008 34.9653C94.0672 36.0798 93.0615 37.0989 91.8856 38.0225C90.7089 38.9461 89.6443 39.4074 88.6909 39.4074C86.9932 39.4074 86.1443 38.176 86.1443 35.713C86.1443 34.0417 86.4723 32.1505 87.1272 30.0393C87.7831 27.9282 88.7507 25.8901 90.0311 23.9259C88.9893 24.7465 87.9466 25.1574 86.9038 25.1574C86.5768 25.1574 86.2337 25.0844 85.8763 24.9374C83.7623 29.0427 82.6226 31.0949 82.4591 31.0949C82.2946 31.0949 82.2129 30.8535 82.2129 30.3697C82.2129 29.8859 82.3992 29.2112 82.7718 28.3465C83.1435 27.4809 83.5456 26.6527 83.9781 25.8611C84.4096 25.0694 84.6406 24.6296 84.6701 24.5416C83.5978 24.0138 83.0617 23.1632 83.0617 21.9907C83.0617 21.4039 83.248 20.8761 83.6206 20.4073C83.9923 19.9385 84.5066 19.7036 85.1615 19.7036C85.8174 19.7036 86.3535 19.9085 86.7698 20.3194C86.7109 20.4953 86.6805 20.7592 86.6805 21.111C86.6805 21.9027 86.9713 22.5259 87.5521 22.9807C88.1329 23.4346 88.8401 23.662 89.6737 23.662C89.9123 23.662 90.091 23.647 90.2098 23.618C91.2526 22.1516 92.3096 21.4189 93.3818 21.4189Z" fill="#4D4D4D"/>
<path fill-rule="evenodd" clip-rule="evenodd" d="M117.695 28.8591C117.783 28.6823 117.871 28.5939 117.959 28.5939C118.135 28.5939 118.223 28.8149 118.223 29.257C118.223 30.6715 117.658 31.8434 116.529 32.7717C115.399 33.7 114.343 34.1637 113.36 34.1637C112.377 34.1637 111.533 33.8834 110.829 33.3238C109.773 35.4165 108.519 37.0662 107.066 38.2747C105.614 39.4833 103.743 40.0871 101.454 40.0871C99.9879 40.0871 98.7921 39.6376 97.8678 38.7394C96.9436 37.8402 96.481 36.4699 96.481 34.6283C96.481 32.7858 96.8995 30.885 97.7358 28.9259C98.572 26.9659 99.8334 25.2786 101.521 23.864C103.207 22.4495 105.093 21.7422 107.176 21.7422C110.668 21.7422 112.413 23.5988 112.413 27.312C112.413 28.7265 112.105 30.2144 111.489 31.7767C111.929 32.3955 112.56 32.705 113.382 32.705C114.908 32.705 116.346 31.423 117.695 28.8591ZM110.345 26.1182C110.228 24.556 109.524 23.7754 108.232 23.7754C106.208 23.7754 104.227 25.7496 102.291 29.6988C101.234 31.8799 100.706 33.8541 100.706 35.6222C100.706 37.3904 101.469 38.3187 102.995 38.4071C104.257 38.4071 105.423 37.7366 106.494 36.3963C107.565 35.0551 108.467 33.5738 109.201 31.9533C108.203 31.0983 107.704 30.0233 107.704 28.7263C107.704 27.9306 107.917 27.2967 108.343 26.8255C108.768 26.3543 109.348 26.1182 110.081 26.1182H110.345Z" fill="#4D4D4D"/>
<path fill-rule="evenodd" clip-rule="evenodd" d="M137.399 28.8591C137.487 28.6823 137.575 28.5939 137.663 28.5939C137.839 28.5939 137.927 28.8149 137.927 29.257C137.927 30.6715 137.363 31.8434 136.233 32.7717C135.103 33.7 134.047 34.1637 133.064 34.1637C132.081 34.1637 131.237 33.8834 130.533 33.3238C129.477 35.4165 128.223 37.0662 126.771 38.2747C125.318 39.4833 123.447 40.0871 121.158 40.0871C119.692 40.0871 118.496 39.6376 117.572 38.7394C116.648 37.8402 116.185 36.4699 116.185 34.6283C116.185 32.7858 116.604 30.885 117.44 28.9259C118.276 26.9659 119.537 25.2786 121.225 23.864C122.911 22.4495 124.797 21.7422 126.88 21.7422C130.372 21.7422 132.118 23.5988 132.118 27.312C132.118 28.7265 131.809 30.2144 131.193 31.7767C131.633 32.3955 132.265 32.705 133.086 32.705C134.612 32.705 136.05 31.423 137.399 28.8591ZM130.049 26.1182C129.932 24.556 129.228 23.7754 127.936 23.7754C125.912 23.7754 123.931 25.7496 121.995 29.6988C120.938 31.8799 120.41 33.8541 120.41 35.6222C120.41 37.3904 121.173 38.3187 122.699 38.4071C123.961 38.4071 125.127 37.7366 126.198 36.3963C127.269 35.0551 128.171 33.5738 128.905 31.9533C127.907 31.0983 127.408 30.0233 127.408 28.7263C127.408 27.9306 127.621 27.2967 128.047 26.8255C128.472 26.3543 129.052 26.1182 129.785 26.1182H130.049Z" fill="#4D4D4D"/>
<path fill-rule="evenodd" clip-rule="evenodd" d="M155.785 30.9106C154.753 32.6546 153.705 34.2354 152.643 35.654C150.372 38.6091 148.129 40.0871 145.916 40.0871C144.707 40.0871 143.8 39.4816 143.195 38.2695C142.59 37.0575 142.287 35.7134 142.287 34.2354C142.287 31.2803 142.73 29.8023 143.615 29.8023C145.002 29.8023 146.285 29.4844 147.465 28.8496C148.646 28.2139 149.235 27.3792 149.235 26.3445C149.235 25.5173 148.764 25.1032 147.819 25.1032C145.784 25.1032 143.527 27.3197 141.048 31.7529C140.813 32.1962 140.319 33.2233 139.566 34.8344C138.814 36.4444 138.15 37.664 137.575 38.4912C136.999 39.3184 136.432 39.7325 135.87 39.7325H133.171C134.086 38.0186 135.435 34.5533 137.221 29.3373C139.005 24.1204 140.326 20.6257 141.181 18.8525C141.211 18.7931 141.395 18.4092 141.735 17.6999C142.074 16.9906 142.31 16.503 142.443 16.237C142.576 15.971 142.834 15.4682 143.217 14.7297C143.601 13.9912 143.911 13.4441 144.146 13.0895C144.382 12.7348 144.707 12.2255 145.12 11.5605C145.533 10.8955 145.902 10.3853 146.226 10.0306C146.551 9.67596 146.934 9.25528 147.377 8.76764C147.819 8.28 148.233 7.9178 148.616 7.68106C149.62 7.08966 150.534 6.79443 151.36 6.79443C152.983 6.79443 153.794 7.53297 153.794 9.01099C153.794 11.0795 152.547 13.8214 150.055 17.2349C147.561 20.6484 144.752 23.877 141.624 26.9208L140.827 29.1373C142.243 27.3047 143.851 25.7021 145.651 24.3279C147.451 22.9536 149.103 22.266 150.607 22.266C151.463 22.266 152.135 22.4726 152.621 22.8866C153.108 23.3007 153.351 23.8619 153.351 24.5712C153.351 26.1964 152.636 27.5046 151.205 28.495C149.774 29.4844 148.129 30.1277 146.27 30.4229C146.536 33.4969 146.964 35.3729 147.554 36.053C147.849 36.3784 148.218 36.5406 148.66 36.5406C149.103 36.5406 149.708 36.2746 150.475 35.7427C151.242 35.2107 151.869 34.6268 152.356 33.9921C152.843 33.3563 153.359 32.5952 153.905 31.7085C154.45 30.8219 154.923 30.0532 155.321 29.4033C155.719 28.7534 155.948 28.428 156.006 28.428C156.183 28.428 156.272 28.7167 156.272 29.293C156.272 29.8693 156.11 30.4078 155.785 30.9106ZM151.448 7.94678C149.797 7.94678 146.905 13.2665 142.774 23.906C146.551 19.4729 149.206 15.734 150.74 12.6902C151.625 11.0943 152.068 9.77945 152.068 8.74474C152.068 8.21276 151.862 7.94678 151.448 7.94678Z" fill="#4D4D4D"/>
<path fill-rule="evenodd" clip-rule="evenodd" d="M170.221 12.7427C169.18 14.9027 167.589 17.3518 165.447 20.0898C163.306 22.8269 161.382 25.0237 159.674 26.6813L158.98 28.7232C158.632 29.7593 158.3 31.0164 157.981 32.4964C157.664 33.9764 157.519 35.0266 157.547 35.6481C157.547 36.5359 157.866 36.9798 158.502 36.9798C159.139 36.9798 159.899 36.6096 160.781 35.87C161.663 35.1305 162.308 34.4864 162.712 33.9395C163.118 33.3917 163.588 32.6739 164.124 31.7861C164.658 30.8983 165.122 30.1286 165.513 29.4778C165.903 28.8271 166.128 28.5013 166.185 28.5013C166.358 28.5013 166.445 28.7752 166.445 29.323C166.445 29.8698 166.301 30.3949 166.011 30.8983C164.42 33.6505 163.133 35.5886 162.148 36.7135C160.152 38.9622 158.098 40.0871 155.985 40.0871C154.365 40.0871 153.554 38.9622 153.554 36.7135C153.554 34.4939 154.524 30.6169 156.462 25.0832C156.607 24.61 156.94 23.6183 157.461 22.1091C157.981 20.5998 158.43 19.4239 158.806 18.5805C159.183 17.7371 159.689 16.6198 160.325 15.2286C160.962 13.8374 161.577 12.7276 162.17 11.8993C162.763 11.071 163.422 10.2276 164.145 9.36907C165.563 7.65296 167.096 6.79443 168.746 6.79443C170.395 6.79443 171.22 7.56418 171.22 9.10273C171.22 10.2862 170.887 11.4998 170.221 12.7427ZM169.31 7.9043H169.006C167.241 7.9043 164.42 13.3199 160.542 24.1511C164.507 19.3863 167.213 15.4799 168.659 12.4321C169.47 10.5677 169.874 9.34745 169.874 8.77038C169.874 8.19331 169.687 7.9043 169.31 7.9043Z" fill="#4D4D4D"/>
<path fill-rule="evenodd" clip-rule="evenodd" d="M182.346 22.4214H184.129C183.231 22.9744 182.317 24.3436 181.389 26.5279C180.635 28.3628 179.996 30.0303 179.474 31.5305C178.952 33.0298 178.634 33.9398 178.517 34.2605C178.402 34.5812 178.133 35.3601 177.713 36.5982C177.292 37.8353 176.951 38.789 176.69 39.4592C175.965 41.4976 175.124 43.114 174.167 44.3084C173.21 45.5028 172.021 46.4565 170.599 47.1703C169.179 47.8833 167.743 48.2402 166.292 48.2402C164.843 48.2402 163.603 47.9567 162.573 47.3888C161.543 46.8209 161.028 45.9248 161.028 44.7016C161.028 44.0612 161.225 43.4858 161.616 42.9764C162.008 42.4661 162.457 42.2114 162.965 42.2114C163.472 42.2114 163.9 42.3276 164.248 42.5609C164.596 42.7942 164.843 43.0564 164.987 43.3473C164.465 43.522 164.204 44.1337 164.204 45.1821C164.204 45.7352 164.4 46.1795 164.792 46.515C165.183 46.8497 165.683 47.017 166.292 47.017C168.642 47.017 170.614 44.9051 172.209 40.6824L174.689 34.042C173.326 35.7607 172.144 37.049 171.144 37.9088C170.143 38.7676 169.36 39.2844 168.794 39.4592C168.229 39.6339 167.561 39.7213 166.793 39.7213C166.024 39.7213 165.408 39.4081 164.944 38.7825C164.48 38.156 164.255 37.2386 164.27 36.0302C164.284 34.821 164.632 33.0958 165.314 30.8529C165.995 28.61 166.75 26.8337 167.576 25.5231C168.403 24.2125 169.258 23.3676 170.143 22.9893C171.027 22.611 172.239 22.4214 173.775 22.4214C173.892 22.4214 173.949 22.4799 173.949 22.5961C173.949 22.7123 173.862 22.8583 173.688 23.033C172.5 24.0815 171.288 25.96 170.056 28.6686C168.823 31.3772 168.207 33.6637 168.207 35.5274C168.207 36.5173 168.482 37.0127 169.033 37.0127C170.077 37.0127 171.412 35.9643 173.036 33.8673C174.66 31.7703 175.907 29.6734 176.777 27.5764C176.894 27.2855 177.06 26.8626 177.278 26.3095C177.495 25.7564 177.647 25.3772 177.734 25.1736C177.821 24.9701 177.959 24.6857 178.148 24.3222C178.336 23.9579 178.503 23.7106 178.648 23.5795C178.793 23.4485 178.988 23.2802 179.236 23.0767C179.482 22.8731 179.735 22.7421 179.996 22.6835C180.838 22.5088 181.621 22.4214 182.346 22.4214Z" fill="#4D4D4D"/>
<path fill-rule="evenodd" clip-rule="evenodd" d="M204.071 30.8477C202.983 32.6929 201.99 34.2324 201.094 35.4679C200.196 36.7025 199.174 37.7813 198.027 38.7035C196.88 39.6256 195.836 40.0871 194.894 40.0871C193.16 40.0871 192.291 39.1204 192.291 37.1859C192.291 35.2514 193.394 31.3681 195.6 25.5362C195.719 25.2683 195.777 24.9853 195.777 24.6881C195.777 24.0632 195.387 23.7508 194.608 23.7508C193.828 23.7508 193.064 23.9967 192.314 24.4877C191.564 24.9787 190.879 25.6777 190.262 26.5856C189.644 27.4925 189.086 28.4156 188.585 29.3529C188.086 30.2902 187.622 31.3681 187.196 32.5885C186.769 33.8088 186.431 34.8278 186.181 35.6464C185.931 36.4641 185.681 37.3426 185.431 38.2799C185.181 39.2172 185.042 39.7301 185.012 39.8193H180.732C180.732 39.1944 182.026 35.6084 184.614 29.0623C185.673 25.9977 186.203 23.8552 186.203 22.6349C186.203 22.3376 186.159 22.1145 186.07 21.9654H187.923C188.953 21.9654 189.615 22.0698 189.909 22.2778C190.204 22.4858 190.35 22.7688 190.35 23.1259C190.35 23.4829 190.189 24.2123 189.865 25.313C192.335 22.9321 194.821 21.7422 197.321 21.7422C198.997 21.7422 199.836 22.5162 199.836 24.0632C199.836 24.5694 199.763 25.0746 199.615 25.5808C199.469 26.087 199.101 27.0984 198.512 28.616C197.219 31.9484 196.571 34.1801 196.571 35.3112C196.571 36.0254 196.836 36.3824 197.365 36.3824C197.748 36.3824 198.284 36.1146 198.976 35.579C199.667 35.0434 200.24 34.4859 200.697 33.9057C201.152 33.3254 201.652 32.5961 202.197 31.7186C202.74 30.8401 203.204 30.0737 203.586 29.4194C203.969 28.7651 204.19 28.4374 204.248 28.4374C204.424 28.4374 204.512 28.7128 204.512 29.2636C204.512 29.8135 204.366 30.3415 204.071 30.8477Z" fill="#4D4D4D"/>
<path fill-rule="evenodd" clip-rule="evenodd" d="M38.7285 15.3894C38.4032 18.5078 36.4243 20.8385 32.7907 22.3834C31.9337 22.7331 31.0626 22.9953 30.1764 23.1702C34.7848 24.0156 37.089 26.1715 37.089 29.6396C37.089 32.5832 35.5013 35.0599 32.325 37.0707C29.1497 39.0815 25.2135 40.0869 20.5165 40.0869C18.2123 40.0869 16.2918 39.7297 14.756 39.0164C13.2202 38.3021 12.4518 37.1144 12.4518 35.4534C12.4518 33.4138 13.5445 29.8582 15.7308 24.7875C17.9172 19.7169 19.9404 15.3894 21.8015 11.805C22.0966 11.2218 22.3182 10.8145 22.4662 10.581L20.871 10.7996C18.5668 11.1204 16.4474 11.6589 14.5118 12.4169C12.5772 13.1749 11.2705 14.1217 10.5907 15.2582C10.5615 15.3457 10.487 15.3894 10.3691 15.3894C10.2513 15.3894 10.1919 15.3094 10.1919 15.1494C10.1919 14.9885 10.207 14.8797 10.2362 14.8211C11.3591 11.7901 13.4115 9.94021 16.3955 9.26964C17.7541 8.97854 19.5708 8.83252 21.8458 8.83252H30.5752C33.2631 8.83252 35.2939 9.40078 36.6675 10.5373C38.0412 11.6738 38.7285 13.1015 38.7285 14.8211V15.3894ZM34.1199 14.2535C33.854 11.6893 31.8006 10.3194 27.9606 10.1445C26.5719 11.9219 24.741 15.2589 22.466 20.1547C20.191 25.0505 18.7438 28.5837 18.1235 30.7554C17.5031 32.9261 17.1929 34.5723 17.1929 35.6949C17.1929 36.8165 17.5182 37.5448 18.1678 37.8805C18.8174 38.2153 19.8959 38.3827 21.4025 38.3827C24.2092 38.3827 26.6605 37.6322 28.7582 36.132C30.8559 34.6309 31.9043 32.3941 31.9043 29.4217C31.9043 27.9643 31.5423 26.7115 30.8182 25.6624C30.0951 24.6133 29.0392 24.0014 27.6504 23.8265C25.8186 24.3222 24.0461 24.5696 22.3331 24.5696C21.8306 24.5696 21.5798 24.4673 21.5798 24.2636C21.5798 23.5931 22.038 23.1345 22.9534 22.8872C23.8689 22.6388 24.741 22.5151 25.5678 22.5151C26.3946 22.5151 27.2073 22.5737 28.0049 22.69C29.9254 22.1068 31.4245 21.0577 32.5021 19.5427C33.5806 18.0276 34.1199 16.454 34.1199 14.8218V14.2535Z" fill="#FFFFFE"/>
</svg>
