<svg width="176" height="50" viewBox="0 0 176 50" fill="none" xmlns="http://www.w3.org/2000/svg">
<path fill-rule="evenodd" clip-rule="evenodd" d="M63.9376 12.1695V18.7153H59.8486V12.1164L53.0093 0.238281H57.3498L62.0693 8.44707L66.7897 0.238281H70.802L63.9376 12.1695Z" fill="#4D4D4D"/>
<path fill-rule="evenodd" clip-rule="evenodd" d="M80.7247 18.477C78.9074 18.477 77.2686 18.0766 75.8093 17.2768C74.35 16.4778 73.208 15.3759 72.3824 13.9727C71.5568 12.5687 71.144 10.9906 71.144 9.2385C71.144 7.48639 71.5568 5.90831 72.3824 4.50428C73.208 3.10114 74.35 1.9992 75.8093 1.19934C77.2686 0.40038 78.9074 0 80.7247 0C82.5429 0 84.1773 0.40038 85.6277 1.19934C87.0782 1.9992 88.2211 3.10114 89.0547 4.50428C89.8882 5.90831 90.3054 7.48639 90.3054 9.2385C90.3054 10.9906 89.8882 12.5687 89.0547 13.9727C88.2211 15.3759 87.0782 16.4778 85.6277 17.2768C84.1773 18.0766 82.5429 18.477 80.7247 18.477ZM80.7249 15.0551C81.7584 15.0551 82.6911 14.8082 83.525 14.3155C84.3579 13.8218 85.0124 13.1335 85.4868 12.2508C85.962 11.368 86.1996 10.3632 86.1996 9.23822C86.1996 8.11321 85.962 7.10841 85.4868 6.22565C85.0124 5.3429 84.3579 4.65468 83.525 4.16099C82.6911 3.66823 81.7584 3.42139 80.7249 3.42139C79.6915 3.42139 78.7587 3.66823 77.9257 4.16099C77.0919 4.65468 76.4383 5.3429 75.9631 6.22565C75.4879 7.10841 75.2502 8.11321 75.2502 9.23822C75.2502 10.3632 75.4879 11.368 75.9631 12.2508C76.4383 13.1335 77.0919 13.8218 77.9257 14.3155C78.7587 14.8082 79.6915 15.0551 80.7249 15.0551Z" fill="#4D4D4D"/>
<path fill-rule="evenodd" clip-rule="evenodd" d="M109.125 0.238281V18.7153H105.722L96.7938 7.49664V18.7153H92.7007V0.238281H96.1294L105.032 11.456V0.238281H109.125Z" fill="#4D4D4D"/>
<path fill-rule="evenodd" clip-rule="evenodd" d="M126.917 15.2838V18.7153H113.23V0.238281H126.589V3.66973H117.297V7.68225H125.503V11.0074H117.297V15.2838H126.917Z" fill="#4D4D4D"/>
<path fill-rule="evenodd" clip-rule="evenodd" d="M133.814 3.72289H128.286V0.238281H143.341V3.72289H137.813V18.7153H133.814V3.72289Z" fill="#4D4D4D"/>
<path fill-rule="evenodd" clip-rule="evenodd" d="M161.819 0.238281V18.7153H157.675V11.1398H149.539V18.7153H145.395V0.238281H149.539V7.52369H157.675V0.238281H161.819Z" fill="#4D4D4D"/>
<path fill-rule="evenodd" clip-rule="evenodd" d="M55.7466 38.5607H59.8526V20.7681H55.7466V38.5607Z" fill="#4D4D4D"/>
<path fill-rule="evenodd" clip-rule="evenodd" d="M79.6984 20.7681V38.5607H76.2959L67.3675 27.7576V38.5607H63.2744V20.7681H66.7031L75.6053 31.5703V20.7681H79.6984Z" fill="#4D4D4D"/>
<path fill-rule="evenodd" clip-rule="evenodd" d="M84.1465 20.5298H92.1841C94.1042 20.5298 95.802 20.898 97.2764 21.6354C98.7509 22.3719 99.8967 23.4102 100.714 24.7485C101.531 26.0876 101.939 27.6469 101.939 29.4261C101.939 31.2054 101.531 32.7637 100.714 34.1029C99.8967 35.4411 98.7509 36.4794 97.2764 37.2168C95.802 37.9533 94.1042 38.3225 92.1841 38.3225H84.1465V20.5298ZM91.3192 34.901C93.0934 34.901 94.5086 34.4089 95.5645 33.4248C96.6214 32.4407 97.1489 31.108 97.1489 29.4268C97.1489 27.7447 96.6214 26.412 95.5645 25.4279C94.5086 24.4437 93.0934 23.9517 91.3192 23.9517H87.5682V34.901H91.3192Z" fill="#4D4D4D"/>
<path fill-rule="evenodd" clip-rule="evenodd" d="M111.862 38.3227C109.98 38.3227 108.283 37.9232 106.771 37.1233C105.26 36.3234 104.077 35.2223 103.222 33.8182C102.367 32.415 101.939 30.8369 101.939 29.0847C101.939 27.3316 102.367 25.7534 103.222 24.3502C104.077 22.9461 105.26 21.845 106.771 21.0451C108.283 20.2452 109.98 19.8457 111.862 19.8457C113.745 19.8457 115.437 20.2452 116.94 21.0451C118.443 21.845 119.626 22.9461 120.49 24.3502C121.353 25.7534 121.785 27.3316 121.785 29.0847C121.785 30.8369 121.353 32.415 120.49 33.8182C119.626 35.2223 118.443 36.3234 116.94 37.1233C115.437 37.9232 113.745 38.3227 111.862 38.3227ZM111.862 34.9012C112.96 34.9012 113.951 34.6544 114.837 34.1608C115.722 33.6681 116.417 32.9799 116.921 32.0963C117.426 31.2136 117.679 30.2098 117.679 29.0849C117.679 27.959 117.426 26.9552 116.921 26.0725C116.417 25.1899 115.722 24.5017 114.837 24.008C113.951 23.5144 112.96 23.2676 111.862 23.2676C110.764 23.2676 109.773 23.5144 108.887 24.008C108.002 24.5017 107.307 25.1899 106.803 26.0725C106.298 26.9552 106.045 27.959 106.045 29.0849C106.045 30.2098 106.298 31.2136 106.803 32.0963C107.307 32.9799 108.002 33.6681 108.887 34.1608C109.773 34.6544 110.764 34.9012 111.862 34.9012Z" fill="#4D4D4D"/>
<path fill-rule="evenodd" clip-rule="evenodd" d="M132.05 38.3227C130.232 38.3227 128.593 37.9232 127.135 37.1233C125.675 36.3234 124.532 35.2223 123.708 33.8182C122.882 32.415 122.469 30.8369 122.469 29.0847C122.469 27.3316 122.882 25.7534 123.708 24.3502C124.532 22.9461 125.675 21.845 127.135 21.0451C128.593 20.2452 130.232 19.8457 132.05 19.8457C133.867 19.8457 135.502 20.2452 136.952 21.0451C138.403 21.845 139.545 22.9461 140.38 24.3502C141.213 25.7534 141.631 27.3316 141.631 29.0847C141.631 30.8369 141.213 32.415 140.38 33.8182C139.545 35.2223 138.403 36.3234 136.952 37.1233C135.502 37.9232 133.867 38.3227 132.05 38.3227ZM131.366 34.9012C132.399 34.9012 133.332 34.6544 134.165 34.1608C134.999 33.6681 135.653 32.9799 136.128 32.0963C136.603 31.2136 136.84 30.2098 136.84 29.0849C136.84 27.959 136.603 26.9552 136.128 26.0725C135.653 25.1899 134.999 24.5017 134.165 24.008C133.332 23.5144 132.399 23.2676 131.366 23.2676C130.332 23.2676 129.399 23.5144 128.566 24.008C127.733 24.5017 127.078 25.1899 126.603 26.0725C126.128 26.9552 125.891 27.959 125.891 29.0849C125.891 30.2098 126.128 31.2136 126.603 32.0963C127.078 32.9799 127.733 33.6681 128.566 34.1608C129.399 34.6544 130.332 34.9012 131.366 34.9012Z" fill="#4D4D4D"/>
<path fill-rule="evenodd" clip-rule="evenodd" d="M155.006 38.3225L151.579 33.3655H147.797V38.3225H143.684V20.5298H151.376C152.95 20.5298 154.316 20.792 155.476 21.3175C156.635 21.8429 157.528 22.5884 158.154 23.5539C158.78 24.5203 159.094 25.6637 159.094 26.9858C159.094 28.307 158.776 29.4468 158.141 30.4042C157.507 31.3617 156.606 32.0946 155.438 32.6029L159.423 38.3225H155.006ZM154.633 27.0316C154.633 26.0389 154.325 25.2771 153.708 24.7473C153.091 24.2166 152.19 23.9517 151.005 23.9517H147.79V30.1107H151.005C152.19 30.1107 153.091 29.8422 153.708 29.3034C154.325 28.7647 154.633 28.0074 154.633 27.0316Z" fill="#4D4D4D"/>
<path fill-rule="evenodd" clip-rule="evenodd" d="M167.822 38.561C166.391 38.561 165.007 38.3698 163.67 37.9865C162.334 37.6042 161.26 37.1064 160.45 36.4941L161.873 33.3801C162.649 33.942 163.571 34.3929 164.641 34.7328C165.709 35.0737 166.779 35.2433 167.848 35.2433C169.038 35.2433 169.917 35.0692 170.487 34.7202C171.055 34.3712 171.34 33.9077 171.34 33.3296C171.34 32.904 171.172 32.5514 170.836 32.27C170.5 31.9896 170.068 31.7641 169.543 31.5937C169.016 31.4241 168.305 31.2366 167.408 31.0328C166.028 30.709 164.899 30.3862 164.019 30.0624C163.14 29.7396 162.386 29.2201 161.756 28.5059C161.127 27.7917 160.812 26.8385 160.812 25.6472C160.812 24.6101 161.097 23.6695 161.665 22.8273C162.235 21.985 163.092 21.3176 164.239 20.8244C165.386 20.3311 166.788 20.084 168.443 20.084C169.598 20.084 170.728 20.2202 171.831 20.4925C172.936 20.7648 173.901 21.1562 174.729 21.6666L173.436 24.8049C171.763 23.8697 170.09 23.4017 168.417 23.4017C167.245 23.4017 166.378 23.5893 165.817 23.9635C165.257 24.3378 164.977 24.8311 164.977 25.4434C164.977 26.0557 165.3 26.5111 165.947 26.8087C166.593 27.1063 167.58 27.4003 168.908 27.6889C170.289 28.0126 171.417 28.3355 172.297 28.6592C173.177 28.9821 173.931 29.4925 174.561 30.1905C175.19 30.8876 175.505 31.8318 175.505 33.023C175.505 34.0439 175.216 34.9754 174.639 35.8177C174.061 36.66 173.194 37.3273 172.038 37.8206C170.883 38.3148 169.478 38.561 167.822 38.561Z" fill="#4D4D4D"/>
<path fill-rule="evenodd" clip-rule="evenodd" d="M63.1757 41.7746C63.2469 41.6814 63.2743 41.6227 63.2743 41.5805C63.2743 41.4752 63.1355 41.4243 62.8279 41.4243C62.5075 41.4243 62.5522 41.4545 62.4582 41.4545H62.4181C62.3469 41.4502 62.293 41.4666 62.1908 41.5761C61.3081 42.5286 60.0156 43.8977 58.8655 44.9546C57.8323 45.907 56.9232 46.5981 56.7488 46.5981C56.6557 46.5981 56.6201 46.5429 56.6201 46.4505C56.6201 46.1218 57.1103 45.3255 57.3951 44.9123C57.8807 44.2135 59.3028 42.4354 59.918 41.6857C59.9399 41.6564 59.9536 41.6227 59.9536 41.5934C59.9536 41.4588 59.6907 41.3234 59.677 41.3656C59.5921 41.3234 59.499 41.2983 59.405 41.2983C59.3165 41.2983 59.2224 41.3234 59.1421 41.3872C58.6209 41.7832 57.6269 42.3681 57.3859 42.3681C57.3421 42.3681 57.3284 42.356 57.3284 42.3345C57.3284 42.2879 57.4617 42.1706 57.4617 42.1447C57.4617 42.1283 57.4261 42.1283 57.3777 42.1283C57.2974 42.1283 56.9405 42.3681 56.9405 42.6002C56.9405 42.853 57.0966 43.0842 57.3951 43.0842C57.6452 43.0842 58.0103 42.7978 58.3087 42.5493C57.7876 43.1265 57.27 43.8002 56.7315 44.5922C56.1738 45.4058 55.7466 46.1891 55.7466 46.7577C55.7466 47.0355 55.92 47.4151 56.4102 47.4151C57.5603 47.4151 59.405 45.4135 60.4839 44.2299C59.7172 45.2246 58.9285 46.4505 58.9285 46.9854C58.9285 47.2762 59.1202 47.4573 59.3521 47.4573C60.127 47.4573 61.7225 46.4419 61.9991 45.7681C62.0256 45.7008 62.0393 45.587 62.0393 45.4731C62.0393 45.2746 61.9991 45.0685 61.9188 45.0685C61.9014 45.0685 61.8832 45.0771 61.8613 45.1021C61.6869 45.2919 61.3036 45.6163 60.9385 45.907C60.5286 46.2357 60.1005 46.4376 60.0558 46.4376C60.0512 46.4376 60.0512 46.4333 60.0512 46.4333C60.0512 45.8734 63.0022 41.998 63.1757 41.7746Z" fill="#4D4D4D"/>
<path fill-rule="evenodd" clip-rule="evenodd" d="M66.0114 46.411C66.0114 46.3385 66.021 46.0482 65.8895 46.0482C65.7531 46.0482 64.9938 46.8736 64.5484 46.8736C64.413 46.8736 64.2671 46.8257 64.2671 46.6963C64.2671 46.4184 64.7922 45.7506 64.9468 45.5453C65.1301 45.3037 65.6975 44.6515 65.6975 44.4058C65.6975 44.1841 65.4959 44.0439 65.2568 44.0439C64.535 44.0439 63.8131 44.6961 63.3629 45.1223C63.4992 44.9335 63.9676 44.3819 63.9676 44.1923C63.9676 44.1239 63.958 44.0356 63.8553 44.0356C63.6067 44.0356 63.3024 44.0917 63.143 44.2649C62.9789 44.4421 62.8656 44.6433 62.7302 44.8362C62.3175 45.4282 61.9056 46.0202 61.5025 46.6237C61.3988 46.773 61.2212 46.9865 61.2212 47.1193C61.2212 47.1432 61.2212 47.1679 61.2538 47.1836C61.3095 47.224 61.6052 47.3246 61.6849 47.3246C61.7972 47.3246 61.9143 47.224 61.9805 47.1514C62.2896 46.7969 62.6083 46.4473 62.9597 46.1126C63.1939 45.8916 64.4649 44.7439 64.7078 44.7282L64.7174 44.7356C64.7039 44.8164 64.5158 45.0539 64.4687 45.1141C64.0751 45.6137 63.5644 46.2939 63.5644 46.8051C63.5644 47.2001 63.9772 47.4491 64.3516 47.4573C64.9093 47.4573 65.4488 47.0352 65.7906 46.7647C65.9547 46.6806 66.0114 46.5479 66.0114 46.411Z" fill="#4D4D4D"/>
<path fill-rule="evenodd" clip-rule="evenodd" d="M67.7229 43.283C67.7229 43.1722 67.6519 43.1128 67.5402 43.1128C67.2866 43.1128 67.0386 43.3815 67.0386 43.6208C67.0386 43.7371 67.1007 43.7971 67.2212 43.7971C67.4565 43.7971 67.7229 43.5039 67.7229 43.283ZM67.7228 46.1613C67.7228 46.0896 67.7306 45.8028 67.6241 45.8028C67.5068 45.8028 67.0095 46.6071 66.5503 46.6071C66.4555 46.6071 66.3568 46.5826 66.3568 46.4718C66.3568 46.2803 66.5503 45.9943 66.6412 45.8346C66.7515 45.6357 67.5449 44.1991 67.5449 44.116C67.5449 43.9929 67.3887 43.7974 67.2636 43.7974C66.9372 43.7974 66.3498 44.4737 66.3498 44.5373C66.3498 44.6294 66.5052 44.7084 66.5052 44.8005C66.5052 44.864 65.6699 46.1369 65.6699 46.5354C65.6699 46.8849 66.0196 47.219 66.3607 47.219C66.7741 47.219 67.4345 46.9012 67.7003 46.3324C67.7228 46.2803 67.7228 46.2167 67.7228 46.1613Z" fill="#4D4D4D"/>
<path fill-rule="evenodd" clip-rule="evenodd" d="M71.8284 43.983C71.8284 43.9096 71.7611 43.7974 71.6591 43.7974C71.5433 43.7974 71.166 43.9096 71.0888 44.0007C71.0452 44.0351 71.0165 44.0952 70.9878 44.1518C70.9007 43.9317 70.6204 43.884 70.3927 43.884C70.0353 43.884 69.6481 44.0396 69.3441 44.1863C68.3966 44.6477 67.0381 45.7525 67.0381 46.8017C67.0381 47.1809 67.2747 47.4921 67.7292 47.4921C68.3045 47.4921 69.1065 46.9007 69.4739 46.5295C69.0877 47.112 67.8015 49.0115 67.8015 49.5418C67.8015 49.754 68.0282 49.9564 68.2659 49.9564C68.5174 49.9564 69.4501 49.1193 69.6729 48.9249C69.8372 48.7825 70.1273 48.6102 70.1273 48.4458C70.1273 48.4025 70.1075 48.3936 70.0788 48.368C69.9481 48.2345 69.8709 48.1355 69.6531 48.1355C69.5036 48.1355 69.0679 48.5713 68.9471 48.6747C69.561 47.6043 70.0402 46.9007 70.7026 45.848C71.07 45.2646 71.4759 44.691 71.8096 44.0952C71.8284 44.0608 71.8284 44.0263 71.8284 43.983ZM70.4599 44.5315C70.1691 44.8812 69.8552 45.2222 69.4991 45.525C69.2409 45.7468 68.1448 46.5344 67.8118 46.5344C67.7513 46.5344 67.7225 46.4995 67.7225 46.4526C67.7225 46.1498 68.3982 45.436 68.6651 45.2151C68.9837 44.9512 69.7659 44.4814 70.2305 44.4814C70.3149 44.4814 70.3946 44.4894 70.4599 44.5315Z" fill="#4D4D4D"/>
<path fill-rule="evenodd" clip-rule="evenodd" d="M74.8817 46.0969C74.8772 46.0521 74.8377 46.0198 74.7892 46.0198C74.7586 46.0198 74.7281 46.0322 74.693 46.0563C74.614 46.121 74.0479 46.7771 73.6796 46.8261C73.5789 46.8261 73.5394 46.7614 73.5394 46.656C73.5394 46.3275 73.9257 45.6192 74.0569 45.3678C74.162 45.1696 74.3687 44.8942 74.746 44.2215C74.746 44.2215 74.7505 44.2173 74.7505 44.209C74.7505 44.1692 74.693 44.0473 74.649 44.039C74.6274 44.0356 74.6014 44.0356 74.5789 44.0356C74.3813 44.039 74.1575 44.1161 74.092 44.1568C74.0174 44.2015 73.8332 44.4238 73.6625 44.7357C73.5133 45.0037 71.9428 46.6759 71.631 46.6759C71.596 46.6759 71.5825 46.656 71.5825 46.6154C71.5825 46.2628 72.7451 44.5292 72.7451 44.3874C72.7451 44.3069 72.6005 44.1244 72.4469 44.1244C72.2097 44.1244 72.0479 44.4197 71.6221 45.1082C71.4199 45.4367 70.8018 46.3441 70.8018 46.9273C70.8018 47.1819 71.0084 47.4573 71.3498 47.4573C71.9069 47.4573 72.6265 46.6967 73.0569 46.1981C72.8943 46.4694 72.8682 46.7448 72.8682 46.9107C72.8682 47.2914 73.2456 47.4333 73.5088 47.4333C74.0919 47.4333 74.7631 46.7688 74.8817 46.5548C74.9033 46.5142 74.9078 46.4495 74.9078 46.3806C74.9078 46.2711 74.8907 46.1492 74.8817 46.0969Z" fill="#4D4D4D"/>
<path fill-rule="evenodd" clip-rule="evenodd" d="M77.6453 44.2819C77.6453 44.1084 77.3369 44.0356 77.1746 44.0356C76.3822 44.0356 74.8337 44.605 74.8337 45.399C74.8337 45.613 74.8576 45.7709 75.1134 45.8717C74.6752 46.013 74.2236 46.2666 74.2236 46.7145C74.2236 47.3078 74.9502 47.4573 75.5058 47.4573C76.261 47.4573 76.9455 47.0698 77.3933 46.755C77.463 46.707 77.5565 46.6302 77.5842 46.5657C77.6128 46.4972 77.6128 46.4162 77.6128 46.3476C77.6128 46.2749 77.6128 46.0287 77.4916 46.0287C77.4544 46.0287 77.4124 46.0534 77.3837 46.0691C76.955 46.3476 76.3068 46.9045 75.6261 46.9045C75.3798 46.9045 75.0065 46.8723 75.0065 46.5897C75.0065 46.4079 75.7989 46.0287 75.9898 45.9361C76.135 45.8675 76.2934 45.8593 76.4281 45.7626C76.4892 45.718 76.5913 45.6494 76.5913 45.5808C76.5913 45.5164 76.4701 45.3511 76.3908 45.3147C76.3631 45.3065 76.3259 45.3065 76.2982 45.3065C76.0605 45.3065 75.8505 45.4395 75.5984 45.4395C75.5803 45.4395 75.5058 45.4395 75.5058 45.4073C75.5058 45.2586 76.1435 44.895 76.2982 44.8223C76.4195 44.762 76.5445 44.7058 76.6801 44.6653C76.6705 44.6975 76.661 44.7297 76.661 44.7702C76.661 44.8867 76.6801 44.952 76.829 44.952C77.2443 44.952 77.6453 44.6413 77.6453 44.2819Z" fill="#4D4D4D"/>
<path fill-rule="evenodd" clip-rule="evenodd" d="M86.8836 40.719C86.8792 40.6615 86.8448 40.6076 86.8059 40.55C86.7371 40.4468 86.6162 40.3755 86.4352 40.3755C85.9136 40.3755 85.5341 40.6121 85.1289 40.9602C84.5729 41.0489 83.8235 41.1247 82.8235 41.1247C81.7635 41.1247 81.4916 40.9959 81.4916 40.9246C81.4916 40.8488 81.6037 40.7099 81.7802 40.7099C81.8235 40.7099 81.8535 40.6925 81.8535 40.6697C81.8535 40.6386 81.7802 40.5939 81.5516 40.5939C81.1041 40.5939 80.8191 40.8488 80.8191 41.1165C80.8191 41.5358 81.1818 41.852 82.4096 41.852C83.4052 41.852 84.0089 41.7716 84.3875 41.7003C83.8747 42.3207 83.2842 43.2353 82.9833 43.7085C82.0821 43.7168 81.3239 43.8017 81.2418 43.82C81.1165 43.8511 80.9744 44.0201 80.9356 44.1005C80.8967 44.1855 80.8455 44.1855 80.7423 44.4312C80.7334 44.4532 80.7246 44.4842 80.7246 44.5116C80.7246 44.5911 80.7679 44.667 80.8455 44.667C80.9144 44.667 81.0044 44.6231 81.0477 44.614C81.233 44.5957 81.8191 44.5509 82.4351 44.5199C81.9056 45.3102 81.0777 46.5592 80.9876 46.8269C80.9656 46.8936 80.9488 46.9475 80.9488 46.9868C80.9488 47.1119 81.0609 47.1521 81.2974 47.1969C81.3672 47.2106 81.4228 47.2188 81.4704 47.2188C81.6381 47.2188 81.6946 47.1348 81.7635 47.005C81.8147 46.9073 82.7635 45.3814 83.3187 44.4842C83.4184 44.4842 83.5128 44.4797 83.5993 44.4797C83.8147 44.4797 83.9912 44.4888 84.1033 44.4934C84.1466 44.5025 84.1289 44.5116 84.2287 44.5116C84.3575 44.5116 84.3663 44.413 84.4564 44.3106C84.534 44.2394 84.7026 44.074 84.7026 44.0027C84.7026 43.8913 84.625 43.7972 84.4308 43.7707C84.2287 43.7442 84.0168 43.7259 83.7935 43.7168C84.474 42.6596 85.0045 41.9369 85.3487 41.4865C86.3355 41.4152 86.8836 40.9328 86.8836 40.719ZM85.9223 40.691C85.9223 40.6978 85.8758 40.7115 85.7916 40.7443C85.832 40.7245 85.8758 40.7047 85.9223 40.691Z" fill="#4D4D4D"/>
<path fill-rule="evenodd" clip-rule="evenodd" d="M87.8841 46.0969C87.8797 46.0521 87.8401 46.0198 87.7925 46.0198C87.7611 46.0198 87.7305 46.0322 87.6955 46.0563C87.6164 46.121 87.0504 46.7771 86.682 46.8261C86.5814 46.8261 86.5418 46.7614 86.5418 46.656C86.5418 46.3275 86.9282 45.6192 87.0594 45.3678C87.1645 45.1696 87.3711 44.8942 87.7485 44.2215C87.7485 44.2215 87.753 44.2173 87.753 44.209C87.753 44.1692 87.6955 44.0473 87.6514 44.039C87.6299 44.0356 87.6038 44.0356 87.5814 44.0356C87.3837 44.039 87.16 44.1161 87.0944 44.1568C87.0198 44.2015 86.8356 44.4238 86.6649 44.7357C86.5158 45.0037 84.9453 46.6759 84.6335 46.6759C84.5984 46.6759 84.585 46.656 84.585 46.6154C84.585 46.2628 85.7476 44.5292 85.7476 44.3874C85.7476 44.3069 85.6029 44.1244 85.4493 44.1244C85.2121 44.1244 85.0504 44.4197 84.6245 45.1082C84.4232 45.4367 83.8042 46.3441 83.8042 46.9273C83.8042 47.1819 84.0108 47.4573 84.3523 47.4573C84.9102 47.4573 85.629 46.6967 86.0594 46.1981C85.8967 46.4694 85.8707 46.7448 85.8707 46.9107C85.8707 47.2914 86.248 47.4333 86.5113 47.4333C87.0944 47.4333 87.7655 46.7688 87.8841 46.5548C87.9057 46.5142 87.9102 46.4495 87.9102 46.3806C87.9102 46.2711 87.8931 46.1492 87.8841 46.0969Z" fill="#4D4D4D"/>
<path fill-rule="evenodd" clip-rule="evenodd" d="M91.3321 44.4208C91.3321 44.19 91.1556 44.0442 90.927 44.0442C90.2723 44.0442 89.5998 44.7227 89.1948 45.1662C89.3201 44.9698 89.7507 44.3959 89.7507 44.1986C89.7507 44.1274 89.7331 44.0356 89.6475 44.0356C89.4189 44.0356 89.1392 44.094 88.9927 44.2741C88.8418 44.4585 88.7386 44.6678 88.6133 44.8685C88.2338 45.4844 87.8553 46.1003 87.4846 46.7282C87.3893 46.8877 87.2261 47.097 87.2261 47.2437C87.2261 47.2686 87.2261 47.2943 87.2561 47.3106C87.2993 47.3527 87.5791 47.4573 87.6523 47.4573C87.7511 47.4573 87.8588 47.3527 87.9153 47.2772C88.1994 46.9049 88.5012 46.5404 88.8242 46.1964C89.0395 45.9665 90.2078 44.7725 90.4311 44.7562L90.4399 44.7639C90.289 44.9363 90.1214 45.1748 90.1214 45.4175C90.1214 45.5814 90.2202 45.74 90.4055 45.74C90.5176 45.74 90.5908 45.6817 90.6508 45.6062C90.8194 45.3884 91.3321 44.6592 91.3321 44.4208Z" fill="#4D4D4D"/>
<path fill-rule="evenodd" clip-rule="evenodd" d="M94.7534 46.411C94.7534 46.3385 94.7608 46.0482 94.6489 46.0482C94.5321 46.0482 93.8813 46.8736 93.4996 46.8736C93.3836 46.8736 93.2586 46.8257 93.2586 46.6963C93.2586 46.4184 93.7086 45.7506 93.841 45.5453C93.9982 45.3037 94.4844 44.6515 94.4844 44.4058C94.4844 44.1841 94.3116 44.0439 94.1068 44.0439C93.4881 44.0439 92.8695 44.6961 92.4836 45.1223C92.6005 44.9335 93.0019 44.3819 93.0019 44.1923C93.0019 44.1239 92.9937 44.0356 92.9057 44.0356C92.6926 44.0356 92.431 44.0917 92.2944 44.2649C92.1546 44.4421 92.0575 44.6433 91.9415 44.8362C91.5878 45.4282 91.234 46.0202 90.8885 46.6237C90.8005 46.773 90.6475 46.9865 90.6475 47.1193C90.6475 47.1432 90.6475 47.1679 90.6763 47.1836C90.724 47.224 90.9773 47.3246 91.0456 47.3246C91.1419 47.3246 91.2422 47.224 91.299 47.1514C91.5639 46.7969 91.837 46.4473 92.1381 46.1126C92.3389 45.8916 93.4272 44.7439 93.6362 44.7282L93.6444 44.7356C93.6321 44.8164 93.4717 45.0539 93.4313 45.1141C93.0941 45.6137 92.6564 46.2939 92.6564 46.8051C92.6564 47.2001 93.0101 47.4491 93.331 47.4573C93.8089 47.4573 94.2713 47.0352 94.5641 46.7647C94.7048 46.6806 94.7534 46.5479 94.7534 46.411Z" fill="#4D4D4D"/>
<path fill-rule="evenodd" clip-rule="evenodd" d="M97.8335 43.283C97.8335 43.1722 97.6914 43.1128 97.4682 43.1128C96.9608 43.1128 96.4648 43.3815 96.4648 43.6208C96.4648 43.7371 96.5892 43.7971 96.8302 43.7971C97.3008 43.7971 97.8335 43.5039 97.8335 43.283ZM96.4647 46.1613C96.4647 46.0896 96.4751 45.8028 96.3331 45.8028C96.1767 45.8028 95.5136 46.6071 94.9014 46.6071C94.775 46.6071 94.6434 46.5826 94.6434 46.4718C94.6434 46.2803 94.9014 45.9943 95.0226 45.8346C95.1697 45.6357 96.2264 44.1991 96.2264 44.116C96.2264 43.9929 96.0192 43.7974 95.8524 43.7974C95.4173 43.7974 94.633 44.4737 94.633 44.5373C94.633 44.6294 94.8413 44.7084 94.8413 44.8005C94.8413 44.864 93.7275 46.1369 93.7275 46.5354C93.7275 46.8849 94.1937 47.219 94.6486 47.219C95.1997 47.219 96.0803 46.9012 96.4347 46.3324C96.4647 46.2803 96.4647 46.2167 96.4647 46.1613Z" fill="#4D4D4D"/>
<path fill-rule="evenodd" clip-rule="evenodd" d="M96.1221 46.6395C96.1221 47.1722 96.3667 47.3658 96.8388 47.4444C96.8805 47.4529 96.9222 47.4571 96.9687 47.4571C97.5015 47.4571 98.0845 46.9743 98.3945 46.7342C98.5377 46.6234 98.6031 46.5279 98.6031 46.3715C98.6031 46.2971 98.6126 45.9994 98.4827 45.9994C98.3671 45.9994 97.5612 46.8255 97.1166 46.8255C96.9687 46.8255 96.89 46.7841 96.89 46.6234C96.89 46.5778 96.8995 46.5236 96.909 46.4619C96.9734 46.0493 98.3386 43.9685 98.6723 43.5103C99.098 43.4891 99.4317 43.4485 99.8574 43.4113C99.9967 43.3986 100.228 43.3327 100.228 43.1678C100.228 43.1053 100.195 43.0807 100.149 43.0478C100.047 42.9818 100.015 42.8702 99.9038 42.8288C99.8669 42.8169 99.7597 42.8127 99.6488 42.8127C99.5379 42.8127 99.2506 42.833 99.1909 42.8372C99.2601 42.7341 99.6583 42.2014 99.6583 42.1355C99.6583 42.0898 99.6071 42.0239 99.5521 42.0239C99.4782 42.0239 99.4782 41.9824 99.3625 41.9824C99.2876 41.9824 99.2184 42.0078 99.1445 42.0078C99.0478 42.0078 99.0383 42.0239 98.9823 42.0898C98.7463 42.3215 98.5472 42.598 98.3481 42.8541C97.9129 42.8702 98.3671 42.8541 97.9319 42.8702C97.7328 42.8787 97.5337 42.8829 97.3346 42.8947C97.182 42.9074 96.8018 43.0892 96.7563 43.2169C96.7231 43.2997 96.6075 43.3572 96.6075 43.4189C96.6075 43.5804 96.8625 43.6219 96.9924 43.6219H97.0341C97.1355 43.6219 97.8295 43.5432 97.8342 43.5475C97.4181 44.1216 96.1306 45.991 96.1221 46.6395Z" fill="#4D4D4D"/>
<path fill-rule="evenodd" clip-rule="evenodd" d="M102.254 46.0969C102.251 46.0521 102.211 46.0198 102.163 46.0198C102.132 46.0198 102.102 46.0322 102.066 46.0563C101.988 46.121 101.422 46.7771 101.053 46.8261C100.952 46.8261 100.912 46.7614 100.912 46.656C100.912 46.3275 101.299 45.6192 101.43 45.3678C101.536 45.1696 101.741 44.8942 102.119 44.2215C102.119 44.2215 102.123 44.2173 102.123 44.209C102.123 44.1692 102.066 44.0473 102.023 44.039C102 44.0356 101.974 44.0356 101.953 44.0356C101.755 44.039 101.531 44.1161 101.466 44.1568C101.391 44.2015 101.206 44.4238 101.035 44.7357C100.886 45.0037 99.3161 46.6759 99.0044 46.6759C98.9694 46.6759 98.9568 46.656 98.9568 46.6154C98.9568 46.2628 100.119 44.5292 100.119 44.3874C100.119 44.3069 99.9736 44.1244 99.82 44.1244C99.5838 44.1244 99.4212 44.4197 98.9963 45.1082C98.7942 45.4367 98.1753 46.3441 98.1753 46.9273C98.1753 47.1819 98.3819 47.4573 98.7241 47.4573C99.2811 47.4573 100.001 46.6967 100.43 46.1981C100.268 46.4694 100.241 46.7448 100.241 46.9107C100.241 47.2914 100.619 47.4333 100.882 47.4333C101.466 47.4333 102.137 46.7688 102.254 46.5548C102.277 46.5142 102.281 46.4495 102.281 46.3806C102.281 46.2711 102.263 46.1492 102.254 46.0969Z" fill="#4D4D4D"/>
<path fill-rule="evenodd" clip-rule="evenodd" d="M105.703 44.4208C105.703 44.19 105.497 44.0442 105.23 44.0442C104.466 44.0442 103.682 44.7227 103.209 45.1662C103.356 44.9698 103.858 44.3959 103.858 44.1986C103.858 44.1274 103.838 44.0356 103.738 44.0356C103.471 44.0356 103.145 44.094 102.974 44.2741C102.798 44.4585 102.677 44.6678 102.531 44.8685C102.089 45.4844 101.647 46.1003 101.214 46.7282C101.104 46.8877 100.913 47.097 100.913 47.2437C100.913 47.2686 100.913 47.2943 100.948 47.3106C100.998 47.3527 101.324 47.4573 101.41 47.4573C101.526 47.4573 101.652 47.3527 101.717 47.2772C102.049 46.9049 102.4 46.5404 102.778 46.1964C103.029 45.9665 104.391 44.7725 104.653 44.7562L104.663 44.7639C104.487 44.9363 104.29 45.1748 104.29 45.4175C104.29 45.5814 104.407 45.74 104.623 45.74C104.753 45.74 104.838 45.6817 104.909 45.6062C105.105 45.3884 105.703 44.6592 105.703 44.4208Z" fill="#4D4D4D"/>
<path fill-rule="evenodd" clip-rule="evenodd" d="M107.756 44.2819C107.756 44.1084 107.51 44.0356 107.379 44.0356C106.745 44.0356 105.507 44.605 105.507 45.399C105.507 45.613 105.526 45.7709 105.731 45.8717C105.381 46.013 105.019 46.2666 105.019 46.7145C105.019 47.3078 105.601 47.4573 106.044 47.4573C106.648 47.4573 107.196 47.0698 107.554 46.755C107.61 46.707 107.685 46.6302 107.707 46.5657C107.73 46.4972 107.73 46.4162 107.73 46.3476C107.73 46.2749 107.73 46.0287 107.633 46.0287C107.603 46.0287 107.57 46.0534 107.547 46.0691C107.204 46.3476 106.686 46.9045 106.141 46.9045C105.943 46.9045 105.645 46.8723 105.645 46.5897C105.645 46.4079 106.279 46.0287 106.432 45.9361C106.548 45.8675 106.674 45.8593 106.782 45.7626C106.831 45.718 106.913 45.6494 106.913 45.5808C106.913 45.5164 106.816 45.3511 106.752 45.3147C106.73 45.3065 106.7 45.3065 106.678 45.3065C106.488 45.3065 106.32 45.4395 106.118 45.4395C106.104 45.4395 106.044 45.4395 106.044 45.4073C106.044 45.2586 106.555 44.895 106.678 44.8223C106.775 44.762 106.876 44.7058 106.984 44.6653C106.976 44.6975 106.969 44.7297 106.969 44.7702C106.969 44.8867 106.984 44.952 107.103 44.952C107.435 44.952 107.756 44.6413 107.756 44.2819Z" fill="#4D4D4D"/>
<path fill-rule="evenodd" clip-rule="evenodd" d="M117.337 43.2528C117.337 42.1278 116.229 41.2983 114.227 41.2983C112.239 41.2983 110.849 42.1964 110.849 42.8834C110.849 43.1543 111.095 43.2352 111.205 43.2352H111.222C111.25 43.2352 111.273 43.2484 111.319 43.2484C111.391 43.244 111.519 43.2141 111.82 43.0426C111.907 42.9907 111.893 42.952 112.025 42.8834C112.08 42.8535 112.108 42.8324 112.108 42.8192C112.108 42.8104 112.094 42.8016 112.067 42.8016C112.03 42.8016 111.957 42.8359 111.87 42.8359C111.839 42.8359 111.815 42.8236 111.815 42.8016C111.815 42.7629 111.866 42.7031 111.989 42.6125C112.263 42.411 113.161 41.9598 114.218 41.9598C115.65 41.9598 116.443 42.6477 116.443 43.4551C116.443 44.6532 113.912 46.7361 111.651 46.7361C111.46 46.7361 111.391 46.7185 111.391 46.6807C111.391 46.6156 113.83 43.0725 114.332 42.4154C114.406 42.3204 114.437 42.265 114.437 42.2175C114.437 42.119 114.35 42.0935 114.099 42.0935C113.726 42.119 113.612 42.1533 113.585 42.1876C113.06 42.8579 110.74 45.9462 110.53 46.6587C110.517 46.7106 110.493 46.8267 110.493 46.9375C110.493 47.0457 110.517 47.1486 110.58 47.1873C110.74 47.2902 110.635 47.4573 111.56 47.4573C114.072 47.4573 117.337 45.4773 117.337 43.2528Z" fill="#4D4D4D"/>
<path fill-rule="evenodd" clip-rule="evenodd" d="M120.074 44.2819C120.074 44.1084 119.766 44.0356 119.602 44.0356C118.81 44.0356 117.262 44.605 117.262 45.399C117.262 45.613 117.286 45.7709 117.542 45.8717C117.104 46.013 116.652 46.2666 116.652 46.7145C116.652 47.3078 117.379 47.4573 117.934 47.4573C118.689 47.4573 119.374 47.0698 119.822 46.755C119.892 46.707 119.985 46.6302 120.013 46.5657C120.041 46.4972 120.041 46.4162 120.041 46.3476C120.041 46.2749 120.041 46.0287 119.92 46.0287C119.882 46.0287 119.841 46.0534 119.812 46.0691C119.384 46.3476 118.736 46.9045 118.055 46.9045C117.808 46.9045 117.435 46.8723 117.435 46.5897C117.435 46.4079 118.228 46.0287 118.419 45.9361C118.564 45.8675 118.722 45.8593 118.857 45.7626C118.918 45.718 119.02 45.6494 119.02 45.5808C119.02 45.5164 118.899 45.3511 118.82 45.3147C118.792 45.3065 118.755 45.3065 118.727 45.3065C118.488 45.3065 118.279 45.4395 118.027 45.4395C118.009 45.4395 117.934 45.4395 117.934 45.4073C117.934 45.2586 118.572 44.895 118.727 44.8223C118.847 44.762 118.973 44.7058 119.109 44.6653C119.099 44.6975 119.09 44.7297 119.09 44.7702C119.09 44.8867 119.109 44.952 119.258 44.952C119.673 44.952 120.074 44.6413 120.074 44.2819Z" fill="#4D4D4D"/>
<path fill-rule="evenodd" clip-rule="evenodd" d="M122.811 44.3659C122.811 44.2967 122.82 44.0356 122.214 44.0356C121.589 44.0356 119.719 44.6199 119.719 45.5448C119.719 45.8869 120.024 46.0017 120.299 46.0787C120.839 46.2282 121.403 46.2863 121.403 46.4279C121.403 46.6009 120.839 46.8431 120.148 46.8431C120.073 46.8431 119.925 46.7511 119.925 46.6088C119.925 46.5891 119.929 46.5663 119.929 46.5474C119.929 46.4743 119.831 46.4664 119.728 46.4664C119.558 46.4664 119.39 46.7236 119.39 47.0004C119.39 47.1962 119.575 47.4573 120.172 47.4573C120.856 47.4573 122.14 47.0232 122.14 46.332C122.14 46.1904 122.013 45.9561 121.757 45.8444C121.049 45.5377 120.358 45.5833 120.358 45.4378C120.358 45.3104 121.152 44.7041 121.926 44.6656C121.889 44.7733 121.827 44.7851 121.827 44.8504C121.827 44.881 121.84 44.9117 121.869 44.9227C121.926 44.9495 121.918 45.0116 122.053 45.0116C122.297 45.0116 122.606 44.8535 122.713 44.7198C122.762 44.6577 122.811 44.5161 122.811 44.3927V44.3659Z" fill="#4D4D4D"/>
<path fill-rule="evenodd" clip-rule="evenodd" d="M125.207 43.283C125.207 43.1722 125.136 43.1128 125.024 43.1128C124.77 43.1128 124.522 43.3815 124.522 43.6208C124.522 43.7371 124.584 43.7971 124.705 43.7971C124.94 43.7971 125.207 43.5039 125.207 43.283ZM125.207 46.1613C125.207 46.0896 125.214 45.8028 125.108 45.8028C124.99 45.8028 124.493 46.6071 124.034 46.6071C123.939 46.6071 123.841 46.5826 123.841 46.4718C123.841 46.2803 124.034 45.9943 124.125 45.8346C124.235 45.6357 125.028 44.1991 125.028 44.116C125.028 43.9929 124.873 43.7974 124.747 43.7974C124.421 43.7974 123.833 44.4737 123.833 44.5373C123.833 44.6294 123.988 44.7084 123.988 44.8005C123.988 44.864 123.154 46.1369 123.154 46.5354C123.154 46.8849 123.503 47.219 123.845 47.219C124.258 47.219 124.918 46.9012 125.184 46.3324C125.207 46.2803 125.207 46.2167 125.207 46.1613Z" fill="#4D4D4D"/>
<path fill-rule="evenodd" clip-rule="evenodd" d="M129.308 44.0175C129.27 43.9309 129.27 43.7974 129.142 43.7974C128.89 43.7974 128.638 43.7886 128.419 44.0087C128.372 43.9221 128.23 43.8398 128.002 43.8398C126.942 43.8398 124.59 45.2472 124.59 46.8101C124.59 47.2672 124.941 47.375 125.317 47.375C125.611 47.375 126.309 46.9958 127.031 46.3089C126.162 47.5784 126.162 47.5527 126.077 47.6685C125.939 47.8241 124.522 48.6577 124.522 49.4949C124.522 49.7884 124.699 49.9564 125.031 49.9564C125.203 49.9564 125.364 49.9007 125.445 49.7707C125.625 49.4905 125.935 49.0936 126.466 48.511C127.45 47.436 129.227 46.6333 129.28 46.5211C129.303 46.4778 129.308 46.4088 129.308 46.3354C129.308 46.1153 129.299 45.9641 129.184 45.9641C129.156 45.9641 129.113 45.973 129.075 45.9898C128.167 46.3955 127.379 47.0347 127.051 47.2981C127.906 45.9297 128.648 44.8936 129.199 44.1767C129.214 44.1554 129.313 44.0944 129.313 44.0387C129.313 44.0299 129.313 44.0255 129.308 44.0175ZM127.944 44.4814C126.422 46.4912 125.36 47.2188 125.248 47.2188C125.221 47.2188 125.207 47.1896 125.207 47.1353C125.207 46.7277 126.037 44.9242 127.944 44.4814Z" fill="#4D4D4D"/>
<path fill-rule="evenodd" clip-rule="evenodd" d="M132.392 46.411C132.392 46.3385 132.401 46.0482 132.27 46.0482C132.134 46.0482 131.375 46.8736 130.93 46.8736C130.793 46.8736 130.648 46.8257 130.648 46.6963C130.648 46.4184 131.174 45.7506 131.328 45.5453C131.511 45.3037 132.078 44.6515 132.078 44.4058C132.078 44.1841 131.876 44.0439 131.637 44.0439C130.915 44.0439 130.193 44.6961 129.744 45.1223C129.88 44.9335 130.348 44.3819 130.348 44.1923C130.348 44.1239 130.339 44.0356 130.236 44.0356C129.987 44.0356 129.683 44.0917 129.523 44.2649C129.359 44.4421 129.247 44.6433 129.111 44.8362C128.699 45.4282 128.286 46.0202 127.883 46.6237C127.78 46.773 127.602 46.9865 127.602 47.1193C127.602 47.1432 127.602 47.1679 127.634 47.1836C127.691 47.224 127.987 47.3246 128.066 47.3246C128.178 47.3246 128.296 47.224 128.361 47.1514C128.67 46.7969 128.989 46.4473 129.341 46.1126C129.575 45.8916 130.845 44.7439 131.089 44.7282L131.099 44.7356C131.084 44.8164 130.897 45.0539 130.85 45.1141C130.456 45.6137 129.946 46.2939 129.946 46.8051C129.946 47.2001 130.358 47.4491 130.733 47.4573C131.291 47.4573 131.829 47.0352 132.172 46.7647C132.336 46.6806 132.392 46.5479 132.392 46.411Z" fill="#4D4D4D"/>
<path fill-rule="evenodd" clip-rule="evenodd" d="M135.814 44.3659C135.814 44.2967 135.824 44.0356 135.097 44.0356C134.346 44.0356 132.103 44.6199 132.103 45.5448C132.103 45.8869 132.468 46.0017 132.8 46.0787C133.447 46.2282 134.124 46.2863 134.124 46.4279C134.124 46.6009 133.447 46.8431 132.617 46.8431C132.528 46.8431 132.35 46.7511 132.35 46.6088C132.35 46.5891 132.355 46.5663 132.355 46.5474C132.355 46.4743 132.236 46.4664 132.113 46.4664C131.91 46.4664 131.708 46.7236 131.708 47.0004C131.708 47.1962 131.93 47.4573 132.646 47.4573C133.467 47.4573 135.008 47.0232 135.008 46.332C135.008 46.1904 134.856 45.9561 134.549 45.8444C133.699 45.5377 132.869 45.5833 132.869 45.4378C132.869 45.3104 133.822 44.7041 134.751 44.6656C134.707 44.7733 134.633 44.7851 134.633 44.8504C134.633 44.881 134.648 44.9117 134.683 44.9227C134.751 44.9495 134.742 45.0116 134.905 45.0116C135.197 45.0116 135.567 44.8535 135.696 44.7198C135.755 44.6577 135.814 44.5161 135.814 44.3927V44.3659Z" fill="#4D4D4D"/>
<path fill-rule="evenodd" clip-rule="evenodd" d="M48.2188 47.4573H50.2718V0.238281H48.2188V47.4573Z" fill="#4D4D4D"/>
<path fill-rule="evenodd" clip-rule="evenodd" d="M1 24.19C1 21.1662 3.4509 18.7153 6.47467 18.7153C9.49844 18.7153 11.9493 21.1662 11.9493 24.19C11.9493 27.2138 9.49844 29.6647 6.47467 29.6647C3.4509 29.6647 1 27.2138 1 24.19Z" fill="#4D4D4D"/>
<path fill-rule="evenodd" clip-rule="evenodd" d="M16.7397 24.19C16.7397 21.1662 19.1906 18.7153 22.2144 18.7153C25.2382 18.7153 27.6891 21.1662 27.6891 24.19C27.6891 27.2138 25.2382 29.6647 22.2144 29.6647C19.1906 29.6647 16.7397 27.2138 16.7397 24.19Z" fill="#4D4D4D"/>
<path d="M1.00012 7.87006C1.00012 11.2492 3.58759 14.0291 6.81695 14.0291V13.3447C4.00403 13.3447 1.68445 10.9109 1.68445 7.87006H1.00012ZM6.81695 14.0291C10.0463 14.0291 12.6338 11.2492 12.6338 7.87006H11.9495C11.9495 10.9109 9.62988 13.3447 6.81695 13.3447V14.0291ZM12.6338 7.87006C12.6338 4.49096 10.0463 1.71106 6.81695 1.71106V2.39539C9.62988 2.39539 11.9495 4.82923 11.9495 7.87006H12.6338ZM6.81695 1.71106C3.58759 1.71106 1.00012 4.49096 1.00012 7.87006H1.68445C1.68445 4.82923 4.00403 2.39539 6.81695 2.39539V1.71106ZM16.0553 7.87006C16.0553 11.2492 18.6428 14.0291 21.8721 14.0291V13.3447C19.0592 13.3447 16.7396 10.9109 16.7396 7.87006H16.0553ZM21.8721 14.0291C25.1015 14.0291 27.689 11.2492 27.689 7.87006H27.0046C27.0046 10.9109 24.6851 13.3447 21.8721 13.3447V14.0291ZM27.689 7.87006C27.689 4.49096 25.1015 1.71106 21.8721 1.71106V2.39539C24.6851 2.39539 27.0046 4.82923 27.0046 7.87006H27.689ZM21.8721 1.71106C18.6428 1.71106 16.0553 4.49096 16.0553 7.87006H16.7396C16.7396 4.82923 19.0592 2.39539 21.8721 2.39539V1.71106Z" fill="#4D4D4D"/>
<path fill-rule="evenodd" clip-rule="evenodd" d="M16.7397 39.9297C16.7397 36.906 19.1906 34.4551 22.2144 34.4551C25.2382 34.4551 27.6891 36.906 27.6891 39.9297C27.6891 42.9535 25.2382 45.4044 22.2144 45.4044C19.1906 45.4044 16.7397 42.9535 16.7397 39.9297Z" fill="#4D4D4D"/>
<path fill-rule="evenodd" clip-rule="evenodd" d="M1 39.9297C1 42.9509 3.45353 45.4044 6.47467 45.4044C9.49581 45.4044 11.9493 42.9509 11.9493 39.9297C11.9493 36.9086 9.49581 34.4551 6.47467 34.4551C3.45353 34.4551 1 36.9086 1 39.9297Z" stroke="#4D4D4D" stroke-width="0.684334"/>
<path fill-rule="evenodd" clip-rule="evenodd" d="M32.4795 8.10785C32.4795 4.8951 35.0836 2.29102 38.2963 2.29102C41.5091 2.29102 44.1132 4.8951 44.1132 8.10785C44.1132 11.3206 41.5091 13.9247 38.2963 13.9247C35.0836 13.9247 32.4795 11.3206 32.4795 8.10785Z" fill="#4D4D4D"/>
<path fill-rule="evenodd" clip-rule="evenodd" d="M32.4795 39.9297C32.4795 36.906 35.0836 34.4551 38.2963 34.4551C41.5091 34.4551 44.1132 36.906 44.1132 39.9297C44.1132 42.9535 41.5091 45.4044 38.2963 45.4044C35.0836 45.4044 32.4795 42.9535 32.4795 39.9297Z" fill="#4D4D4D"/>
<path fill-rule="evenodd" clip-rule="evenodd" d="M32.4795 24.19C32.4795 27.2111 35.0864 29.6647 38.2963 29.6647C41.5063 29.6647 44.1132 27.2111 44.1132 24.19C44.1132 21.1689 41.5063 18.7153 38.2963 18.7153C35.0864 18.7153 32.4795 21.1689 32.4795 24.19Z" stroke="#4D4D4D" stroke-width="0.684334"/>
</svg>
