<svg width="100" height="100" viewBox="0 0 100 100" fill="none" xmlns="http://www.w3.org/2000/svg">
<path fill-rule="evenodd" clip-rule="evenodd" d="M99.2284 49.6142C99.2284 77.0156 77.0156 99.2284 49.6142 99.2284C22.2128 99.2284 0 77.0156 0 49.6142C0 22.2128 22.2128 0 49.6142 0C77.0156 0 99.2284 22.2128 99.2284 49.6142Z" fill="#4D4D4D"/>
<path fill-rule="evenodd" clip-rule="evenodd" d="M33.7034 47.8239L27.4705 34.3945V47.8239H24.2158V25.6323H26.9511L33.184 39.0617V25.6323H36.4736V47.8239H33.7034Z" fill="#FFFFFE"/>
<path fill-rule="evenodd" clip-rule="evenodd" d="M48.6473 25.6626V28.493H41.3413V35.3281H48.6473V38.1585H41.3413V45.0238H48.6473V47.8542H38.0859V25.6626H48.6473Z" fill="#FFFFFE"/>
<path fill-rule="evenodd" clip-rule="evenodd" d="M66.8809 39.8146L70.4826 25.6626H73.8413L68.1969 47.8542H65.5649L61.9989 33.672L58.3972 47.8542H55.766L50.1216 25.6626H53.4803L57.0813 39.8146L60.6829 25.6626H63.3142L66.8809 39.8146Z" fill="#FFFFFE"/>
<path fill-rule="evenodd" clip-rule="evenodd" d="M28.0251 59.4468L33.2191 51.3169H36.959L29.6524 62.759V73.5085H26.3977V62.759L19.126 51.3169H22.8652L28.0251 59.4468Z" fill="#FFFFFE"/>
<path fill-rule="evenodd" clip-rule="evenodd" d="M36.8398 57.6099C36.8398 55.6527 37.3244 54.117 38.2941 53.033C38.6745 52.6416 39.194 52.2201 39.9563 51.8587C40.718 51.5275 41.6528 51.2866 42.8996 51.2866C45.3926 51.2866 46.7777 52.2201 47.5045 53.033C48.4742 54.117 48.9594 55.6527 48.9594 57.6099V67.1549C48.9594 69.1121 48.4742 70.6478 47.5045 71.7318C46.7777 72.5448 45.3926 73.4782 42.8996 73.4782C40.4408 73.4782 39.0208 72.5448 38.2941 71.7318C37.3244 70.6478 36.8398 69.1121 36.8398 67.1549V57.6099ZM40.0943 67.1548C40.0943 68.9313 40.5446 69.7744 41.1331 70.196C41.7216 70.6175 42.38 70.6476 42.8994 70.6476C43.349 70.6476 44.0764 70.6175 44.665 70.196C45.2535 69.7744 45.7038 68.9313 45.7038 67.1548V57.6097C45.7038 55.8934 45.2535 54.9901 44.665 54.5685C44.0764 54.147 43.349 54.147 42.8994 54.147C42.38 54.147 41.7216 54.147 41.1331 54.5685C40.5446 54.9901 40.0943 55.8934 40.0943 57.6097V67.1548Z" fill="#FFFFFE"/>
<path fill-rule="evenodd" clip-rule="evenodd" d="M61.8595 73.4782H58.5699V66.9141C58.5699 64.9569 57.4969 63.9933 55.3152 63.9933H53.2718V73.4782H50.0171V51.2866H55.3152C59.7127 51.2866 61.7904 53.4847 61.7904 57.6099C61.7904 59.6574 61.271 61.2231 60.267 62.277C60.2321 62.3071 60.163 62.3674 60.1281 62.4276C60.059 62.4878 59.9899 62.548 59.9208 62.5781C61.1669 63.632 61.8595 65.0773 61.8595 66.9141V73.4782ZM53.2717 61.1327H55.3151C56.1808 61.1327 56.8043 61.0423 57.1505 60.8617C57.4619 60.681 57.6699 60.5304 57.7733 60.4401C58.2927 59.868 58.5356 58.9346 58.5356 57.6097C58.5356 56.1343 58.2585 55.2611 57.7391 54.7492C57.1847 54.2674 56.3882 54.147 55.3151 54.147H53.2717V61.1327Z" fill="#FFFFFE"/>
<path fill-rule="evenodd" clip-rule="evenodd" d="M70.2934 61.6748L77.808 73.4782H74.0681L68.2506 64.3848L66.9004 66.2215V73.4782H63.6451V65.4386H63.6108L63.6451 65.3784V51.2866H66.9004V60.9823L74.1373 51.2866H78.0503L70.2934 61.6748Z" fill="#FFFFFE"/>
<path fill-rule="evenodd" clip-rule="evenodd" d="M28.5728 15.9863H29.0908V16.2114C29.0908 16.4174 29.1346 16.5659 29.2174 16.6569C29.2338 16.6809 29.2667 16.7 29.3166 16.724C29.3659 16.7479 29.4378 16.7623 29.5425 16.7623C29.7402 16.7623 29.8504 16.6761 29.9168 16.5707C29.9777 16.4653 29.9886 16.3312 29.9886 16.2354C29.9886 16.0677 29.9223 15.9575 29.8285 15.8761C29.7348 15.7995 29.6082 15.7468 29.4925 15.7037L29.3933 15.6653C29.2776 15.6222 29.0792 15.5504 28.9033 15.4019C28.6829 15.215 28.5728 14.9803 28.5728 14.6929C28.5728 14.3911 28.6665 14.1372 28.8424 13.96C29.0135 13.7875 29.2557 13.6821 29.5425 13.6821C29.9387 13.6821 30.159 13.8306 30.2747 13.96C30.4348 14.1372 30.5115 14.3815 30.5115 14.6929V14.918H29.9886V14.6929C29.9886 14.4198 29.9168 14.2713 29.823 14.2043C29.7293 14.1372 29.6136 14.1372 29.5425 14.1372C29.3276 14.1372 29.2229 14.2378 29.162 14.3624C29.0963 14.4869 29.0908 14.6306 29.0908 14.6929C29.0908 14.8606 29.1565 14.9707 29.2502 15.057C29.344 15.1432 29.4706 15.2055 29.6027 15.2486L29.691 15.2821C29.7957 15.3204 29.9941 15.3827 30.17 15.5312C30.3958 15.7132 30.5115 15.948 30.5115 16.2354C30.5115 16.7767 30.1645 17.2126 29.5425 17.2126C28.8978 17.2126 28.5728 16.8438 28.5728 16.2114V15.9863Z" fill="#FFFFFE"/>
<path fill-rule="evenodd" clip-rule="evenodd" d="M31.8369 14.6881C31.8369 14.3767 31.9136 14.1324 32.0682 13.96C32.1284 13.8977 32.2112 13.8306 32.3324 13.7731C32.4535 13.7205 32.602 13.6821 32.8005 13.6821C33.1974 13.6821 33.4177 13.8306 33.5334 13.96C33.6874 14.1324 33.7647 14.3767 33.7647 14.6881V16.2066C33.7647 16.518 33.6874 16.7623 33.5334 16.9348C33.4177 17.0641 33.1974 17.2126 32.8005 17.2126C32.4097 17.2126 32.1839 17.0641 32.0682 16.9348C31.9136 16.7623 31.8369 16.518 31.8369 16.2066V14.6881ZM32.3539 16.2066C32.3539 16.4893 32.4258 16.6234 32.5196 16.6905C32.6133 16.7575 32.718 16.7623 32.8001 16.7623C32.872 16.7623 32.9876 16.7575 33.0814 16.6905C33.1751 16.6234 33.2463 16.4893 33.2463 16.2066V14.6881C33.2463 14.415 33.1751 14.2713 33.0814 14.2043C32.9876 14.1372 32.872 14.1372 32.8001 14.1372C32.718 14.1372 32.6133 14.1372 32.5196 14.2043C32.4258 14.2713 32.3539 14.415 32.3539 14.6881V16.2066Z" fill="#FFFFFE"/>
<path fill-rule="evenodd" clip-rule="evenodd" d="M35.145 14.6881C35.145 14.3767 35.2217 14.1324 35.3763 13.96C35.4365 13.8977 35.5193 13.8306 35.6405 13.7731C35.7616 13.7205 35.9101 13.6821 36.1086 13.6821C36.5055 13.6821 36.7258 13.8306 36.8415 13.96C36.9955 14.1324 37.0728 14.3767 37.0728 14.6881V16.2066C37.0728 16.518 36.9955 16.7623 36.8415 16.9348C36.7258 17.0641 36.5055 17.2126 36.1086 17.2126C35.7178 17.2126 35.492 17.0641 35.3763 16.9348C35.2217 16.7623 35.145 16.518 35.145 16.2066V14.6881ZM35.6625 16.2066C35.6625 16.4893 35.7343 16.6234 35.8281 16.6905C35.9218 16.7575 36.0265 16.7623 36.1087 16.7623C36.1805 16.7623 36.2962 16.7575 36.3899 16.6905C36.4837 16.6234 36.5548 16.4893 36.5548 16.2066V14.6881C36.5548 14.415 36.4837 14.2713 36.3899 14.2043C36.2962 14.1372 36.1805 14.1372 36.1087 14.1372C36.0265 14.1372 35.9218 14.1372 35.8281 14.2043C35.7343 14.2713 35.6625 14.415 35.6625 14.6881V16.2066Z" fill="#FFFFFE"/>
<path fill-rule="evenodd" clip-rule="evenodd" d="M38.4531 14.6881C38.4531 14.3767 38.5298 14.1324 38.6844 13.96C38.7447 13.8977 38.8275 13.8306 38.9486 13.7731C39.0697 13.7205 39.2189 13.6821 39.4167 13.6821C39.8136 13.6821 40.0339 13.8306 40.1496 13.96C40.3036 14.1324 40.3809 14.3767 40.3809 14.6881V16.2066C40.3809 16.518 40.3036 16.7623 40.1496 16.9348C40.0339 17.0641 39.8136 17.2126 39.4167 17.2126C39.0259 17.2126 38.8001 17.0641 38.6844 16.9348C38.5298 16.7623 38.4531 16.518 38.4531 16.2066V14.6881ZM38.9705 16.2066C38.9705 16.4893 39.0424 16.6234 39.1361 16.6905C39.2299 16.7575 39.3346 16.7623 39.4167 16.7623C39.4886 16.7623 39.6042 16.7575 39.698 16.6905C39.7917 16.6234 39.8629 16.4893 39.8629 16.2066V14.6881C39.8629 14.415 39.7917 14.2713 39.698 14.2043C39.6042 14.1372 39.4886 14.1372 39.4167 14.1372C39.3346 14.1372 39.2299 14.1372 39.1361 14.2043C39.0424 14.2713 38.9705 14.415 38.9705 14.6881V16.2066Z" fill="#FFFFFE"/>
<path fill-rule="evenodd" clip-rule="evenodd" d="M44.6582 17.217V13.6865H45.4678C46.1678 13.6865 46.4984 14.0602 46.4984 14.7069V16.1919C46.4984 16.8386 46.1678 17.217 45.4678 17.217H44.6582ZM45.176 14.1372V16.7671H45.4675C45.5996 16.7671 45.7269 16.7527 45.8199 16.6761C45.9082 16.5994 45.9746 16.4557 45.9746 16.1923V14.7073C45.9746 14.4438 45.9082 14.3001 45.8199 14.2234C45.7269 14.1468 45.5996 14.1372 45.4675 14.1372H45.176Z" fill="#FFFFFE"/>
<path fill-rule="evenodd" clip-rule="evenodd" d="M49.5753 13.6865V14.1368H48.4126V15.2242H49.5753V15.6745H48.4126V16.7667H49.5753V17.217H47.8945V13.6865H49.5753Z" fill="#FFFFFE"/>
<path fill-rule="evenodd" clip-rule="evenodd" d="M52.7898 17.2126H51.0215V13.6821H51.5388V16.7623H52.7898V17.2126Z" fill="#FFFFFE"/>
<path fill-rule="evenodd" clip-rule="evenodd" d="M54.2246 17.217H54.742V13.6865H54.2246V17.217Z" fill="#FFFFFE"/>
<path fill-rule="evenodd" clip-rule="evenodd" d="M56.2485 14.6925C56.2485 14.3811 56.3259 14.1368 56.4798 13.9644C56.5955 13.835 56.8158 13.6865 57.2128 13.6865C57.609 13.6865 57.8239 13.835 57.9395 13.9644C58.0997 14.1416 58.177 14.3811 58.177 14.6925V14.9176H57.6535V14.6925C57.6535 14.4194 57.5816 14.2709 57.4933 14.2039C57.4003 14.1368 57.2846 14.1368 57.2128 14.1368C57.13 14.1368 57.0253 14.1368 56.9315 14.2039C56.8377 14.2709 56.7666 14.4194 56.7666 14.6925V16.2062C56.7666 16.4122 56.8104 16.5655 56.8932 16.6565C56.9096 16.6805 56.9424 16.7044 56.9924 16.7284C57.0417 16.7523 57.1135 16.7667 57.2128 16.7667C57.4112 16.7667 57.4879 16.6996 57.5323 16.6565C57.6151 16.5607 57.6535 16.4122 57.6535 16.2062V15.9811H58.177V16.2062C58.177 16.5176 58.0997 16.7571 57.9395 16.9344C57.8239 17.0637 57.609 17.217 57.2128 17.217C57.0143 17.217 56.8658 17.1787 56.7447 17.1212C56.6235 17.0685 56.5407 16.9966 56.4798 16.9344C56.3259 16.7619 56.2485 16.5176 56.2485 16.2062V14.6925Z" fill="#FFFFFE"/>
<path fill-rule="evenodd" clip-rule="evenodd" d="M59.6289 17.217H60.1463V13.6865H59.6289V17.217Z" fill="#FFFFFE"/>
<path fill-rule="evenodd" clip-rule="evenodd" d="M61.6528 14.6881C61.6528 14.3767 61.7302 14.1324 61.8841 13.96C61.945 13.8977 62.0278 13.8306 62.149 13.7731C62.2701 13.7205 62.4186 13.6821 62.6171 13.6821C63.0133 13.6821 63.2336 13.8306 63.35 13.96C63.504 14.1324 63.5813 14.3767 63.5813 14.6881V16.2066C63.5813 16.518 63.504 16.7623 63.35 16.9348C63.2336 17.0641 63.0133 17.2126 62.6171 17.2126C62.2256 17.2126 61.9998 17.0641 61.8841 16.9348C61.7302 16.7623 61.6528 16.518 61.6528 16.2066V14.6881ZM62.1707 16.2066C62.1707 16.4893 62.2419 16.6234 62.3356 16.6905C62.4294 16.7575 62.5341 16.7623 62.6169 16.7623C62.6888 16.7623 62.8044 16.7575 62.8975 16.6905C62.9912 16.6234 63.0631 16.4893 63.0631 16.2066V14.6881C63.0631 14.415 62.9912 14.2713 62.8975 14.2043C62.8044 14.1372 62.6888 14.1372 62.6169 14.1372C62.5341 14.1372 62.4294 14.1372 62.3356 14.2043C62.2419 14.2713 62.1707 14.415 62.1707 14.6881V16.2066Z" fill="#FFFFFE"/>
<path fill-rule="evenodd" clip-rule="evenodd" d="M64.9609 13.6821H65.479V16.2737C65.479 16.518 65.5392 16.6426 65.622 16.7C65.7048 16.7623 65.7986 16.7623 65.8697 16.7623C65.9416 16.7623 66.0353 16.7623 66.1181 16.7C66.2003 16.6426 66.2612 16.518 66.2612 16.2737V13.6821H66.7792V16.2737C66.7792 16.5659 66.7074 16.7911 66.5589 16.9491C66.4487 17.0785 66.2393 17.2126 65.8697 17.2126C65.5009 17.2126 65.2915 17.0785 65.1813 16.9491C65.0328 16.7911 64.9609 16.5659 64.9609 16.2737V13.6821Z" fill="#FFFFFE"/>
<path fill-rule="evenodd" clip-rule="evenodd" d="M68.269 15.9863H68.7871V16.2114C68.7871 16.4174 68.8309 16.5659 68.9137 16.6569C68.9301 16.6809 68.9636 16.7 69.0129 16.724C69.0622 16.7479 69.134 16.7623 69.2387 16.7623C69.4372 16.7623 69.5474 16.6761 69.6131 16.5707C69.674 16.4653 69.6849 16.3312 69.6849 16.2354C69.6849 16.0677 69.6185 15.9575 69.5255 15.8761C69.4317 15.7995 69.3051 15.7468 69.1895 15.7037L69.0902 15.6653C68.9746 15.6222 68.7761 15.5504 68.5996 15.4019C68.3792 15.215 68.269 14.9803 68.269 14.6929C68.269 14.3911 68.3628 14.1372 68.5394 13.96C68.7098 13.7875 68.952 13.6821 69.2387 13.6821C69.6357 13.6821 69.856 13.8306 69.9717 13.96C70.1311 14.1372 70.2084 14.3815 70.2084 14.6929V14.918H69.6849V14.6929C69.6849 14.4198 69.6131 14.2713 69.52 14.2043C69.4263 14.1372 69.3106 14.1372 69.2387 14.1372C69.0239 14.1372 68.9192 14.2378 68.8589 14.3624C68.7926 14.4869 68.7871 14.6306 68.7871 14.6929C68.7871 14.8606 68.8535 14.9707 68.9465 15.057C69.0403 15.1432 69.1669 15.2055 69.2996 15.2486L69.3872 15.2821C69.4919 15.3204 69.6904 15.3827 69.867 15.5312C70.0928 15.7132 70.2084 15.948 70.2084 16.2354C70.2084 16.7767 69.8615 17.2126 69.2387 17.2126C68.5941 17.2126 68.269 16.8438 68.269 16.2114V15.9863Z" fill="#FFFFFE"/>
<path fill-rule="evenodd" clip-rule="evenodd" d="M30.7157 82.1216V82.5719H29.5537V83.6593H30.7157V84.1096H29.5537V85.6521H29.0356V82.1216H30.7157Z" fill="#FFFFFE"/>
<path fill-rule="evenodd" clip-rule="evenodd" d="M34.0463 85.6472H33.5228V84.6029C33.5228 84.2915 33.3517 84.1382 33.0047 84.1382H32.6797V85.6472H32.1616V82.1167H33.0047C33.7041 82.1167 34.0346 82.4664 34.0346 83.1227C34.0346 83.4484 33.9525 83.6975 33.7924 83.8652C33.7869 83.87 33.776 83.8795 33.7705 83.8891C33.7595 83.8987 33.7486 83.9083 33.7376 83.9131C33.9361 84.0807 34.0463 84.3107 34.0463 84.6029V85.6472ZM32.6796 83.6831H33.0046C33.1422 83.6831 33.2414 83.6688 33.2968 83.64C33.3461 83.6113 33.3796 83.5873 33.3961 83.573C33.4782 83.4819 33.5172 83.3334 33.5172 83.1227C33.5172 82.8879 33.4727 82.749 33.3906 82.6676C33.3023 82.5909 33.1757 82.5718 33.0046 82.5718H32.6796V83.6831Z" fill="#FFFFFE"/>
<path fill-rule="evenodd" clip-rule="evenodd" d="M37.2162 82.1216V82.5719H36.0542V83.6593H37.2162V84.1096H36.0542V85.2018H37.2162V85.6521H35.5361V82.1216H37.2162Z" fill="#FFFFFE"/>
<path fill-rule="evenodd" clip-rule="evenodd" d="M38.6621 84.4209H39.1801V84.646C39.1801 84.852 39.2246 85.0005 39.3068 85.0915C39.3232 85.1154 39.3567 85.1346 39.406 85.1586C39.4559 85.1825 39.5271 85.1969 39.6318 85.1969C39.8303 85.1969 39.9404 85.1107 40.0068 85.0053C40.067 84.8999 40.078 84.7658 40.078 84.6699C40.078 84.5023 40.0123 84.3921 39.9185 84.3107C39.8248 84.234 39.6982 84.1813 39.5825 84.1382L39.4833 84.0999C39.3677 84.0568 39.1692 83.9849 38.9926 83.8364C38.7723 83.6496 38.6621 83.4149 38.6621 83.1275C38.6621 82.8257 38.7559 82.5718 38.9324 82.3945C39.1028 82.2221 39.3458 82.1167 39.6318 82.1167C40.0287 82.1167 40.2491 82.2652 40.3647 82.3945C40.5242 82.5718 40.6015 82.8161 40.6015 83.1275V83.3526H40.078V83.1275C40.078 82.8544 40.0068 82.7059 39.9131 82.6388C39.8193 82.5718 39.7037 82.5718 39.6318 82.5718C39.4169 82.5718 39.3122 82.6724 39.252 82.7969C39.1856 82.9215 39.1801 83.0652 39.1801 83.1275C39.1801 83.2951 39.2465 83.4053 39.3403 83.4915C39.4334 83.5778 39.5606 83.64 39.6927 83.6831L39.781 83.7167C39.8857 83.755 40.0835 83.8173 40.26 83.9658C40.4859 84.1478 40.6015 84.3825 40.6015 84.6699C40.6015 85.2113 40.2546 85.6472 39.6318 85.6472C38.9872 85.6472 38.6621 85.2783 38.6621 84.646V84.4209Z" fill="#FFFFFE"/>
<path fill-rule="evenodd" clip-rule="evenodd" d="M43.2265 83.6593V82.1216H43.75V85.6521H43.2265V84.1144H42.4443V85.6521H41.9263V82.1216H42.4443V83.6593H43.2265Z" fill="#FFFFFE"/>
<path fill-rule="evenodd" clip-rule="evenodd" d="M48.1797 85.6521V82.1216H48.9619C49.3088 82.1216 49.5627 82.2126 49.7222 82.3898C49.8823 82.5479 49.959 82.7922 49.959 83.1132C49.959 83.4341 49.8823 83.6737 49.7222 83.8413C49.7167 83.8509 49.7003 83.8653 49.6784 83.8844C49.7003 83.9036 49.7167 83.918 49.7222 83.9323C49.8823 84.1 49.959 84.3395 49.959 84.6605C49.959 84.9814 49.8823 85.2257 49.7222 85.3838C49.5573 85.561 49.3034 85.6521 48.9619 85.6521H48.1797ZM48.6976 82.5718V83.6592H48.9617C49.0774 83.6592 49.1657 83.6448 49.2149 83.6209C49.2649 83.5969 49.3032 83.5777 49.3196 83.5538C49.397 83.4724 49.4353 83.3287 49.4353 83.1131C49.4353 82.864 49.386 82.7299 49.3032 82.6532C49.2149 82.5814 49.0938 82.5718 48.9617 82.5718H48.6976ZM48.6976 84.1089V85.2011H48.9617C49.0938 85.2011 49.2149 85.1915 49.3032 85.1149C49.386 85.043 49.4353 84.9089 49.4353 84.6598C49.4353 84.4059 49.3805 84.267 49.2977 84.1903C49.2095 84.1185 49.0938 84.1089 48.9617 84.1089H48.6976Z" fill="#FFFFFE"/>
<path fill-rule="evenodd" clip-rule="evenodd" d="M51.3281 82.1167H51.8455V84.7083C51.8455 84.9526 51.9064 85.0771 51.9892 85.1346C52.0713 85.1969 52.1651 85.1969 52.2369 85.1969C52.3088 85.1969 52.4018 85.1969 52.4846 85.1346C52.5675 85.0771 52.6277 84.9526 52.6277 84.7083V82.1167H53.1457V84.7083C53.1457 85.0005 53.0745 85.2256 52.9254 85.3837C52.8152 85.513 52.6058 85.6472 52.2369 85.6472C51.8681 85.6472 51.6587 85.513 51.5485 85.3837C51.3993 85.2256 51.3281 85.0005 51.3281 84.7083V82.1167Z" fill="#FFFFFE"/>
<path fill-rule="evenodd" clip-rule="evenodd" d="M56.5202 85.6472H55.9967V84.6029C55.9967 84.2915 55.8263 84.1382 55.4786 84.1382H55.1536V85.6472H54.6362V82.1167H55.4786C56.1787 82.1167 56.5093 82.4664 56.5093 83.1227C56.5093 83.4484 56.4264 83.6975 56.267 83.8652C56.2608 83.87 56.2499 83.8795 56.2444 83.8891C56.2335 83.8987 56.2225 83.9083 56.2116 83.9131C56.41 84.0807 56.5202 84.3107 56.5202 84.6029V85.6472ZM55.1536 83.6831H55.4787C55.6169 83.6831 55.7161 83.6688 55.7709 83.64C55.8202 83.6113 55.8537 83.5873 55.8701 83.573C55.9529 83.4819 55.9912 83.3334 55.9912 83.1227C55.9912 82.8879 55.9475 82.749 55.8646 82.6676C55.7764 82.5909 55.6498 82.5718 55.4787 82.5718H55.1536V83.6831Z" fill="#FFFFFE"/>
<path fill-rule="evenodd" clip-rule="evenodd" d="M58.0103 83.1228C58.0103 82.4904 58.3353 82.1216 58.9745 82.1216C59.6191 82.1216 59.9442 82.4904 59.9442 83.1228V83.3479H59.4207V83.1228C59.4207 82.8689 59.3659 82.73 59.2831 82.6533C59.1948 82.5815 59.0847 82.5719 58.9745 82.5719C58.8643 82.5719 58.7541 82.5815 58.6713 82.6533C58.5837 82.73 58.5283 82.8689 58.5283 83.1228V84.6461C58.5283 84.9287 58.6001 85.0628 58.6939 85.1299C58.787 85.197 58.8917 85.2018 58.9745 85.2018C59.0573 85.2018 59.1675 85.197 59.2612 85.1299C59.3488 85.0628 59.4207 84.9287 59.4207 84.6461V84.3778H58.7924V83.9227H59.9442V84.6461C59.9442 84.9623 59.8669 85.2066 59.7074 85.3742C59.5917 85.5036 59.3714 85.6521 58.9745 85.6521C58.5837 85.6521 58.3634 85.5036 58.247 85.3742C58.0876 85.2066 58.0103 84.9623 58.0103 84.6461V83.1228Z" fill="#FFFFFE"/>
<path fill-rule="evenodd" clip-rule="evenodd" d="M63.0428 82.1216V82.5719H61.8801V83.6593H63.0428V84.1096H61.8801V85.2018H63.0428V85.6521H61.3628V82.1216H63.0428Z" fill="#FFFFFE"/>
<path fill-rule="evenodd" clip-rule="evenodd" d="M66.3727 85.6472H65.8492V84.6029C65.8492 84.2915 65.6788 84.1382 65.3319 84.1382H65.0068V85.6472H64.4888V82.1167H65.3319C66.0313 82.1167 66.3618 82.4664 66.3618 83.1227C66.3618 83.4484 66.279 83.6975 66.1195 83.8652C66.1141 83.87 66.1031 83.8795 66.0976 83.8891C66.0867 83.8987 66.0757 83.9083 66.0641 83.9131C66.2626 84.0807 66.3727 84.3107 66.3727 84.6029V85.6472ZM65.0066 83.6831H65.3317C65.4692 83.6831 65.5684 83.6688 65.6232 83.64C65.6731 83.6113 65.706 83.5873 65.7224 83.573C65.8052 83.4819 65.8435 83.3334 65.8435 83.1227C65.8435 82.8879 65.7997 82.749 65.7169 82.6676C65.6287 82.5909 65.502 82.5718 65.3317 82.5718H65.0066V83.6831Z" fill="#FFFFFE"/>
<path fill-rule="evenodd" clip-rule="evenodd" d="M67.8633 84.4209H68.3806V84.646C68.3806 84.852 68.4251 85.0005 68.5079 85.0915C68.5243 85.1154 68.5572 85.1346 68.6065 85.1586C68.6564 85.1825 68.7283 85.1969 68.833 85.1969C69.0308 85.1969 69.1409 85.1107 69.2073 85.0053C69.2675 84.8999 69.2792 84.7658 69.2792 84.6699C69.2792 84.5023 69.2128 84.3921 69.119 84.3107C69.0253 84.234 68.8987 84.1813 68.783 84.1382L68.6838 84.0999C68.5681 84.0568 68.3697 83.9849 68.1938 83.8364C67.9735 83.6496 67.8633 83.4149 67.8633 83.1275C67.8633 82.8257 67.957 82.5718 68.1329 82.3945C68.304 82.2221 68.5462 82.1167 68.833 82.1167C69.2292 82.1167 69.4496 82.2652 69.5652 82.3945C69.7254 82.5718 69.802 82.8161 69.802 83.1275V83.3526H69.2792V83.1275C69.2792 82.8544 69.2073 82.7059 69.1136 82.6388C69.0198 82.5718 68.9042 82.5718 68.833 82.5718C68.6181 82.5718 68.5134 82.6724 68.4525 82.7969C68.3861 82.9215 68.3806 83.0652 68.3806 83.1275C68.3806 83.2951 68.447 83.4053 68.5408 83.4915C68.6345 83.5778 68.7611 83.64 68.8932 83.6831L68.9815 83.7167C69.0862 83.755 69.2846 83.8173 69.4605 83.9658C69.6863 84.1478 69.802 84.3825 69.802 84.6699C69.802 85.2113 69.455 85.6472 68.833 85.6472C68.1883 85.6472 67.8633 85.2783 67.8633 84.646V84.4209Z" fill="#FFFFFE"/>
</svg>
