<svg width="107" height="113" viewBox="0 0 107 113" fill="none" xmlns="http://www.w3.org/2000/svg">
<path d="M78.1114 12.6503C86.6164 18.7873 94.3024 25.5825 99.6994 34.3526C105.096 43.1439 108.183 53.9101 107.28 64.5065C106.377 75.0816 101.463 85.4655 94.1974 93.5773C86.9314 101.689 77.3134 107.529 66.9184 110.523C56.5234 113.517 45.3514 113.666 36.1324 109.737C26.8924 105.809 19.5844 97.8456 13.4734 89.479C7.38335 81.1336 2.46935 72.4059 0.432353 62.8289C-1.60465 53.2519 -0.806648 42.8042 3.20435 33.8005C7.19435 24.7968 14.3974 17.2371 22.9024 11.1002C31.3864 4.98446 41.1934 0.291498 50.7484 0.694965C60.3034 1.0772 69.6274 6.53462 78.1114 12.6503Z" fill="#FFBF34"/>
<path d="M83.1898 80.9412C83.1875 79.0579 82.6213 77.2184 81.5641 75.6598C80.507 74.1012 79.0074 72.8948 77.2585 72.1962C78.7535 71.43 79.9478 70.184 80.65 68.6579C81.3522 67.1319 81.5216 65.4143 81.131 63.7805C80.7404 62.1467 79.8125 60.6914 78.496 59.6479C77.1795 58.6045 75.5508 58.0334 73.871 58.0262C72.1911 58.019 70.5576 58.5762 69.2322 59.6083C67.9068 60.6404 66.9665 62.0878 66.5619 63.7181C66.1574 65.3485 66.3121 67.0676 67.0012 68.5996C67.6903 70.1315 68.8739 71.3877 70.3623 72.1667C68.3993 72.9348 66.7488 74.336 65.6722 76.1483L62.8054 74.8539C64.0145 73.1164 64.7396 71.0885 64.906 68.9782C65.0724 66.8679 64.6743 64.7514 63.7525 62.8459C62.8306 60.9403 61.4183 59.3144 59.6605 58.135C57.9027 56.9556 55.8627 56.2653 53.7499 56.1348V53.9714H61.6664C61.8653 53.9714 62.0561 53.8924 62.1967 53.7517C62.3374 53.6111 62.4164 53.4203 62.4164 53.2214V48.6567C62.4141 46.7665 61.8438 44.9208 60.7795 43.3588C59.7153 41.7967 58.2062 40.5906 56.448 39.8968C57.9398 39.1242 59.1289 37.8731 59.8246 36.344C60.5204 34.8149 60.6825 33.0964 60.2849 31.4642C59.8873 29.832 58.9531 28.3805 57.6321 27.3427C56.3111 26.3048 54.6798 25.7407 52.9999 25.7407C51.32 25.7407 49.6887 26.3048 48.3677 27.3427C47.0467 28.3805 46.1125 29.832 45.7149 31.4642C45.3173 33.0964 45.4794 34.8149 46.1752 36.344C46.8709 37.8731 48.06 39.1242 49.5518 39.8968C47.7936 40.5906 46.2845 41.7967 45.2203 43.3588C44.156 44.9208 43.5857 46.7665 43.5834 48.6567V53.2214C43.5834 53.4203 43.6624 53.6111 43.8031 53.7517C43.9437 53.8924 44.1345 53.9714 44.3334 53.9714H52.2499V56.1348C50.1394 56.2702 48.1027 56.9635 46.348 58.1439C44.5932 59.3243 43.1833 60.9494 42.2624 62.8531C41.3414 64.7569 40.9424 66.871 41.1062 68.9795C41.2699 71.088 41.9906 73.1152 43.1944 74.8539L40.2749 76.1719C39.2058 74.3604 37.5639 72.9563 35.6084 72.1814C37.1002 71.4088 38.2893 70.1577 38.985 68.6286C39.6808 67.0995 39.8429 65.381 39.4453 63.7488C39.0477 62.1166 38.1135 60.6652 36.7925 59.6273C35.4715 58.5895 33.8402 58.0253 32.1603 58.0253C30.4803 58.0253 28.8491 58.5895 27.5281 59.6273C26.207 60.6652 25.2728 62.1166 24.8753 63.7488C24.4777 65.381 24.6398 67.0995 25.3355 68.6286C26.0313 70.1577 27.2204 71.4088 28.7122 72.1814C26.954 72.8751 25.4448 74.0813 24.3806 75.6433C23.3163 77.2053 22.746 79.051 22.7437 80.9412V85.5059C22.7437 85.7048 22.8227 85.8956 22.9633 86.0362C23.104 86.1769 23.2947 86.2559 23.4937 86.2559H40.8932C41.0185 86.2559 41.1418 86.2246 41.2519 86.1647C41.362 86.1047 41.4553 86.0182 41.5233 85.9129C41.5913 85.8077 41.6319 85.687 41.6413 85.5621C41.6506 85.4371 41.6286 85.3118 41.577 85.1975V80.9412C41.5774 79.7709 41.3584 78.6109 40.9315 77.5213L44.159 76.064C44.2884 76.2063 44.4213 76.3458 44.5579 76.4825C46.7997 78.7161 49.8353 79.9701 52.9999 79.9701C56.1645 79.9701 59.2001 78.7161 61.4419 76.4825C61.5787 76.3458 61.7116 76.2063 61.8408 76.064L65.0124 77.496C64.5789 78.5929 64.3565 79.7617 64.3569 80.9412V85.5059C64.3569 85.7048 64.4359 85.8956 64.5766 86.0362C64.7172 86.1769 64.908 86.2559 65.1069 86.2559H82.5059C82.6312 86.2559 82.7546 86.2246 82.8646 86.1647C82.9747 86.1047 83.068 86.0182 83.136 85.9129C83.2041 85.8077 83.2446 85.687 83.254 85.5621C83.2634 85.4371 83.2413 85.3118 83.1898 85.1975V80.9412ZM47.0019 33.2421C47.0019 32.0558 47.3536 30.8962 48.0127 29.9098C48.6717 28.9234 49.6085 28.1546 50.7045 27.7006C51.8005 27.2466 53.0065 27.1278 54.17 27.3593C55.3335 27.5907 56.4022 28.1619 57.2411 29.0008C58.0799 29.8396 58.6512 30.9083 58.8826 32.0718C59.1141 33.2353 58.9953 34.4413 58.5413 35.5373C58.0874 36.6333 57.3186 37.5701 56.3322 38.2292C55.3459 38.8882 54.1862 39.24 52.9999 39.24C51.4097 39.2382 49.8851 38.6057 48.7607 37.4813C47.6362 36.3569 47.0037 34.8323 47.0019 33.2421V33.2421ZM45.0834 48.6567C45.0834 46.5571 45.9175 44.5435 47.4021 43.0588C48.8867 41.5742 50.9003 40.7401 52.9999 40.7401C55.0995 40.7401 57.1131 41.5742 58.5977 43.0588C60.0823 44.5435 60.9164 46.5571 60.9164 48.6567V52.4714H45.0834V48.6567ZM26.1624 65.5265C26.1625 64.3403 26.5144 63.1807 27.1735 62.1944C27.8326 61.2081 28.7694 60.4394 29.8654 59.9855C30.9614 59.5316 32.1674 59.4128 33.3308 59.6443C34.4943 59.8758 35.563 60.4471 36.4018 61.2859C37.2406 62.1248 37.8118 63.1935 38.0432 64.357C38.2746 65.5205 38.1558 66.7264 37.7018 67.8224C37.2479 68.9184 36.4791 69.8551 35.4928 70.5142C34.5064 71.1732 33.3468 71.525 32.1605 71.525C30.5702 71.5233 29.0455 70.8908 27.921 69.7662C26.7965 68.6416 26.164 67.1169 26.1624 65.5265V65.5265ZM40.077 84.7559H24.2439V80.9412C24.2522 78.847 25.09 76.8415 26.5737 75.3636C28.0574 73.8857 30.0663 73.056 32.1605 73.056C34.2546 73.056 36.2635 73.8857 37.7472 75.3636C39.231 76.8415 40.0687 78.847 40.077 80.9412V84.7559ZM52.9999 78.4701C50.593 78.465 48.2623 77.6258 46.4046 76.0955C44.5469 74.5651 43.2771 72.4381 42.8113 70.0768C42.3455 67.7154 42.7126 65.2656 43.85 63.1444C44.9874 61.0232 46.8249 59.3619 49.0496 58.4432C51.2742 57.5245 53.7485 57.4052 56.0512 58.1057C58.3539 58.8063 60.3426 60.2832 61.6787 62.2852C63.0148 64.2872 63.6157 66.6903 63.3792 69.0856C63.1426 71.4808 62.0832 73.72 60.3813 75.4219C59.4136 76.3928 58.2629 77.1622 56.9959 77.6854C55.7289 78.2086 54.3707 78.4754 52.9999 78.4701V78.4701ZM67.8413 65.5265C67.8414 64.3403 68.1932 63.1806 68.8524 62.1943C69.5115 61.208 70.4483 60.4394 71.5443 59.9855C72.6403 59.5316 73.8463 59.4128 75.0097 59.6443C76.1732 59.8758 77.2419 60.4471 78.0807 61.286C78.9195 62.1248 79.4907 63.1936 79.7221 64.3571C79.9535 65.5205 79.8346 66.7265 79.3807 67.8225C78.9267 68.9184 78.1579 69.8552 77.1715 70.5142C76.1852 71.1733 75.0255 71.525 73.8393 71.525C72.249 71.5232 70.7243 70.8907 69.5998 69.7661C68.4754 68.6415 67.8429 67.1168 67.8413 65.5265V65.5265ZM81.6898 84.7559H65.8567V80.9412C65.865 78.847 66.7027 76.8415 68.1864 75.3636C69.6702 73.8857 71.679 73.056 73.7732 73.056C75.8674 73.056 77.8762 73.8857 79.36 75.3636C80.8437 76.8415 81.6815 78.847 81.6898 80.9412V84.7559Z" fill="black"/>
<path d="M59.229 63.8579C58.8253 63.8585 58.4311 63.9799 58.0969 64.2065C57.7628 64.433 57.504 64.7543 57.354 65.129H48.6467C48.4724 64.6928 48.1516 64.3309 47.7393 64.1055C47.3271 63.8802 46.8493 63.8054 46.3879 63.8942C45.9266 63.983 45.5106 64.2296 45.2114 64.5919C44.9122 64.9541 44.7485 65.4092 44.7485 65.879C44.7485 66.3489 44.9122 66.804 45.2114 67.1662C45.5106 67.5284 45.9266 67.7751 46.3879 67.8639C46.8493 67.9527 47.3271 67.8779 47.7393 67.6526C48.1516 67.4272 48.4724 67.0653 48.6467 66.629H49.7397C49.2531 67.0886 48.866 67.6431 48.6023 68.2582C48.3387 68.8734 48.2041 69.5361 48.2069 70.2054V71.5554H47.4919C47.293 71.5554 47.1022 71.6344 46.9615 71.7751C46.8209 71.9157 46.7419 72.1065 46.7419 72.3054V74.8478C46.7419 75.0467 46.8209 75.2375 46.9615 75.3781C47.1022 75.5188 47.293 75.5978 47.4919 75.5978H50.0341C50.233 75.5978 50.4238 75.5188 50.5644 75.3781C50.7051 75.2375 50.7841 75.0467 50.7841 74.8478V72.3059C50.7841 72.107 50.7051 71.9162 50.5644 71.7756C50.4238 71.6349 50.233 71.5559 50.0341 71.5559H49.7069V70.2059C49.7069 68.3934 51.0892 66.9158 52.8544 66.8434C52.9512 66.8393 53.0489 66.8393 53.1465 66.8434C54.9112 66.9159 56.2936 68.3934 56.2936 70.2059V71.5559H55.9664C55.7675 71.5559 55.5767 71.6349 55.436 71.7756C55.2954 71.9162 55.2164 72.107 55.2164 72.3059V74.8483C55.2164 75.0472 55.2954 75.238 55.436 75.3786C55.5767 75.5193 55.7675 75.5983 55.9664 75.5983H58.5086C58.7075 75.5983 58.8983 75.5193 59.039 75.3786C59.1796 75.238 59.2586 75.0472 59.2586 74.8483V72.3059C59.2586 72.107 59.1796 71.9162 59.039 71.7756C58.8983 71.6349 58.7075 71.5559 58.5086 71.5559H57.7936V70.2059C57.7964 69.5366 57.6618 68.8739 57.3981 68.2587C57.1345 67.6436 56.7474 67.0891 56.2608 66.6295H57.3538C57.4901 66.9702 57.7166 67.2674 58.0091 67.4891C58.3015 67.7108 58.6488 67.8486 59.0136 67.8878C59.3785 67.9271 59.7471 67.8662 60.08 67.7118C60.4129 67.5573 60.6974 67.3151 60.9031 67.0112C61.1087 66.7073 61.2277 66.3531 61.2473 65.9866C61.2668 65.6202 61.1862 65.2553 61.0141 64.9312C60.842 64.6072 60.5849 64.336 60.2703 64.147C59.9558 63.958 59.5957 63.8583 59.2288 63.8584L59.229 63.8579ZM49.2841 74.0983H48.2419V73.0559H49.2841V74.0983ZM57.7591 74.0983H56.7169V73.0559H57.7591V74.0983ZM46.7715 66.4C46.6684 66.4001 46.5676 66.3695 46.4819 66.3123C46.3961 66.255 46.3293 66.1736 46.2898 66.0784C46.2504 65.9831 46.24 65.8783 46.2601 65.7772C46.2802 65.6761 46.3298 65.5832 46.4027 65.5103C46.4756 65.4373 46.5685 65.3877 46.6696 65.3676C46.7707 65.3474 46.8756 65.3578 46.9708 65.3972C47.0661 65.4367 47.1475 65.5035 47.2048 65.5892C47.262 65.6749 47.2926 65.7757 47.2926 65.8788C47.2925 66.017 47.2375 66.1494 47.1398 66.2471C47.0421 66.3449 46.9097 66.3998 46.7715 66.4ZM59.229 66.4C59.1259 66.4 59.0251 66.3695 58.9394 66.3122C58.8537 66.2549 58.7869 66.1735 58.7474 66.0783C58.708 65.983 58.6977 65.8782 58.7178 65.7771C58.7379 65.676 58.7875 65.5831 58.8604 65.5102C58.9333 65.4373 59.0262 65.3877 59.1273 65.3676C59.2284 65.3474 59.3332 65.3578 59.4285 65.3972C59.5237 65.4367 59.6051 65.5035 59.6624 65.5892C59.7197 65.6749 59.7503 65.7757 59.7503 65.8788C59.7501 66.017 59.6952 66.1495 59.5974 66.2472C59.4997 66.345 59.3672 66.3999 59.229 66.4Z" fill="black"/>
</svg>
