<svg width="101" height="110" viewBox="0 0 101 110" fill="none" xmlns="http://www.w3.org/2000/svg">
<path d="M78.8998 102.12C87.9598 96.7 95.6798 88.76 98.9598 79.44C102.22 70.12 101.04 59.4 98.8198 49.34C96.5798 39.3 93.2598 29.9 87.5398 21.74C81.8198 13.6 73.6598 6.67997 64.1798 3.57997C54.6998 0.479973 43.9198 1.17996 34.1798 4.49997C24.4598 7.81997 15.7998 13.78 9.71981 21.54C3.65982 29.3 0.199816 38.9 -0.880184 48.62C-1.98018 58.36 -0.680185 68.22 2.89981 77.44C6.49981 86.66 12.3998 95.22 20.4598 101.1C28.5198 106.98 38.7598 110.2 49.0998 110.34C59.4198 110.48 69.8398 107.54 78.8998 102.12Z" fill="#FFBF34"/>
<path d="M72.8052 35.5H27.1949C26.0269 35.5013 24.907 35.9659 24.081 36.7919C23.255 37.6178 22.7904 38.7377 22.7891 39.9058V69.6154C22.7904 70.7835 23.255 71.9034 24.081 72.7293C24.907 73.5553 26.0268 74.0199 27.1949 74.0213H42.2564V83H38.7639C38.565 83 38.3743 83.079 38.2336 83.2197C38.093 83.3603 38.0139 83.5511 38.0139 83.75C38.0139 83.9489 38.093 84.1397 38.2336 84.2803C38.3743 84.421 38.565 84.5 38.7639 84.5H61.8941C62.093 84.5 62.2837 84.421 62.4244 84.2803C62.565 84.1397 62.6441 83.9489 62.6441 83.75C62.6441 83.5511 62.565 83.3603 62.4244 83.2197C62.2837 83.079 62.093 83 61.8941 83H57.7441V74.0213H72.8052C73.9733 74.0199 75.0932 73.5553 75.9191 72.7293C76.7451 71.9034 77.2097 70.7835 77.2111 69.6154V39.9058C77.2097 38.7377 76.7451 37.6178 75.9191 36.7919C75.0931 35.9659 73.9733 35.5013 72.8052 35.5V35.5ZM27.1949 37H72.8052C73.5756 37.0008 74.3142 37.3072 74.859 37.852C75.4038 38.3967 75.7102 39.1353 75.7111 39.9058V65.5276H24.2891V39.9058C24.2899 39.1353 24.5964 38.3967 25.1411 37.852C25.6859 37.3072 26.4245 37.0008 27.1949 37V37ZM56.2437 83H43.7562V74.0213H56.2437V83ZM72.8052 72.5213H27.1949C26.4245 72.5204 25.6859 72.214 25.1411 71.6692C24.5964 71.1244 24.2899 70.3858 24.2891 69.6154V67.0279H75.7111V69.6154C75.7102 70.3858 75.4038 71.1244 74.859 71.6692C74.3142 72.214 73.5756 72.5204 72.8052 72.5213Z" fill="black"/>
<path d="M41.8415 59.8975C41.939 59.9793 42.0557 60.0349 42.1806 60.0591C42.3056 60.0833 42.4346 60.0754 42.5556 60.036L48.2529 58.1815C48.4787 58.1082 48.6793 57.9727 48.8316 57.7906L58.6332 46.0805C58.9353 45.7185 59.0817 45.2515 59.0402 44.7818C58.9987 44.3121 58.7728 43.878 58.412 43.5745L55.0311 40.7388C54.6695 40.4361 54.2026 40.2892 53.7328 40.3302C53.2631 40.3711 52.8287 40.5966 52.5249 40.9573L42.6998 52.6476C42.5471 52.8292 42.4485 53.0501 42.4155 53.2851L41.5811 59.2182C41.5633 59.3443 41.5779 59.4727 41.6234 59.5915C41.669 59.7104 41.744 59.8157 41.8415 59.8975V59.8975ZM44.2503 53.1342L51.8655 44.0734L53.1746 45.1713L45.557 54.2301L44.2503 53.1342ZM46.6684 57.12L45.4637 57.5121L43.5603 55.9156L43.7367 54.6611L46.6684 57.12ZM43.314 57.6666L43.7822 58.0594L43.2337 58.2379L43.314 57.6666ZM48.0827 56.3486L46.7062 55.1941L54.3239 46.1353L55.6796 47.2728L48.0827 56.3486ZM54.0671 41.8875L57.4481 44.7231C57.5048 44.7709 57.5403 44.8391 57.5468 44.9129C57.5534 44.9868 57.5304 45.0602 57.4829 45.1171L56.6421 46.1216L52.8296 42.9246L53.6726 41.9218C53.7204 41.8649 53.7888 41.8294 53.8628 41.823C53.9367 41.8166 54.0102 41.8398 54.0671 41.8875V41.8875Z" fill="black"/>
<path d="M41.8452 62.9022H55.1645C55.3634 62.9022 55.5541 62.8232 55.6948 62.6826C55.8354 62.5419 55.9145 62.3511 55.9145 62.1522C55.9145 61.9533 55.8354 61.7625 55.6948 61.6219C55.5541 61.4812 55.3634 61.4022 55.1645 61.4022H41.8452C41.6463 61.4022 41.4555 61.4812 41.3149 61.6219C41.1742 61.7625 41.0952 61.9533 41.0952 62.1522C41.0952 62.3511 41.1742 62.5419 41.3149 62.6826C41.4555 62.8232 41.6463 62.9022 41.8452 62.9022V62.9022Z" fill="black"/>
</svg>
