<svg width="101" height="111" viewBox="0 0 101 111" fill="none" xmlns="http://www.w3.org/2000/svg">
<g clip-path="url(#clip0)">
<path d="M68.326 1.38135C77.9115 3.5189 86.9886 10.0166 92.4853 18.7131C97.9679 27.4347 99.8611 38.4005 100.071 48.884C100.287 59.3879 100.91 71.1681 96.9995 80.0138C93.07 88.8644 77.5713 101.755 77.5713 101.755C77.5713 101.755 58.9962 110.915 49.1515 110.937C39.3118 110.979 29.2348 106.85 20.6234 100.429C11.998 94.0331 4.85731 85.3412 1.99941 75.5688C-0.863509 65.776 0.570474 54.8777 3.26133 44.9577C5.92806 35.0223 9.87078 26.0604 15.9709 19.3396C22.066 12.5984 30.3375 8.09339 39.5037 4.74458C48.6748 1.4161 58.7405 -0.756208 68.326 1.38135Z" fill="#FFBF34"/>
</g>
<path d="M72.1312 31.7501H45.1263C44.9853 31.7502 44.8472 31.79 44.7278 31.8649C44.6085 31.9399 44.5126 32.0469 44.4513 32.1739L40.6152 40.1114L37.922 32.2569C37.8713 32.1089 37.7756 31.9806 37.6483 31.8897C37.5211 31.7988 37.3686 31.75 37.2122 31.7501H27.8682C27.6693 31.7501 27.4785 31.8291 27.3378 31.9698C27.1972 32.1104 27.1182 32.3012 27.1182 32.5001V58.0921C27.1201 59.832 27.8121 61.5001 29.0424 62.7304C30.2727 63.9607 31.9408 64.6527 33.6807 64.6546H38.8224C40.1646 64.656 41.4515 65.1899 42.4006 66.139C43.3497 67.0881 43.8835 68.3749 43.8849 69.7171V82.1546C43.8876 83.7689 44.5293 85.3164 45.6699 86.4587C46.8105 87.601 48.3571 88.2451 49.9713 88.2501H49.9813C51.5951 88.2479 53.1424 87.6067 54.2848 86.4668C55.4272 85.327 56.0718 83.7812 56.0777 82.1674L56.0962 69.7005C56.1029 68.3614 56.6389 67.0793 57.5874 66.134C58.5358 65.1887 59.8196 64.6568 61.1587 64.6544H66.3189C68.0588 64.6525 69.7269 63.9604 70.9572 62.7301C72.1875 61.4998 72.8795 59.8318 72.8814 58.0919V32.5001C72.8814 32.4016 72.862 32.3041 72.8243 32.2131C72.7866 32.122 72.7313 32.0394 72.6617 31.9697C72.592 31.9001 72.5093 31.8448 72.4183 31.8071C72.3272 31.7695 72.2297 31.7501 72.1312 31.7501V31.7501ZM70.2295 47.2335C70.6287 47.2331 71.0225 47.1419 71.3812 46.9667V52.0484H65.0145V40.7636C65.0129 40.5942 65.0448 40.4262 65.1084 40.2692C65.1721 40.1123 65.2662 39.9695 65.3854 39.8491C65.5046 39.7288 65.6465 39.6332 65.8028 39.568C65.9591 39.5028 66.1268 39.4692 66.2962 39.4692C66.4656 39.4692 66.6333 39.5028 66.7897 39.568C66.946 39.6332 67.0878 39.7288 67.207 39.8491C67.3262 39.9695 67.4203 40.1123 67.484 40.2692C67.5477 40.4262 67.5796 40.5942 67.5779 40.7636V44.5819C67.5787 45.2849 67.8583 45.9589 68.3554 46.456C68.8525 46.9531 69.5265 47.2327 70.2295 47.2335V47.2335ZM71.3812 44.5819C71.3812 44.8873 71.2598 45.1802 71.0439 45.3962C70.8279 45.6122 70.535 45.7335 70.2295 45.7335C69.9241 45.7335 69.6312 45.6122 69.4152 45.3962C69.1992 45.1802 69.0779 44.8873 69.0779 44.5819V40.7636C69.0804 40.3968 69.0102 40.033 68.8715 39.6934C68.7329 39.3537 68.5284 39.0449 68.2698 38.7846C68.0113 38.5243 67.7038 38.3177 67.3651 38.1768C67.0264 38.0358 66.6631 37.9632 66.2962 37.9632C65.9294 37.9632 65.5661 38.0358 65.2274 38.1768C64.8887 38.3177 64.5812 38.5243 64.3227 38.7846C64.0641 39.0449 63.8596 39.3537 63.7209 39.6934C63.5822 40.033 63.5121 40.3968 63.5145 40.7636V56.9565C63.5163 57.1462 63.4805 57.3344 63.4091 57.5102C63.3377 57.686 63.2322 57.8459 63.0987 57.9807C62.9651 58.1155 62.8062 58.2225 62.6311 58.2955C62.4559 58.3686 62.2681 58.4061 62.0784 58.4061C61.8886 58.4061 61.7008 58.3686 61.5256 58.2955C61.3505 58.2225 61.1916 58.1155 61.058 57.9807C60.9245 57.8459 60.819 57.686 60.7476 57.5102C60.6762 57.3344 60.6404 57.1462 60.6422 56.9565V38.0397C60.6422 37.3074 60.3512 36.6051 59.8334 36.0872C59.3156 35.5694 58.6132 35.2785 57.8809 35.2785C57.1486 35.2785 56.4463 35.5694 55.9284 36.0872C55.4106 36.6051 55.1197 37.3074 55.1197 38.0397V39.7764C55.1193 40.1108 54.9863 40.4314 54.7499 40.6678C54.5134 40.9043 54.1928 41.0373 53.8584 41.0376H53.7289C53.3945 41.0373 53.074 40.9043 52.8375 40.6678C52.6011 40.4313 52.4681 40.1108 52.4678 39.7764V33.2501H71.3812V44.5819ZM30.2163 33.2501C30.2163 33.2599 30.2149 33.2694 30.2149 33.2791V43.2416C30.2149 43.4405 30.2939 43.6313 30.4346 43.772C30.5752 43.9126 30.766 43.9916 30.9649 43.9916C31.1638 43.9916 31.3546 43.9126 31.4952 43.772C31.6359 43.6313 31.7149 43.4405 31.7149 43.2416V33.2791C31.7149 33.2694 31.7138 33.2599 31.7134 33.2501H36.6769L39.7872 42.3229C39.8354 42.4635 39.9243 42.5866 40.0426 42.6766C40.161 42.7666 40.3034 42.8193 40.4517 42.8282C40.6001 42.8371 40.7478 42.8017 40.876 42.7265C41.0043 42.6513 41.1072 42.5397 41.1719 42.4059L45.5968 33.2501H50.9678V39.7764C50.9686 40.5084 51.2597 41.2103 51.7774 41.7279C52.295 42.2456 52.9969 42.5368 53.7289 42.5376H53.8584C54.5905 42.5368 55.2923 42.2456 55.81 41.728C56.3277 41.2103 56.6188 40.5084 56.6197 39.7764V38.0397C56.6197 37.8741 56.6523 37.7101 56.7157 37.5571C56.7791 37.4041 56.872 37.265 56.9891 37.1479C57.1062 37.0308 57.2452 36.9379 57.3983 36.8745C57.5513 36.8111 57.7153 36.7785 57.8809 36.7785C58.0465 36.7785 58.2106 36.8111 58.3636 36.8745C58.5166 36.9379 58.6556 37.0308 58.7728 37.1479C58.8899 37.265 58.9828 37.4041 59.0462 37.5571C59.1095 37.7101 59.1422 37.8741 59.1422 38.0397V52.0484H28.6182V33.2501H30.2163ZM49.9813 86.7501H49.9737C48.7564 86.7464 47.5902 86.2607 46.7302 85.3993C45.8702 84.5379 45.3863 83.3709 45.3845 82.1536V79.3931H54.5818L54.5777 82.1644C54.5732 83.3811 54.0872 84.5465 53.2259 85.4058C52.3646 86.2652 51.198 86.7485 49.9813 86.7501V86.7501ZM71.3813 58.0921C71.3798 59.4343 70.846 60.7212 69.8969 61.6702C68.9478 62.6193 67.661 63.1532 66.3188 63.1546H61.1585C59.4225 63.1579 57.7583 63.8476 56.5288 65.0733C55.2994 66.299 54.6046 67.9611 54.596 69.6971L54.5835 77.8934H45.3835V69.7166C45.3816 67.9767 44.6896 66.3086 43.4593 65.0784C42.229 63.8481 40.5609 63.156 38.821 63.1541H33.6805C32.3383 63.1527 31.0515 62.6188 30.1024 61.6697C29.1533 60.7207 28.6195 59.4338 28.618 58.0916V53.5479H59.1422V56.956C59.1396 57.3432 59.2137 57.7271 59.3601 58.0855C59.5066 58.444 59.7224 58.7699 59.9953 59.0446C60.2682 59.3193 60.5928 59.5373 60.9503 59.6861C61.3078 59.8348 61.6911 59.9114 62.0784 59.9114C62.4656 59.9114 62.8489 59.8348 63.2064 59.6861C63.5639 59.5373 63.8885 59.3193 64.1614 59.0446C64.4343 58.7699 64.6501 58.444 64.7966 58.0855C64.943 57.7271 65.0171 57.3432 65.0145 56.956V53.5484H71.3812L71.3813 58.0921Z" fill="black"/>
<path d="M62.7891 66.9225C62.5902 66.9225 62.3994 67.0015 62.2587 67.1422C62.1181 67.2828 62.0391 67.4736 62.0391 67.6725V70.5057C62.0391 70.7046 62.1181 70.8954 62.2587 71.0361C62.3994 71.1767 62.5902 71.2557 62.7891 71.2557C62.988 71.2557 63.1787 71.1767 63.3194 71.0361C63.46 70.8954 63.5391 70.7046 63.5391 70.5057V67.6725C63.5391 67.4736 63.46 67.2828 63.3194 67.1422C63.1787 67.0015 62.988 66.9225 62.7891 66.9225Z" fill="black"/>
<path d="M68.3062 67.9966C68.1072 67.9966 67.9165 68.0756 67.7758 68.2163C67.6352 68.3569 67.5562 68.5477 67.5562 68.7466V75.5002C67.5562 75.6991 67.6352 75.8899 67.7758 76.0305C67.9165 76.1712 68.1072 76.2502 68.3062 76.2502C68.5051 76.2502 68.6958 76.1712 68.8365 76.0305C68.9771 75.8899 69.0562 75.6991 69.0562 75.5002V68.7466C69.0562 68.5477 68.9771 68.3569 68.8365 68.2163C68.6958 68.0756 68.5051 67.9966 68.3062 67.9966Z" fill="black"/>
<defs>
<clipPath id="clip0">
<rect width="118.958" height="117.745" fill="white" transform="matrix(0.735285 -0.677758 0.669566 0.742752 -29.1113 56.0437)"/>
</clipPath>
</defs>
</svg>
