<svg width="107" height="104" viewBox="0 0 107 104" fill="none" xmlns="http://www.w3.org/2000/svg">
<path d="M81.1352 8.17871C88.6992 13.614 93.9899 21.9634 98.4746 30.9327C102.959 39.902 106.597 49.4914 106.845 59.6801C107.072 69.8894 103.889 80.6774 97.1519 88.3241C90.4146 95.9501 80.1226 100.455 69.7892 102.419C59.4352 104.403 49.0399 103.886 39.0992 101.199C29.1792 98.5334 19.7139 93.7181 12.7079 86.3607C5.68124 79.0241 1.09324 69.1454 0.39057 59.1841C-0.29143 49.2227 2.87057 39.158 7.1899 29.5894C11.5092 20 16.9446 10.9067 24.9219 5.65737C32.9199 0.428704 43.4599 -0.955966 53.6279 -0.377299C63.7959 0.222034 73.5919 2.74337 81.1352 8.17871Z" fill="#FFBF34"/>
<path d="M54.5522 30.4C54.7511 30.4 54.9419 30.321 55.0826 30.1803C55.2232 30.0397 55.3022 29.8489 55.3022 29.65V25C55.3022 24.8011 55.2232 24.6103 55.0826 24.4697C54.9419 24.329 54.7511 24.25 54.5522 24.25C54.3533 24.25 54.1626 24.329 54.0219 24.4697C53.8813 24.6103 53.8022 24.8011 53.8022 25V29.65C53.8022 29.8489 53.8813 30.0397 54.0219 30.1803C54.1626 30.321 54.3533 30.4 54.5522 30.4Z" fill="black"/>
<path d="M76.1593 46.4095H71.5093C71.3104 46.4095 71.1196 46.4885 70.979 46.6292C70.8383 46.7698 70.7593 46.9606 70.7593 47.1595C70.7593 47.3584 70.8383 47.5492 70.979 47.6898C71.1196 47.8305 71.3104 47.9095 71.5093 47.9095H76.1593C76.3582 47.9095 76.549 47.8305 76.6896 47.6898C76.8303 47.5492 76.9093 47.3584 76.9093 47.1595C76.9093 46.9606 76.8303 46.7698 76.6896 46.6292C76.549 46.4885 76.3582 46.4095 76.1593 46.4095V46.4095Z" fill="black"/>
<path d="M31.0903 47.1595C31.0903 47.3584 31.1694 47.5492 31.31 47.6898C31.4507 47.8305 31.6414 47.9095 31.8403 47.9095H36.4903C36.6892 47.9095 36.88 47.8305 37.0207 47.6898C37.1613 47.5492 37.2403 47.3584 37.2403 47.1595C37.2403 46.9606 37.1613 46.7698 37.0207 46.6292C36.88 46.4885 36.6892 46.4095 36.4903 46.4095H31.8403C31.6414 46.4095 31.4507 46.4885 31.31 46.6292C31.1694 46.7698 31.0903 46.9606 31.0903 47.1595V47.1595Z" fill="black"/>
<path d="M70.8807 30.2789C70.7401 30.1382 70.5493 30.0592 70.3504 30.0592C70.1515 30.0592 69.9608 30.1382 69.8201 30.2789L66.1912 33.908C66.12 33.9773 66.0633 34.06 66.0244 34.1514C65.9854 34.2428 65.965 34.341 65.9644 34.4404C65.9637 34.5397 65.9828 34.6382 66.0205 34.7301C66.0582 34.822 66.1138 34.9055 66.1841 34.9758C66.2543 35.046 66.3378 35.1016 66.4297 35.1393C66.5216 35.177 66.6201 35.1961 66.7195 35.1954C66.8188 35.1947 66.917 35.1743 67.0084 35.1354C67.0998 35.0964 67.1826 35.0397 67.2519 34.9685L70.8807 31.3396C70.9504 31.27 71.0056 31.1873 71.0433 31.0963C71.081 31.0053 71.1004 30.9077 71.1004 30.8092C71.1004 30.7107 71.081 30.6132 71.0433 30.5222C71.0056 30.4312 70.9504 30.3485 70.8807 30.2789V30.2789Z" fill="black"/>
<path d="M41.809 34.9686C41.9497 34.828 42.0287 34.6372 42.0287 34.4383C42.0287 34.2394 41.9497 34.0486 41.809 33.908L38.1801 30.279C38.1107 30.2084 38.028 30.1523 37.9367 30.1138C37.8455 30.0754 37.7476 30.0554 37.6486 30.055C37.5496 30.0546 37.4515 30.0738 37.3599 30.1115C37.2684 30.1492 37.1852 30.2047 37.1152 30.2747C37.0452 30.3447 36.9897 30.4278 36.952 30.5194C36.9143 30.6109 36.8951 30.709 36.8955 30.808C36.8959 30.9071 36.9159 31.005 36.9544 31.0962C36.9928 31.1875 37.0489 31.2702 37.1195 31.3396L40.7484 34.9685C40.889 35.1091 41.0798 35.1882 41.2787 35.1882C41.4776 35.1882 41.6684 35.1091 41.809 34.9685V34.9686Z" fill="black"/>
<path d="M72.382 59.5363C74.2004 59.5363 75.6797 58.0883 75.6797 56.3086C75.6797 54.5288 74.2004 53.0807 72.382 53.0807C71.6476 53.0764 70.9328 53.318 70.3516 53.7671C69.7705 54.2161 69.3563 54.8468 69.1752 55.5586H68.3944C69.5054 53.1521 69.9964 50.5059 69.8227 47.8611C69.6489 45.2162 68.8159 42.657 67.3996 40.4166C65.9833 38.1762 64.0287 36.326 61.7141 35.0345C59.3995 33.7431 56.7984 33.0515 54.148 33.0229C54.098 33.0229 54.048 33.0229 53.9989 33.0229C50.8037 33.0232 47.6831 33.9883 45.0456 35.7918C42.408 37.5954 40.3766 40.1534 39.2173 43.1309C38.058 46.1083 37.8248 49.3665 38.5482 52.4787C39.2717 55.5909 40.918 58.4121 43.2718 60.573C44.2775 61.5062 45.0791 62.6376 45.6259 63.8959C46.1727 65.1542 46.4529 66.5122 46.4489 67.8842V75.4292C46.4499 76.2444 46.7741 77.026 47.3506 77.6025C47.9271 78.179 48.7087 78.5032 49.5239 78.5042H56.3089L57.487 81.0154C57.4745 81.0266 57.462 81.0376 57.4495 81.0497C57.3802 81.1202 57.3256 81.2037 57.2887 81.2955C57.2519 81.3872 57.2335 81.4853 57.2348 81.5842L57.2767 85.0092C57.2791 85.2065 57.3591 85.395 57.4995 85.5336C57.6399 85.6723 57.8293 85.7501 58.0267 85.7501H58.0314L65.45 85.7034C65.5489 85.7028 65.6466 85.6826 65.7377 85.6441C65.8287 85.6055 65.9112 85.5494 65.9805 85.4788C66.0497 85.4083 66.1043 85.3247 66.1412 85.233C66.178 85.1413 66.1964 85.0432 66.1952 84.9443L66.1533 81.5193C66.152 81.4102 66.1269 81.3027 66.0798 81.2043C66.0326 81.106 65.9645 81.0191 65.8802 80.9498L68.7895 74.5407C68.843 74.4229 68.8651 74.2932 68.8536 74.1643C68.8422 74.0355 68.7976 73.9117 68.7242 73.8052L66.4388 70.4874C67.4993 69.7192 68.363 68.7109 68.9594 67.5451C69.5558 66.3792 69.8679 65.0888 69.8704 63.7793C69.8728 62.4698 69.5654 61.1782 68.9734 60.0102C68.3813 58.8421 67.5214 57.8307 66.4638 57.0584H69.1752C69.3563 57.7702 69.7705 58.4009 70.3516 58.85C70.9328 59.299 71.6476 59.5406 72.382 59.5363V59.5363ZM72.382 54.5807C73.3732 54.5807 74.1797 55.3557 74.1797 56.3086C74.1797 57.2614 73.3732 58.0363 72.382 58.0363C71.3909 58.0363 70.5843 57.2613 70.5843 56.3086C70.5843 55.3558 71.3908 54.5807 72.382 54.5807V54.5807ZM44.2863 59.4682C42.3112 57.6541 40.8835 55.3233 40.1648 52.7396C39.4461 50.156 39.4651 47.4227 40.2197 44.8493C40.9743 42.2759 42.4343 39.9652 44.4344 38.1787C46.4345 36.3923 48.8948 35.2015 51.5367 34.7412C54.1787 34.2809 56.8967 34.5694 59.3832 35.5742C61.8696 36.579 64.025 38.2598 65.6054 40.4264C67.1858 42.593 68.1281 45.1588 68.3255 47.8332C68.5229 50.5077 67.9676 53.184 66.7224 55.5592H64.9627V53.7C64.9627 53.501 64.8836 53.3103 64.743 53.1696C64.6023 53.029 64.4116 52.95 64.2127 52.95H58.9953C58.7964 52.95 58.6056 53.029 58.465 53.1696C58.3243 53.3103 58.2453 53.501 58.2453 53.7V55.5584H53.9682C53.8097 54.841 53.4127 54.1984 52.8419 53.7357C52.2712 53.273 51.5604 53.0174 50.8257 53.0108C49.0459 53.0108 47.5979 54.4901 47.5979 56.3084C47.5979 58.1268 49.0459 59.6062 50.8252 59.6062C51.5599 59.5996 52.2707 59.344 52.8414 58.8813C53.4122 58.4186 53.8092 57.776 53.9677 57.0586H56.6635C55.1304 58.1769 54.0273 59.7873 53.5384 61.6209C53.0495 63.4546 53.2045 65.4004 53.9774 67.1336H47.9237C47.741 64.2059 46.4385 61.4608 44.2863 59.4676V59.4682ZM63.4623 58.1682H59.7453V54.45H63.4627L63.4623 58.1682ZM52.5534 56.3097C52.5534 57.3008 51.7784 58.1073 50.8257 58.1073C49.8729 58.1073 49.0979 57.3008 49.0979 56.3097C49.0979 55.3186 49.8729 54.5121 50.8257 54.5121C51.7784 54.5121 52.5534 55.3173 52.5534 56.3086V56.3097ZM52.2784 71.8548H55.9127L54.6909 73.6798H47.9489V71.8548H49.8714C50.0703 71.8548 50.2611 71.7758 50.4017 71.6352C50.5424 71.4945 50.6214 71.3037 50.6214 71.1048C50.6214 70.9059 50.5424 70.7151 50.4017 70.5745C50.2611 70.4338 50.0703 70.3548 49.8714 70.3548H47.9489V68.6337H54.8412C55.312 69.2847 55.8747 69.8641 56.5117 70.3537H52.2782C52.0792 70.3537 51.8885 70.4327 51.7478 70.5734C51.6072 70.714 51.5282 70.9048 51.5282 71.1037C51.5282 71.3026 51.6072 71.4934 51.7478 71.634C51.8885 71.7747 52.0792 71.8537 52.2782 71.8537L52.2784 71.8548ZM49.5243 77.0048C49.1067 77.0043 48.7064 76.8382 48.4112 76.5429C48.1159 76.2477 47.9498 75.8474 47.9493 75.4298V75.1798H54.7493L55.6055 77.0048H49.5243ZM58.7684 84.2463L58.7449 82.3371C58.7659 82.3327 58.7867 82.3268 58.8074 82.3204L64.5709 82.2842C64.6013 82.2931 64.6322 82.2999 64.6635 82.3048L64.6869 84.2091L58.7684 84.2463ZM64.3082 80.7859L59.0518 80.819L56.0979 74.5224C56.1019 74.4914 56.1041 74.4601 56.1043 74.4288C56.1042 74.3807 56.0995 74.3326 56.0903 74.2853L60.8377 67.1935L60.8744 73.0517C60.247 73.2359 59.707 73.6402 59.3535 74.1903C59 74.7404 58.8566 75.3995 58.9497 76.0467C59.0428 76.6939 59.366 77.2859 59.8602 77.7141C60.3544 78.1424 60.9864 78.3781 61.6403 78.3781H61.6579C62.3132 78.3743 62.945 78.1338 63.4369 77.701C63.9289 77.2681 64.2479 76.6721 64.3351 76.0227C64.4224 75.3733 64.272 74.7142 63.9117 74.1669C63.5515 73.6195 63.0055 73.2208 62.3745 73.0442L62.337 67.1798L67.2484 74.3064L64.3082 80.7859ZM61.6332 74.4418H61.6409C61.9641 74.4408 62.2745 74.5682 62.5038 74.7961C62.7331 75.0239 62.8625 75.3335 62.8635 75.6568C62.8645 75.98 62.737 76.2904 62.5092 76.5197C62.2814 76.7489 61.9718 76.8783 61.6485 76.8793H61.6407C61.3174 76.8803 61.007 76.7529 60.7778 76.525C60.5485 76.2972 60.4192 75.9876 60.4182 75.6643C60.4172 75.3411 60.5446 75.0307 60.7725 74.8014C61.0003 74.5722 61.3099 74.4428 61.6332 74.4418V74.4418ZM68.3707 63.7633C68.3677 64.832 68.1144 65.8851 67.6311 66.8383C67.1478 67.7914 66.448 68.6181 65.5877 69.2521L62.1902 64.3221C62.1212 64.2207 62.0283 64.138 61.9197 64.0813C61.8111 64.0246 61.6901 63.9957 61.5675 63.9971C61.4451 63.9979 61.3248 64.0287 61.217 64.0867C61.1093 64.1447 61.0174 64.2282 60.9493 64.33L57.618 69.3064C56.6829 68.6405 55.9313 67.7489 55.4333 66.7145C54.9352 65.6802 54.7069 64.5366 54.7696 63.3903C54.8322 62.244 55.1837 61.1321 55.7915 60.1581C56.3993 59.1842 57.2435 58.3798 58.2457 57.8197V58.9166C58.2457 59.1155 58.3247 59.3063 58.4653 59.4469C58.606 59.5876 58.7967 59.6666 58.9957 59.6666H64.2127C64.4116 59.6666 64.6023 59.5876 64.743 59.4469C64.8836 59.3063 64.9627 59.1155 64.9627 58.9166V57.865C65.9961 58.4649 66.8545 59.325 67.4523 60.3597C68.0502 61.3943 68.3668 62.5675 68.3707 63.7625V63.7633Z" fill="black"/>
</svg>
