<?xml version="1.0" encoding="UTF-8" standalone="no"?><!DOCTYPE svg PUBLIC "-//W3C//DTD SVG 1.1//EN" "http://www.w3.org/Graphics/SVG/1.1/DTD/svg11.dtd"><svg width="100%" height="100%" viewBox="0 0 152 176" version="1.1" xmlns="http://www.w3.org/2000/svg" xmlns:xlink="http://www.w3.org/1999/xlink" xml:space="preserve" xmlns:serif="http://www.serif.com/" style="fill-rule:evenodd;clip-rule:evenodd;stroke-linejoin:round;stroke-miterlimit:2;"><g id="Background"></g><g id="Objects"><g><clipPath id="_clip1"><path d="M-223.397,-53.647c-10.499,0 -19.01,8.511 -19.01,19.01l0,306.714c0,10.499 8.511,19.01 19.01,19.01l139.259,0c10.498,0 19.009,-8.511 19.009,-19.01l0,-306.714c0,-10.499 -8.511,-19.01 -19.009,-19.01l-139.259,0Z" clip-rule="nonzero"/></clipPath><g clip-path="url(#_clip1)"></g></g><path d="M62.838,53.24c0,23.525 19.071,42.596 42.596,42.596c23.526,0 42.596,-19.071 42.596,-42.596c0,-23.525 -19.07,-42.596 -42.596,-42.596c-23.525,0 -42.596,19.071 -42.596,42.596" style="fill:#00c6f6;fill-rule:nonzero;"/><path d="M109.52,12.152c1.3,-0.387 2.691,-0.556 4.018,-0.271c1.327,0.284 2.582,1.063 3.253,2.242c0.766,1.347 0.694,2.995 0.599,4.543c-0.236,3.875 -0.473,7.751 -0.71,11.627c-0.065,1.075 -0.124,2.195 0.294,3.188c0.417,0.993 1.465,1.811 2.521,1.592c0.537,-0.111 0.99,-0.464 1.499,-0.67c0.509,-0.205 1.188,-0.213 1.507,0.233c0.191,0.266 0.198,0.62 0.163,0.944c-0.157,1.433 -1.043,2.767 -2.304,3.467c0.741,-0.359 1.671,0.389 1.683,1.212c0.013,0.823 -0.651,1.535 -1.416,1.841c-0.763,0.307 -1.613,0.295 -2.435,0.279c0.678,0.012 1.2,0.736 1.134,1.411c-0.067,0.675 -0.6,1.238 -1.224,1.502c-0.625,0.264 -1.327,0.274 -2.002,0.212c-1.436,-0.134 -2.867,-0.595 -3.998,-1.489c-1.976,-1.562 -2.775,-4.228 -2.803,-6.746c-0.027,-2.518 0.599,-4.991 0.95,-7.485c0.815,-5.784 0.149,-11.663 -0.518,-17.467l0.486,-0.146" style="fill:#ff7081;fill-rule:nonzero;"/><path d="M117.244,98.633c-1.571,1.509 -2.169,3.858 -0.67,5.67c1.411,1.706 4.141,2.069 5.903,0.708c4.255,-3.283 -0.18,-9.342 -4.771,-8.088c-0.85,0.232 -0.638,1.444 0.202,1.492c1.343,0.076 2.779,0.127 3.852,1.068c1.152,1.011 1.176,2.72 0.232,3.882c-2.503,3.077 -6.85,-1.454 -4.221,-4.205c0.332,-0.347 -0.18,-0.86 -0.527,-0.527" style="fill:#7cabff;fill-rule:nonzero;"/><path d="M68.631,81.897c-0.595,-0.631 -1.252,-1.115 -1.55,-1.959c-0.595,-1.682 0.541,-2.517 1.875,-3.143c1.358,-0.638 2.454,-1.381 2.857,-2.916c0.63,-2.398 -1.411,-5.355 -4.02,-4.644c-0.846,0.231 -0.594,1.308 -0.016,1.642c0.807,0.466 1.889,0.733 2.025,1.845c0.182,1.487 -1.285,1.912 -2.31,2.448c-1.108,0.58 -1.944,1.463 -2.297,2.681c-0.605,2.098 0.648,4.947 3.099,4.827c0.346,-0.017 0.587,-0.516 0.337,-0.781" style="fill:#7e2e84;fill-rule:nonzero;"/><path d="M60.587,107.592c0.214,1.39 1.658,4.331 3.178,4.737c0.809,0.217 1.41,-0.316 2.039,-0.749c1.143,-0.787 2.271,-1.592 3.401,-2.396c0.411,-0.293 0.654,-0.857 0.348,-1.328c-1,-1.538 -1.999,-3.077 -2.999,-4.616c-0.267,-0.41 -0.883,-0.663 -1.327,-0.347c-1.247,0.882 -2.598,1.694 -3.722,2.73c-0.774,0.713 0.212,1.879 1.091,1.414c1.275,-0.675 2.432,-1.635 3.61,-2.468c-0.443,-0.117 -0.885,-0.233 -1.327,-0.349c0.999,1.539 1.999,3.077 2.998,4.615c0.116,-0.442 0.232,-0.885 0.348,-1.327c-0.678,0.482 -1.358,0.963 -2.034,1.448c-0.383,0.275 -1.665,1.476 -2.091,1.428c-0.382,-0.043 -1.182,-1.402 -1.417,-1.682c-0.48,-0.57 -0.929,-1.109 -1.549,-1.531c-0.298,-0.204 -0.591,0.132 -0.547,0.421" style="fill:#fbc580;fill-rule:nonzero;"/><path d="M129.591,44.413c0.214,1.39 1.658,4.332 3.178,4.738c0.809,0.216 1.41,-0.317 2.039,-0.75c1.142,-0.786 2.271,-1.592 3.401,-2.396c0.411,-0.293 0.654,-0.856 0.348,-1.328c-1,-1.538 -1.999,-3.077 -2.999,-4.615c-0.267,-0.411 -0.883,-0.663 -1.327,-0.348c-1.246,0.882 -2.598,1.695 -3.722,2.731c-0.773,0.713 0.212,1.879 1.091,1.413c1.275,-0.675 2.432,-1.635 3.61,-2.468c-0.442,-0.117 -0.885,-0.232 -1.328,-0.349c1,1.539 2,3.077 2.999,4.616c0.116,-0.443 0.232,-0.886 0.349,-1.328c-0.679,0.483 -1.359,0.963 -2.035,1.448c-0.382,0.275 -1.665,1.476 -2.091,1.428c-0.382,-0.043 -1.183,-1.402 -1.417,-1.681c-0.48,-0.571 -0.93,-1.11 -1.549,-1.531c-0.299,-0.205 -0.592,0.131 -0.547,0.42" style="fill:#fbc580;fill-rule:nonzero;"/><path d="M135.526,69.477c-2.599,1.208 -5.155,2.484 -7.705,3.792c-0.613,0.315 -0.711,0.964 -0.235,1.456c1.869,1.933 3.712,3.872 5.721,5.661c0.387,0.345 1.011,0.146 1.213,-0.295c1.246,-2.721 3.14,-6.431 2.622,-9.519c-0.132,-0.785 -1.332,-1.142 -1.652,-0.267c-0.502,1.37 -0.499,2.906 -0.821,4.332c-0.372,1.645 -0.857,3.294 -1.588,4.817c0.452,-0.047 0.905,-0.095 1.357,-0.142c-1.831,-2.072 -3.811,-3.98 -5.791,-5.909c-0.012,0.449 -0.023,0.899 -0.034,1.348c2.499,-1.403 4.976,-2.828 7.419,-4.328c0.515,-0.316 0.049,-1.204 -0.506,-0.946" style="fill:#ff7081;fill-rule:nonzero;"/><path d="M87.382,105.313c1.885,-2.096 3.791,-4.431 5.266,-6.84c0.463,-0.76 -0.682,-1.629 -1.268,-0.937c-1.827,2.158 -3.449,4.696 -4.851,7.147c-0.296,0.52 0.444,1.085 0.853,0.63" style="fill:#ff7081;fill-rule:nonzero;"/><path d="M150.508,30.705l-0.144,-0.127c-0.633,-0.56 -1.671,-0.671 -2.287,0c-0.622,0.678 -0.599,1.609 0,2.287c0.042,0.048 0.085,0.096 0.127,0.144c0.567,0.64 1.734,0.621 2.304,0c0.567,-0.618 0.682,-1.701 0,-2.304" style="fill:#241352;fill-rule:nonzero;"/><path d="M76.471,91.461c-0.048,-0.042 -0.097,-0.085 -0.145,-0.127c-0.632,-0.561 -1.671,-0.671 -2.286,0c-0.623,0.678 -0.6,1.608 0,2.287c0.042,0.048 0.085,0.095 0.127,0.143c0.566,0.64 1.734,0.622 2.304,0c0.566,-0.617 0.681,-1.7 0,-2.303" style="fill:#241352;fill-rule:nonzero;"/><path d="M98.047,39.967l-28.259,10.594l2.698,-11.412l-7.349,-1.867c0,0 -7.905,22.309 -2.416,22.905c9.612,1.046 24.154,-2.76 24.154,-2.76l11.172,-17.46Z" style="fill:#ffafa7;fill-rule:nonzero;"/><path d="M88.234,65.552l0.064,22.349c7.36,9.047 32.979,-2.652 32.979,-2.652l0.299,-9.14l0.595,-21.772c-0.59,-8.67 -8.643,-12.926 -8.643,-12.926c-3.329,-1.658 -8.406,-2.601 -12.981,-2.375c-4.774,0.236 -5.954,2.523 -7.921,6.88c-1.589,3.52 -4.392,6.823 -4.392,19.636" style="fill:#241352;fill-rule:nonzero;"/><path d="M112.389,17.982l-0.34,4.47c0,0 3.801,0.512 2.718,3.978c-1.083,3.466 -3.683,1.949 -3.683,1.949c0,0 -0.65,8.883 -9.749,6.066c-7.241,-2.241 -6.798,-11.618 -5.879,-19.612c0.357,-3.097 3.287,-5.226 6.346,-4.63l5.47,1.066c3.162,0.615 5.361,3.501 5.117,6.713" style="fill:#ffafa7;fill-rule:nonzero;"/><path d="M112.049,26.161l-2.451,13.073c-0.552,2.946 -3.456,4.83 -6.371,4.135c-2.701,-0.645 -4.432,-3.284 -3.946,-6.018l1.33,-7.493l11.438,-3.697Z" style="fill:#ffafa7;fill-rule:nonzero;"/><path d="M101.986,26.308c0.02,-0.003 0.056,0.19 -0.222,0.331c-0.29,0.134 -0.755,-0.146 -0.875,-0.598c-0.154,-0.433 -0.134,-0.955 -0.113,-1.485c0.029,-0.577 0.059,-1.147 0.089,-1.745c0.154,-2.474 0.396,-4.472 0.54,-4.462c0.144,0.008 0.135,2.021 -0.021,4.495c-0.044,0.596 -0.086,1.166 -0.129,1.742c-0.05,0.536 -0.096,0.999 -0.013,1.351c0.06,0.355 0.307,0.523 0.469,0.506c0.167,-0.019 0.24,-0.16 0.275,-0.135" style="fill:#241352;fill-rule:nonzero;"/><path d="M99.035,33.533c0.072,-0.142 1.792,1.191 4.307,1.236c2.514,0.062 4.289,-1.198 4.355,-1.053c0.038,0.05 -0.34,0.433 -1.104,0.831c-0.757,0.398 -1.931,0.771 -3.262,0.742c-1.331,-0.027 -2.487,-0.449 -3.228,-0.879c-0.748,-0.43 -1.109,-0.828 -1.068,-0.877" style="fill:#241352;fill-rule:nonzero;"/><path d="M100.812,28.142c0.06,-0.051 0.269,0.133 0.648,0.292c0.373,0.161 0.951,0.277 1.518,0.097c0.566,-0.184 0.969,-0.616 1.178,-0.964c0.216,-0.35 0.278,-0.621 0.356,-0.614c0.064,0 0.139,0.306 -0.023,0.772c-0.154,0.453 -0.603,1.056 -1.352,1.302c-0.751,0.236 -1.468,0.008 -1.856,-0.272c-0.404,-0.283 -0.521,-0.576 -0.469,-0.613" style="fill:#241352;fill-rule:nonzero;"/><path d="M112.337,26.863c-0.007,-0.077 0.221,-0.123 0.459,-0.281c0.118,-0.082 0.215,-0.191 0.247,-0.338c0.032,-0.153 -0.011,-0.268 -0.108,-0.298c-0.09,-0.034 -0.162,-0.003 -0.172,0.012l-0.444,-0.23c0.349,-0.706 0.671,-1.186 0.779,-1.139c0.108,0.048 -0.032,0.61 -0.322,1.341l-0.441,-0.23c0.167,-0.284 0.528,-0.346 0.786,-0.241c0.19,0.062 0.36,0.256 0.403,0.434c0.052,0.183 0.029,0.358 -0.025,0.501c-0.106,0.293 -0.356,0.463 -0.545,0.521c-0.395,0.116 -0.618,0.009 -0.617,-0.052" style="fill:#241352;fill-rule:nonzero;"/><path d="M105.331,18.055c-0.055,-0.13 0.427,-0.403 1.04,-0.241c0.614,0.16 0.898,0.634 0.788,0.721c-0.107,0.101 -0.463,-0.105 -0.92,-0.217c-0.454,-0.127 -0.864,-0.122 -0.908,-0.263" style="fill:#241352;fill-rule:nonzero;"/><path d="M97.464,16.808c-0.065,-0.125 0.409,-0.458 1.082,-0.398c0.673,0.057 1.082,0.468 0.997,0.58c-0.081,0.124 -0.514,-0.021 -1.043,-0.061c-0.527,-0.053 -0.978,0.015 -1.036,-0.121" style="fill:#241352;fill-rule:nonzero;"/><path d="M112.049,22.452c-2.539,-2.476 -3.285,-6.601 -3.975,-10.08c-2.351,1.712 -5.587,2.134 -8.298,1.08c-0.852,1 -1.851,1.874 -2.956,2.583c-0.315,0.202 -0.688,0.397 -1.045,0.29c-0.426,-0.129 -0.616,-0.618 -0.717,-1.051c-0.325,-1.387 -0.337,-2.873 0.147,-4.213c0.485,-1.34 1.498,-2.517 2.827,-3.031c1.421,-0.551 3.019,-0.311 4.494,0.071c2.221,0.576 4.362,1.46 6.342,2.621c1.944,1.138 3.81,2.644 4.635,4.74c0.824,2.096 0.82,6.169 -1.167,7.229" style="fill:#ff7081;fill-rule:nonzero;"/><path d="M97.057,39.872c2.46,-0.977 -16.454,6.045 -16.454,6.045l1.919,12.938l7.193,-2.36l7.342,-16.623Z" style="fill:#241352;fill-rule:nonzero;"/><path d="M71.955,39.872c0,0 4.936,-6.9 4.056,-6.896c-0.88,0.003 -1.339,1.302 -3.048,2.191c0,0 2.727,-8.628 1.884,-8.447c-0.845,0.181 -2.858,5.719 -2.99,5.713c-0.132,-0.006 1.737,-6.211 1.036,-6.287c-0.7,-0.076 -2.417,5.696 -2.417,5.696c0,0 1.176,-5.487 0.434,-5.61c-0.742,-0.123 -1.837,4.932 -1.837,4.932c0,0 0.875,-4.245 0.2,-4.349c-0.411,-0.062 -4.136,10.467 -4.136,10.467c0.097,0 6.818,2.59 6.818,2.59" style="fill:#ffafa7;fill-rule:nonzero;"/><path d="M110.128,64.451c-0.035,0.004 -0.109,-0.355 -0.213,-1.008c-0.103,-0.653 -0.235,-1.599 -0.387,-2.77c-0.302,-2.343 -0.69,-5.578 -1.078,-9.164c-0.089,-0.902 -0.136,-1.81 0.002,-2.687c0.129,-0.877 0.495,-1.702 1.008,-2.338c1.032,-1.289 2.454,-1.905 3.627,-2.137c1.191,-0.235 2.172,-0.161 2.83,-0.081c0.661,0.087 1.014,0.195 1.009,0.226c-0.007,0.04 -0.371,0 -1.026,-0.023c-0.652,-0.018 -1.609,-0.032 -2.732,0.238c-1.108,0.264 -2.41,0.883 -3.328,2.072c-0.455,0.589 -0.769,1.314 -0.882,2.121c-0.122,0.805 -0.076,1.67 0.012,2.557c0.387,3.576 0.717,6.825 0.926,9.176c0.104,1.175 0.18,2.129 0.221,2.788c0.041,0.659 0.047,1.026 0.011,1.03" style="fill:#241352;fill-rule:nonzero;"/><path d="M109.46,63.634c0.015,-0.143 3.457,0.104 7.687,0.552c4.232,0.448 7.649,0.927 7.634,1.07c-0.015,0.143 -3.457,-0.104 -7.688,-0.553c-4.231,-0.447 -7.649,-0.926 -7.633,-1.069" style="fill:#241352;fill-rule:nonzero;"/><path d="M87.089,6.828l0,14.805l-9.892,0l-0.315,5.615l-5.813,-5.94l-21.779,0l1.918,-15.572l35.881,1.092Z" style="fill:#7e2e84;fill-rule:nonzero;"/><path d="M83.708,11.066c-9.726,-0.2 -19.516,-0.266 -29.242,-0.06c-0.185,0.004 -0.186,0.285 0,0.289c9.726,0.206 19.516,0.139 29.242,-0.061c0.108,-0.001 0.108,-0.166 0,-0.168" style="fill:#e6e2eb;fill-rule:nonzero;"/><path d="M83.708,13.909c-9.726,-0.2 -19.516,-0.266 -29.242,-0.06c-0.185,0.004 -0.186,0.285 0,0.289c9.726,0.206 19.516,0.139 29.242,-0.06c0.108,-0.002 0.108,-0.167 0,-0.169" style="fill:#e6e2eb;fill-rule:nonzero;"/><path d="M83.708,16.905c-5.958,-0.191 -12.014,-0.245 -17.971,-0.06c-0.186,0.006 -0.186,0.283 0,0.289c5.957,0.184 12.013,0.131 17.971,-0.06c0.108,-0.003 0.108,-0.166 0,-0.169" style="fill:#e6e2eb;fill-rule:nonzero;"/><path d="M98.279,20.821c-0.131,0.064 -0.329,-0.073 -0.517,-0.245c-0.183,-0.177 -0.331,-0.365 -0.276,-0.5c0.052,-0.132 0.371,-0.127 0.634,0.12c0.263,0.247 0.288,0.566 0.159,0.625" style="fill:#241352;fill-rule:nonzero;"/><path d="M105.872,21.695c-0.133,0.059 -0.363,-0.172 -0.589,-0.47c-0.223,-0.3 -0.38,-0.586 -0.286,-0.697c0.09,-0.11 0.439,0.032 0.703,0.384c0.265,0.352 0.303,0.727 0.172,0.783" style="fill:#241352;fill-rule:nonzero;"/><g opacity="0.18"><path d="M104.135,28.198c0.214,0.687 0.011,1.361 -0.454,1.505c-0.465,0.145 -1.015,-0.294 -1.229,-0.981c-0.213,-0.686 -0.009,-1.36 0.454,-1.505c0.465,-0.144 1.015,0.295 1.229,0.981" style="fill:#241352;fill-rule:nonzero;"/></g><g opacity="0.13"><path d="M108.716,23.459c0.005,0.719 -0.923,1.309 -2.071,1.317c-1.15,0.008 -2.084,-0.568 -2.09,-1.287c-0.005,-0.719 0.922,-1.309 2.071,-1.317c1.149,-0.008 2.084,0.568 2.09,1.287" style="fill:#241352;fill-rule:nonzero;"/></g><g opacity="0.13"><path d="M100.146,24.065c0.005,0.719 -0.922,1.309 -2.071,1.317c-1.149,0.008 -2.084,-0.568 -2.089,-1.287c-0.006,-0.719 0.922,-1.309 2.07,-1.317c1.149,-0.008 2.085,0.568 2.09,1.287" style="fill:#241352;fill-rule:nonzero;"/></g><path d="M112.56,16.412c-0.047,-0.057 0.13,-0.284 -0.031,-0.701c-0.135,-0.403 -0.545,-0.981 -0.871,-1.642c-0.691,-1.317 -1.149,-2.441 -1.023,-2.512c0.125,-0.071 0.79,0.947 1.486,2.274c0.329,0.675 0.681,1.239 0.767,1.799c0.04,0.27 -0.012,0.52 -0.115,0.651c-0.099,0.132 -0.192,0.154 -0.213,0.131" style="fill:#6f35a5;fill-rule:nonzero;"/><path d="M90.476,59.175l-1.676,22.296l23.232,3.112l-1.572,-25.729l-19.984,0.321Z" style="fill:#7cabff;fill-rule:nonzero;"/><path d="M92.327,44.067l0,17.681l2.711,-1.017l0,-20.15l-2.711,0.825" style="fill:#7cabff;fill-rule:nonzero;"/><path d="M113.854,41.599c0,0 -10.489,1.351 -7.389,18.489l2.628,0.281c0,0 -2.964,-16.101 6.896,-17.25l-2.135,-1.52Z" style="fill:#7cabff;fill-rule:nonzero;"/><path d="M110.763,61.488c0,0 3.58,21.102 -1.469,20.583c-16.611,-1.708 -26.503,-1.939 -26.503,-1.939l-2.753,5.717c-0.063,0.974 31.458,9.997 36.523,7.014c3.575,-2.107 9.273,-7.781 6.686,-24.737l-0.61,-5.683l-11.874,-0.955Z" style="fill:#ffafa7;fill-rule:nonzero;"/><path d="M119.977,47.491c0,0 3.874,3.72 4.74,17.799l-14.995,-1.659c0,0 -2.499,-23.977 10.255,-16.14" style="fill:#241352;fill-rule:nonzero;"/><path d="M84.54,80.134c0,0 -8.129,-2.55 -7.85,-1.711c0.279,0.838 1.662,0.87 3.045,2.222c0,0 -9.087,0.098 -8.65,0.847c0.437,0.749 6.352,0.937 6.388,1.064c0.035,0.128 -6.47,0.287 -6.324,0.979c0.147,0.693 6.192,0.524 6.192,0.524c0,0 -5.604,0.596 -5.489,1.342c0.115,0.747 5.281,0.209 5.281,0.209c0,0 -4.324,0.494 -4.211,1.17c0.068,0.412 12.66,0.506 12.685,0.809c0.014,0.158 -1.067,-7.455 -1.067,-7.455" style="fill:#ffafa7;fill-rule:nonzero;"/><path d="M94.906,59.292c0.062,-0.006 0.216,0.354 0.277,1.013c0.021,0.324 0.002,0.754 -0.219,1.179c-0.204,0.406 -0.657,0.855 -1.282,0.855c-0.614,-0.008 -1.066,-0.389 -1.325,-0.768c-0.267,-0.402 -0.339,-0.809 -0.371,-1.135c-0.042,-0.657 0.047,-1.039 0.109,-1.043c0.081,-0.005 0.125,0.396 0.255,0.984c0.071,0.288 0.178,0.634 0.397,0.914c0.216,0.281 0.568,0.53 0.933,0.527c0.365,0.006 0.682,-0.261 0.865,-0.568c0.187,-0.305 0.244,-0.65 0.27,-0.947c0.035,-0.599 0.01,-1.003 0.091,-1.011" style="fill:#241352;fill-rule:nonzero;"/><path d="M93.259,59.645c0.041,0.061 -0.007,0.177 0.048,0.312c0.073,0.155 0.143,0.192 0.276,0.112c0.126,-0.092 0.118,-0.172 0.003,-0.299c-0.104,-0.102 -0.229,-0.102 -0.27,-0.163c-0.051,-0.045 0.096,-0.251 0.417,-0.174c0.144,0.04 0.329,0.149 0.408,0.39c0.083,0.249 -0.054,0.545 -0.269,0.679c-0.205,0.146 -0.531,0.159 -0.729,-0.013c-0.193,-0.165 -0.223,-0.377 -0.204,-0.526c0.051,-0.325 0.298,-0.382 0.32,-0.318" style="fill:#241352;fill-rule:nonzero;"/><path d="M108.833,58.928c0.052,-0.031 0.255,0.213 0.185,0.676c-0.056,0.428 -0.466,1.091 -1.259,1.15c-0.796,0.008 -1.261,-0.618 -1.353,-1.04c-0.108,-0.455 0.073,-0.715 0.128,-0.689c0.077,0.018 0.057,0.262 0.218,0.563c0.144,0.293 0.53,0.662 0.984,0.646c0.454,-0.022 0.808,-0.422 0.926,-0.727c0.136,-0.313 0.095,-0.555 0.171,-0.579" style="fill:#241352;fill-rule:nonzero;"/><path d="M107.143,58.309c-0.042,-0.049 0.087,-0.245 0.425,-0.25c0.159,0.001 0.377,0.055 0.544,0.255c0.178,0.194 0.191,0.567 0.026,0.794c-0.138,0.242 -0.489,0.409 -0.779,0.267c-0.295,-0.16 -0.316,-0.433 -0.29,-0.597c0.027,-0.177 0.145,-0.308 0.248,-0.339c0.103,-0.03 0.155,0.009 0.16,0.039c-0.001,0.076 -0.091,0.156 -0.04,0.314c0.071,0.184 0.129,0.19 0.263,0.035c0.117,-0.171 0.005,-0.317 -0.187,-0.404c-0.178,-0.077 -0.333,-0.05 -0.37,-0.114" style="fill:#241352;fill-rule:nonzero;"/><path d="M106.592,69.349c-0.144,-0.03 -0.166,-0.476 -0.149,-1.002c0.019,-0.526 0.069,-0.967 0.213,-0.989c0.14,-0.023 0.328,0.427 0.307,1.007c-0.019,0.58 -0.233,1.015 -0.371,0.984" style="fill:#241352;fill-rule:nonzero;"/><path d="M104.766,72.851c-0.102,-0.104 0.125,-0.488 0.434,-0.917c0.31,-0.428 0.605,-0.764 0.735,-0.699c0.128,0.061 0.026,0.535 -0.314,1.004c-0.337,0.469 -0.757,0.715 -0.855,0.612" style="fill:#241352;fill-rule:nonzero;"/><path d="M101.27,74.654c-0.021,-0.145 0.389,-0.319 0.89,-0.484c0.502,-0.161 0.933,-0.263 1.004,-0.135c0.068,0.124 -0.291,0.452 -0.843,0.631c-0.551,0.179 -1.032,0.128 -1.051,-0.012" style="fill:#241352;fill-rule:nonzero;"/><path d="M97.353,74.148c0.063,-0.131 0.501,-0.049 1.01,0.092c0.508,0.144 0.925,0.304 0.909,0.45c-0.014,0.141 -0.493,0.208 -1.05,0.051c-0.557,-0.155 -0.931,-0.466 -0.869,-0.593" style="fill:#241352;fill-rule:nonzero;"/><path d="M94.465,71.473c0.129,-0.069 0.435,0.255 0.761,0.67c0.323,0.417 0.565,0.789 0.468,0.898c-0.092,0.107 -0.523,-0.12 -0.878,-0.577c-0.358,-0.455 -0.476,-0.925 -0.351,-0.991" style="fill:#241352;fill-rule:nonzero;"/><path d="M93.592,67.623c0.146,0.015 0.217,0.454 0.259,0.979c0.039,0.527 0.033,0.973 -0.109,1.009c-0.137,0.036 -0.367,-0.391 -0.411,-0.968c-0.045,-0.578 0.12,-1.037 0.261,-1.02" style="fill:#241352;fill-rule:nonzero;"/><path d="M96.954,67.008c-0.005,0.144 -0.456,0.244 -1.009,0.224c-0.552,-0.02 -0.995,-0.153 -0.989,-0.296c0.005,-0.144 0.456,-0.244 1.009,-0.224c0.552,0.02 0.995,0.152 0.989,0.296" style="fill:#241352;fill-rule:nonzero;"/><path d="M100.952,67.152c-0.006,0.144 -0.457,0.244 -1.009,0.225c-0.552,-0.02 -0.995,-0.153 -0.99,-0.297c0.005,-0.144 0.457,-0.244 1.009,-0.224c0.552,0.02 0.995,0.152 0.99,0.296" style="fill:#241352;fill-rule:nonzero;"/><path d="M104.949,67.297c-0.005,0.144 -0.457,0.244 -1.009,0.224c-0.552,-0.02 -0.995,-0.153 -0.99,-0.296c0.006,-0.144 0.457,-0.244 1.009,-0.224c0.552,0.02 0.995,0.152 0.99,0.296" style="fill:#241352;fill-rule:nonzero;"/><path d="M106.613,112.038c0.615,-2.757 1.114,-5.724 1.237,-8.547c0.038,-0.88 -1.395,-1.1 -1.56,-0.211c-0.519,2.794 -0.707,5.779 -0.727,8.615c-0.005,0.592 0.916,0.741 1.05,0.143" style="fill:#ff957e;fill-rule:nonzero;"/><path d="M121.139,121.514c-0.048,-0.042 -0.096,-0.085 -0.144,-0.127c-0.633,-0.56 -1.671,-0.67 -2.287,0c-0.623,0.678 -0.6,1.609 0,2.287c0.042,0.048 0.084,0.096 0.127,0.144c0.567,0.64 1.734,0.621 2.304,0c0.566,-0.617 0.682,-1.7 0,-2.304" style="fill:#241352;fill-rule:nonzero;"/><path d="M88.473,133.022c0,23.525 -19.071,42.597 -42.596,42.597c-23.526,0 -42.596,-19.072 -42.596,-42.597c0,-23.525 19.07,-42.596 42.596,-42.596c23.525,0 42.596,19.071 42.596,42.596" style="fill:#00c6f6;fill-rule:nonzero;"/><path d="M52.343,118.659l28.259,10.594l-2.698,-11.412l7.349,-1.868c0,0 7.904,22.309 2.415,22.906c-9.611,1.046 -24.153,-2.76 -24.153,-2.76l-11.172,-17.46Z" style="fill:#ffafa7;fill-rule:nonzero;"/><path d="M62.155,144.244l-0.064,22.349c-7.359,9.047 -32.978,-2.652 -32.978,-2.652l-0.299,-9.14l-0.595,-21.772c0.59,-8.67 8.643,-12.926 8.643,-12.926c3.328,-1.658 8.405,-2.6 12.98,-2.375c4.774,0.237 5.954,2.523 7.921,6.88c1.59,3.521 4.392,6.823 4.392,19.636" style="fill:#193ff9;fill-rule:nonzero;"/><path d="M39.626,140.179c0,0 -3.581,21.102 1.469,20.583c16.611,-1.708 26.502,-1.938 26.502,-1.938l2.753,5.716c0.064,0.974 -31.457,9.997 -36.522,7.014c-3.576,-2.107 -9.273,-7.78 -6.687,-24.736l0.611,-5.684l11.874,-0.955Z" style="fill:#ffafa7;fill-rule:nonzero;"/><path d="M30.49,126.182c0,0 -3.875,3.721 -4.741,17.799l14.996,-1.659c0,0 2.499,-23.977 -10.255,-16.14" style="fill:#193ff9;fill-rule:nonzero;"/><path d="M38,96.674l0.34,4.469c0,0 -3.801,0.512 -2.717,3.979c1.083,3.466 3.682,1.949 3.682,1.949c0,0 0.65,8.882 9.749,6.066c7.241,-2.242 6.798,-11.618 5.879,-19.612c-0.356,-3.097 -3.286,-5.226 -6.346,-4.63l-5.47,1.065c-3.161,0.616 -5.361,3.502 -5.117,6.714" style="fill:#ffafa7;fill-rule:nonzero;"/><path d="M38.34,104.852l2.451,13.073c0.552,2.946 3.456,4.83 6.371,4.135c2.701,-0.645 4.432,-3.283 3.946,-6.018l-1.33,-7.493l-11.438,-3.697Z" style="fill:#ffafa7;fill-rule:nonzero;"/><path d="M48.403,105c0.035,-0.024 0.109,0.116 0.275,0.136c0.162,0.016 0.409,-0.152 0.469,-0.507c0.083,-0.352 0.037,-0.815 -0.013,-1.351c-0.043,-0.576 -0.085,-1.145 -0.129,-1.742c-0.155,-2.474 -0.165,-4.487 -0.021,-4.495c0.144,-0.009 0.385,1.988 0.541,4.462c0.03,0.598 0.059,1.169 0.088,1.745c0.021,0.529 0.041,1.052 -0.113,1.485c-0.12,0.452 -0.585,0.732 -0.875,0.598c-0.278,-0.141 -0.241,-0.334 -0.222,-0.331" style="fill:#241352;fill-rule:nonzero;"/><path d="M51.355,112.224c0.041,0.049 -0.321,0.447 -1.069,0.877c-0.74,0.43 -1.896,0.852 -3.227,0.88c-1.331,0.028 -2.505,-0.345 -3.262,-0.743c-0.765,-0.398 -1.143,-0.781 -1.105,-0.831c0.067,-0.145 1.841,1.115 4.356,1.052c2.515,-0.044 4.235,-1.377 4.307,-1.235" style="fill:#241352;fill-rule:nonzero;"/><path d="M49.578,106.834c0.051,0.037 -0.066,0.33 -0.469,0.613c-0.389,0.28 -1.105,0.508 -1.857,0.272c-0.749,-0.245 -1.198,-0.849 -1.351,-1.303c-0.162,-0.465 -0.087,-0.771 -0.024,-0.771c0.079,-0.007 0.141,0.264 0.357,0.615c0.209,0.347 0.611,0.778 1.177,0.963c0.568,0.18 1.146,0.064 1.519,-0.097c0.379,-0.159 0.588,-0.343 0.648,-0.292" style="fill:#241352;fill-rule:nonzero;"/><path d="M38.053,105.555c0.001,0.061 -0.222,0.168 -0.617,0.052c-0.189,-0.059 -0.439,-0.228 -0.546,-0.522c-0.054,-0.142 -0.078,-0.317 -0.024,-0.501c0.043,-0.178 0.213,-0.372 0.403,-0.433c0.258,-0.106 0.619,-0.043 0.786,0.241l-0.442,0.229c-0.289,-0.731 -0.43,-1.293 -0.322,-1.34c0.108,-0.048 0.43,0.433 0.778,1.138l-0.442,0.231c-0.01,-0.016 -0.083,-0.047 -0.173,-0.013c-0.097,0.03 -0.141,0.146 -0.108,0.299c0.032,0.146 0.129,0.255 0.247,0.338c0.239,0.158 0.466,0.204 0.46,0.281" style="fill:#241352;fill-rule:nonzero;"/><path d="M45.059,96.746c-0.044,0.141 -0.454,0.137 -0.908,0.263c-0.458,0.113 -0.813,0.318 -0.92,0.217c-0.111,-0.087 0.173,-0.561 0.788,-0.721c0.613,-0.162 1.094,0.111 1.04,0.241" style="fill:#241352;fill-rule:nonzero;"/><path d="M52.925,95.5c-0.058,0.136 -0.509,0.069 -1.037,0.121c-0.529,0.04 -0.962,0.185 -1.042,0.061c-0.086,-0.111 0.324,-0.523 0.997,-0.58c0.673,-0.06 1.147,0.273 1.082,0.398" style="fill:#241352;fill-rule:nonzero;"/><path d="M38.34,101.143c2.539,-2.476 3.286,-6.601 3.975,-10.08c2.352,1.713 5.587,2.134 8.298,1.081c0.852,1 1.852,1.873 2.957,2.582c0.314,0.202 0.687,0.398 1.044,0.29c0.427,-0.129 0.616,-0.617 0.718,-1.051c0.324,-1.387 0.336,-2.872 -0.148,-4.213c-0.484,-1.34 -1.498,-2.517 -2.827,-3.031c-1.421,-0.55 -3.019,-0.311 -4.494,0.071c-2.221,0.576 -4.362,1.461 -6.342,2.621c-1.943,1.138 -3.81,2.645 -4.635,4.74c-0.824,2.096 -0.82,6.169 1.167,7.229" style="fill:#241352;fill-rule:nonzero;"/><path d="M53.332,118.563c-2.459,-0.977 16.455,6.045 16.455,6.045l-1.919,12.938l-7.194,-2.36l-7.342,-16.623Z" style="fill:#193ff9;fill-rule:nonzero;"/><path d="M65.85,158.825c0,0 8.129,-2.549 7.85,-1.711c-0.279,0.839 -1.663,0.87 -3.045,2.223c0,0 9.087,0.098 8.649,0.846c-0.436,0.749 -6.351,0.938 -6.387,1.065c-0.035,0.128 6.47,0.287 6.324,0.979c-0.147,0.692 -6.192,0.524 -6.192,0.524c0,0 5.604,0.595 5.489,1.342c-0.116,0.747 -5.281,0.209 -5.281,0.209c0,0 4.323,0.494 4.211,1.169c-0.068,0.413 -12.66,0.506 -12.686,0.809c-0.014,0.159 1.068,-7.455 1.068,-7.455" style="fill:#ffafa7;fill-rule:nonzero;"/><path d="M78.435,118.563c0,0 -4.936,-6.899 -4.056,-6.896c0.88,0.003 1.339,1.302 3.048,2.191c0,0 -2.728,-8.628 -1.884,-8.447c0.844,0.181 2.858,5.719 2.99,5.714c0.131,-0.007 -1.737,-6.211 -1.036,-6.288c0.7,-0.076 2.417,5.696 2.417,5.696c0,0 -1.176,-5.487 -0.434,-5.61c0.742,-0.123 1.836,4.932 1.836,4.932c0,0 -0.874,-4.245 -0.199,-4.349c0.411,-0.062 4.136,10.467 4.136,10.467c-0.097,0 -6.818,2.59 -6.818,2.59" style="fill:#ffafa7;fill-rule:nonzero;"/><path d="M32.912,137.547c0.054,-0.006 0.238,0.322 0.248,0.974c-0.002,0.315 -0.131,0.774 -0.533,1.061c-0.192,0.143 -0.478,0.245 -0.774,0.18c-0.293,-0.061 -0.514,-0.26 -0.673,-0.434c-0.322,-0.375 -0.531,-0.597 -0.861,-0.636c-0.316,-0.05 -0.601,0.056 -0.784,0.223c-0.384,0.351 -0.372,0.756 -0.45,0.751c-0.052,0.033 -0.251,-0.433 0.181,-1.003c0.211,-0.272 0.636,-0.494 1.107,-0.448c0.233,0.019 0.482,0.103 0.692,0.263c0.205,0.155 0.351,0.342 0.495,0.496c0.518,0.706 1.196,0.016 1.233,-0.491c0.082,-0.537 0.034,-0.93 0.119,-0.936" style="fill:#fcf2fc;fill-rule:nonzero;"/><path d="M37.353,133.714c-0.033,-0.043 0.151,-0.37 0.703,-0.718c0.271,-0.163 0.73,-0.291 1.183,-0.097c0.222,0.089 0.458,0.281 0.557,0.567c0.1,0.282 0.045,0.575 -0.02,0.801c-0.154,0.469 -0.234,0.764 -0.096,1.067c0.122,0.295 0.36,0.484 0.599,0.553c0.498,0.144 0.838,-0.076 0.875,-0.007c0.055,0.027 -0.24,0.439 -0.951,0.367c-0.342,-0.038 -0.753,-0.285 -0.959,-0.712c-0.104,-0.21 -0.162,-0.466 -0.135,-0.727c0.026,-0.257 0.109,-0.479 0.165,-0.682c0.334,-0.808 -0.607,-1.03 -1.061,-0.797c-0.499,0.209 -0.811,0.455 -0.86,0.385" style="fill:#fcf2fc;fill-rule:nonzero;"/><path d="M37.053,124.166c-0.033,-0.044 0.151,-0.37 0.702,-0.718c0.271,-0.163 0.731,-0.292 1.184,-0.097c0.222,0.089 0.458,0.28 0.556,0.567c0.101,0.282 0.046,0.575 -0.019,0.801c-0.154,0.469 -0.235,0.764 -0.096,1.066c0.121,0.296 0.36,0.484 0.598,0.554c0.499,0.144 0.839,-0.076 0.876,-0.007c0.055,0.027 -0.24,0.439 -0.952,0.367c-0.342,-0.039 -0.752,-0.286 -0.958,-0.712c-0.104,-0.21 -0.162,-0.466 -0.136,-0.728c0.026,-0.256 0.11,-0.478 0.166,-0.681c0.334,-0.808 -0.607,-1.03 -1.061,-0.797c-0.5,0.209 -0.811,0.455 -0.86,0.385" style="fill:#fcf2fc;fill-rule:nonzero;"/><path d="M46.521,136.601c-0.041,0.036 -0.382,-0.119 -0.776,-0.638c-0.186,-0.256 -0.354,-0.702 -0.201,-1.171c0.07,-0.228 0.24,-0.48 0.517,-0.603c0.272,-0.125 0.568,-0.096 0.799,-0.05c0.481,0.111 0.782,0.166 1.071,0.002c0.284,-0.146 0.45,-0.401 0.499,-0.644c0.101,-0.51 -0.149,-0.829 -0.083,-0.872c0.023,-0.057 0.459,0.201 0.448,0.915c-0.008,0.345 -0.218,0.775 -0.625,1.018c-0.2,0.122 -0.449,0.202 -0.713,0.198c-0.258,-0.004 -0.486,-0.067 -0.693,-0.105c-0.835,-0.263 -0.973,0.694 -0.702,1.126c0.252,0.479 0.524,0.768 0.459,0.824" style="fill:#fcf2fc;fill-rule:nonzero;"/><path d="M52.977,146.587c0.029,0.046 -0.178,0.358 -0.753,0.664c-0.283,0.143 -0.75,0.237 -1.188,0.011c-0.215,-0.107 -0.436,-0.314 -0.514,-0.608c-0.079,-0.289 -0.002,-0.576 0.08,-0.796c0.187,-0.458 0.289,-0.746 0.174,-1.057c-0.1,-0.304 -0.324,-0.509 -0.557,-0.596c-0.486,-0.181 -0.841,0.015 -0.873,-0.057c-0.053,-0.032 0.271,-0.421 0.976,-0.296c0.338,0.063 0.729,0.339 0.903,0.78c0.088,0.217 0.128,0.476 0.082,0.735c-0.045,0.254 -0.145,0.47 -0.216,0.667c-0.393,0.782 0.53,1.073 1,0.874c0.513,-0.172 0.842,-0.394 0.886,-0.321" style="fill:#fcf2fc;fill-rule:nonzero;"/><path d="M60.578,130.838c0.029,0.046 -0.178,0.358 -0.753,0.663c-0.283,0.143 -0.75,0.238 -1.188,0.011c-0.215,-0.107 -0.436,-0.314 -0.514,-0.607c-0.079,-0.29 -0.002,-0.577 0.08,-0.797c0.187,-0.458 0.289,-0.745 0.174,-1.056c-0.1,-0.304 -0.324,-0.51 -0.557,-0.596c-0.486,-0.181 -0.841,0.014 -0.873,-0.057c-0.053,-0.032 0.272,-0.421 0.976,-0.297c0.338,0.064 0.729,0.339 0.903,0.78c0.089,0.218 0.128,0.476 0.082,0.736c-0.045,0.254 -0.145,0.47 -0.216,0.667c-0.393,0.781 0.53,1.073 1,0.874c0.513,-0.172 0.842,-0.394 0.886,-0.321" style="fill:#fcf2fc;fill-rule:nonzero;"/><path d="M65.763,128.441c0.033,-0.043 0.397,0.047 0.88,0.484c0.229,0.218 0.476,0.626 0.411,1.115c-0.027,0.238 -0.148,0.516 -0.398,0.688c-0.245,0.172 -0.541,0.197 -0.777,0.195c-0.493,-0.022 -0.799,-0.02 -1.053,0.194c-0.252,0.196 -0.369,0.476 -0.373,0.725c-0.005,0.519 0.299,0.787 0.242,0.841c-0.012,0.061 -0.488,-0.113 -0.609,-0.818c-0.054,-0.339 0.073,-0.801 0.429,-1.113c0.174,-0.158 0.405,-0.282 0.665,-0.327c0.254,-0.043 0.49,-0.022 0.701,-0.022c0.868,0.105 0.829,-0.861 0.484,-1.236c-0.336,-0.425 -0.657,-0.66 -0.602,-0.726" style="fill:#fcf2fc;fill-rule:nonzero;"/><path d="M44.785,154.73c0.029,0.046 -0.178,0.358 -0.754,0.664c-0.282,0.143 -0.749,0.237 -1.187,0.011c-0.215,-0.107 -0.436,-0.315 -0.514,-0.608c-0.079,-0.289 -0.002,-0.576 0.079,-0.796c0.188,-0.458 0.29,-0.746 0.175,-1.057c-0.1,-0.304 -0.324,-0.509 -0.557,-0.596c-0.487,-0.181 -0.842,0.014 -0.873,-0.057c-0.053,-0.033 0.271,-0.421 0.976,-0.296c0.338,0.062 0.729,0.339 0.903,0.78c0.088,0.217 0.127,0.476 0.082,0.735c-0.045,0.254 -0.145,0.47 -0.216,0.667c-0.393,0.782 0.53,1.073 0.999,0.874c0.514,-0.172 0.843,-0.394 0.887,-0.321" style="fill:#fcf2fc;fill-rule:nonzero;"/><path d="M56.034,139.574c-0.045,0.032 -0.366,-0.162 -0.696,-0.724c-0.155,-0.276 -0.268,-0.739 -0.061,-1.186c0.097,-0.219 0.296,-0.449 0.585,-0.539c0.285,-0.091 0.576,-0.027 0.8,0.045c0.464,0.169 0.756,0.258 1.063,0.13c0.299,-0.113 0.495,-0.346 0.572,-0.582c0.16,-0.494 -0.051,-0.84 0.02,-0.874c0.03,-0.055 0.432,0.252 0.338,0.961c-0.05,0.341 -0.309,0.744 -0.742,0.936c-0.213,0.098 -0.47,0.148 -0.732,0.113c-0.255,-0.034 -0.475,-0.125 -0.675,-0.187c-0.798,-0.36 -1.049,0.575 -0.83,1.036c0.193,0.506 0.429,0.824 0.358,0.871" style="fill:#fcf2fc;fill-rule:nonzero;"/><path d="M58.053,147.717c-0.044,0.031 -0.366,-0.163 -0.696,-0.725c-0.154,-0.276 -0.268,-0.739 -0.06,-1.186c0.096,-0.219 0.295,-0.449 0.585,-0.538c0.285,-0.092 0.575,-0.028 0.799,0.045c0.465,0.168 0.757,0.258 1.063,0.129c0.299,-0.113 0.495,-0.345 0.572,-0.581c0.16,-0.495 -0.05,-0.841 0.02,-0.875c0.03,-0.055 0.432,0.252 0.338,0.961c-0.049,0.341 -0.309,0.744 -0.742,0.936c-0.212,0.098 -0.47,0.148 -0.732,0.113c-0.255,-0.034 -0.474,-0.125 -0.675,-0.187c-0.798,-0.36 -1.049,0.575 -0.83,1.036c0.193,0.506 0.43,0.825 0.358,0.872" style="fill:#fcf2fc;fill-rule:nonzero;"/><path d="M41.772,144.244c-0.054,-0.007 -0.161,-0.366 -0.028,-1.004c0.071,-0.308 0.298,-0.727 0.752,-0.919c0.219,-0.098 0.52,-0.135 0.795,-0.006c0.273,0.124 0.444,0.367 0.562,0.571c0.231,0.436 0.387,0.699 0.7,0.81c0.298,0.117 0.598,0.076 0.814,-0.047c0.451,-0.258 0.528,-0.655 0.604,-0.634c0.057,-0.02 0.149,0.478 -0.397,0.94c-0.265,0.219 -0.728,0.343 -1.178,0.194c-0.224,-0.07 -0.448,-0.207 -0.618,-0.408c-0.166,-0.196 -0.268,-0.411 -0.375,-0.593c-0.349,-0.801 -1.162,-0.279 -1.31,0.209c-0.197,0.505 -0.237,0.901 -0.321,0.887" style="fill:#fcf2fc;fill-rule:nonzero;"/><path d="M56.476,154.297c-0.054,-0.007 -0.162,-0.366 -0.028,-1.004c0.07,-0.308 0.298,-0.727 0.752,-0.919c0.219,-0.098 0.52,-0.135 0.795,-0.006c0.273,0.124 0.444,0.367 0.562,0.571c0.231,0.436 0.387,0.699 0.7,0.81c0.297,0.117 0.598,0.076 0.814,-0.047c0.451,-0.258 0.528,-0.655 0.603,-0.634c0.058,-0.02 0.15,0.478 -0.397,0.94c-0.265,0.219 -0.727,0.343 -1.177,0.194c-0.224,-0.07 -0.448,-0.207 -0.618,-0.408c-0.166,-0.196 -0.268,-0.411 -0.375,-0.593c-0.349,-0.801 -1.163,-0.279 -1.31,0.209c-0.197,0.505 -0.237,0.901 -0.321,0.887" style="fill:#fcf2fc;fill-rule:nonzero;"/><path d="M56.049,123.842c-0.054,-0.007 -0.162,-0.367 -0.028,-1.005c0.07,-0.307 0.298,-0.727 0.752,-0.919c0.219,-0.097 0.52,-0.134 0.795,-0.006c0.273,0.124 0.444,0.368 0.562,0.572c0.231,0.436 0.387,0.699 0.7,0.809c0.297,0.118 0.598,0.077 0.814,-0.046c0.451,-0.258 0.528,-0.656 0.603,-0.634c0.058,-0.021 0.15,0.478 -0.397,0.939c-0.265,0.22 -0.728,0.343 -1.177,0.194c-0.224,-0.07 -0.448,-0.206 -0.618,-0.408c-0.166,-0.196 -0.268,-0.411 -0.375,-0.592c-0.349,-0.802 -1.163,-0.279 -1.31,0.209c-0.197,0.505 -0.237,0.9 -0.321,0.887" style="fill:#fcf2fc;fill-rule:nonzero;"/><path d="M51.246,158.339c-0.028,0.048 -0.4,0.004 -0.934,-0.37c-0.255,-0.187 -0.551,-0.561 -0.547,-1.054c-0.003,-0.24 0.082,-0.531 0.308,-0.733c0.222,-0.201 0.513,-0.264 0.747,-0.291c0.492,-0.039 0.795,-0.079 1.021,-0.323c0.225,-0.227 0.306,-0.52 0.279,-0.767c-0.06,-0.516 -0.395,-0.743 -0.345,-0.804c0.004,-0.061 0.498,0.051 0.706,0.736c0.097,0.33 0.028,0.803 -0.286,1.159c-0.153,0.176 -0.367,0.329 -0.619,0.406c-0.247,0.074 -0.484,0.083 -0.692,0.11c-0.875,0.004 -0.716,0.958 -0.326,1.286c0.386,0.38 0.733,0.573 0.688,0.645" style="fill:#fcf2fc;fill-rule:nonzero;"/><path d="M33.806,128.441c0.047,-0.026 0.348,0.198 0.622,0.789c0.127,0.29 0.194,0.762 -0.056,1.187c-0.117,0.209 -0.337,0.418 -0.634,0.479c-0.293,0.063 -0.576,-0.029 -0.792,-0.123c-0.446,-0.213 -0.728,-0.33 -1.045,-0.232c-0.309,0.083 -0.526,0.295 -0.626,0.522c-0.208,0.476 -0.032,0.841 -0.106,0.869c-0.034,0.051 -0.405,-0.295 -0.241,-0.991c0.082,-0.334 0.379,-0.709 0.829,-0.858c0.221,-0.077 0.482,-0.102 0.739,-0.041c0.25,0.058 0.46,0.17 0.654,0.252c0.759,0.435 1.1,-0.47 0.927,-0.95c-0.143,-0.522 -0.347,-0.863 -0.271,-0.903" style="fill:#fcf2fc;fill-rule:nonzero;"/><path d="M50.639,125.428c0.048,-0.027 0.348,0.197 0.622,0.789c0.127,0.29 0.195,0.762 -0.055,1.187c-0.118,0.208 -0.338,0.418 -0.635,0.478c-0.293,0.064 -0.576,-0.029 -0.792,-0.122c-0.445,-0.213 -0.727,-0.331 -1.045,-0.233c-0.308,0.083 -0.526,0.296 -0.626,0.523c-0.207,0.476 -0.032,0.841 -0.105,0.869c-0.035,0.051 -0.406,-0.295 -0.242,-0.991c0.082,-0.334 0.38,-0.709 0.829,-0.858c0.221,-0.078 0.483,-0.102 0.739,-0.041c0.251,0.058 0.461,0.17 0.654,0.252c0.76,0.435 1.1,-0.47 0.927,-0.951c-0.143,-0.522 -0.347,-0.862 -0.271,-0.902" style="fill:#fcf2fc;fill-rule:nonzero;"/><path d="M40.262,143.142c-0.036,-0.004 -0.03,-0.37 0.011,-1.03c0.041,-0.659 0.117,-1.613 0.222,-2.788c0.209,-2.351 0.539,-5.6 0.926,-9.175c0.088,-0.888 0.133,-1.752 0.011,-2.558c-0.113,-0.807 -0.426,-1.532 -0.881,-2.121c-0.918,-1.189 -2.221,-1.807 -3.329,-2.072c-1.123,-0.27 -2.08,-0.257 -2.732,-0.238c-0.655,0.023 -1.019,0.063 -1.025,0.023c-0.006,-0.03 0.347,-0.139 1.008,-0.226c0.659,-0.08 1.639,-0.154 2.83,0.081c1.173,0.233 2.595,0.848 3.626,2.137c0.513,0.637 0.879,1.461 1.008,2.338c0.139,0.877 0.091,1.784 0.002,2.687c-0.388,3.587 -0.775,6.821 -1.078,9.164c-0.152,1.171 -0.284,2.117 -0.387,2.77c-0.102,0.654 -0.176,1.012 -0.212,1.008" style="fill:#241352;fill-rule:nonzero;"/><path d="M40.929,142.325c0.015,0.144 -3.402,0.622 -7.633,1.07c-4.231,0.449 -7.673,0.695 -7.688,0.552c-0.015,-0.143 3.402,-0.622 7.634,-1.069c4.229,-0.449 7.672,-0.696 7.687,-0.553" style="fill:#241352;fill-rule:nonzero;"/><path d="M77.507,148.382c0.129,-0.857 0.104,-1.674 0.585,-2.429c0.956,-1.506 2.314,-1.128 3.63,-0.465c1.34,0.675 2.601,1.08 4.057,0.449c2.276,-0.985 3.343,-4.416 1.172,-6.03c-0.703,-0.523 -1.395,0.34 -1.3,1c0.13,0.924 0.588,1.94 -0.202,2.733c-1.057,1.06 -2.297,0.17 -3.352,-0.306c-1.14,-0.514 -2.352,-0.628 -3.527,-0.152c-2.025,0.818 -3.492,3.563 -1.885,5.417c0.226,0.262 0.768,0.144 0.822,-0.217" style="fill:#7e2e84;fill-rule:nonzero;"/><path d="M92.985,115.821c-1.571,1.509 -2.168,3.857 -0.67,5.67c1.411,1.707 4.142,2.069 5.903,0.709c4.255,-3.284 -0.179,-9.343 -4.771,-8.089c-0.85,0.232 -0.638,1.443 0.202,1.491c1.343,0.077 2.779,0.128 3.852,1.069c1.152,1.01 1.177,2.72 0.232,3.881c-2.503,3.078 -6.849,-1.453 -4.221,-4.205c0.332,-0.346 -0.18,-0.859 -0.527,-0.526" style="fill:#ff7081;fill-rule:nonzero;"/><path d="M26.856,112.822c-1.571,1.509 -2.169,3.857 -0.67,5.67c1.411,1.707 4.141,2.069 5.903,0.708c4.255,-3.283 -0.18,-9.343 -4.771,-8.088c-0.85,0.232 -0.638,1.443 0.202,1.491c1.342,0.077 2.779,0.128 3.852,1.069c1.151,1.01 1.176,2.719 0.232,3.881c-2.503,3.078 -6.85,-1.454 -4.221,-4.205c0.331,-0.346 -0.18,-0.859 -0.527,-0.526" style="fill:#7cabff;fill-rule:nonzero;"/><path d="M4.057,150.719c1.083,4.017 2.273,7.987 3.511,11.959c0.298,0.955 1.202,1.255 2.023,0.697c3.228,-2.192 6.457,-4.348 9.515,-6.776c0.588,-0.468 0.459,-1.409 -0.122,-1.808c-3.58,-2.458 -8.417,-6.085 -12.96,-6.111c-1.155,-0.006 -1.963,1.62 -0.791,2.296c1.833,1.057 4.031,1.434 5.989,2.249c2.261,0.939 4.498,2.042 6.494,3.467c0.045,-0.66 0.09,-1.318 0.134,-1.977c-3.417,2.104 -6.636,4.463 -9.886,6.815l1.919,0.383c-1.386,-3.923 -2.809,-7.817 -4.347,-11.682c-0.324,-0.817 -1.709,-0.369 -1.479,0.488" style="fill:#ff7081;fill-rule:nonzero;"/><path d="M97.778,133.838c2.805,0.394 5.763,0.668 8.596,0.565c1.04,-0.038 1.001,-1.486 0,-1.588c-2.765,-0.29 -5.685,-0.227 -8.454,-0.026c-0.556,0.04 -0.778,0.96 -0.142,1.049" style="fill:#fbc580;fill-rule:nonzero;"/><path d="M3.119,133.838c2.806,0.394 5.764,0.668 8.596,0.565c1.041,-0.038 1.002,-1.485 0,-1.588c-2.764,-0.289 -5.684,-0.227 -8.454,-0.026c-0.556,0.04 -0.777,0.96 -0.142,1.049" style="fill:#fbc580;fill-rule:nonzero;"/><path d="M21.92,129.237c-0.048,-0.042 -0.096,-0.085 -0.144,-0.127c-0.633,-0.56 -1.672,-0.671 -2.287,0c-0.623,0.678 -0.6,1.608 0,2.287l0.127,0.144c0.567,0.639 1.734,0.621 2.304,0c0.567,-0.618 0.681,-1.701 0,-2.304" style="fill:#241352;fill-rule:nonzero;"/><path d="M62.137,142.481c-0.129,-0.007 -0.248,-2.47 -0.501,-5.523c-0.254,-3.058 -0.14,-5.569 0.019,-5.561c0.129,0.007 0.247,2.469 0.501,5.523c0.253,3.057 0.14,5.569 -0.019,5.561" style="fill:#241352;fill-rule:nonzero;"/><path d="M78.25,119.301l7.428,-2.084l0.439,1.346l-7.493,2.319l-0.374,-1.581Z" style="fill:#241352;fill-rule:nonzero;"/><path d="M82.989,118.99c0,0.509 -0.412,0.921 -0.921,0.921c-0.509,0 -0.921,-0.412 -0.921,-0.921c0,-0.509 0.412,-0.922 0.921,-0.922c0.509,0 0.921,0.413 0.921,0.922" style="fill:#e6e2eb;fill-rule:nonzero;"/><path d="M52.925,98.635c-0.119,0.073 -0.362,-0.055 -0.598,-0.316c-0.234,-0.258 -0.335,-0.582 -0.207,-0.661c0.118,-0.073 0.362,0.055 0.598,0.316c0.233,0.258 0.334,0.582 0.207,0.661" style="fill:#241352;fill-rule:nonzero;"/><path d="M46.165,99.585c-0.119,0.073 -0.362,-0.055 -0.598,-0.316c-0.234,-0.258 -0.335,-0.582 -0.208,-0.661c0.119,-0.073 0.363,0.055 0.599,0.316c0.233,0.258 0.334,0.582 0.207,0.661" style="fill:#241352;fill-rule:nonzero;"/><path d="M39.133,68.589l0,14.804l-9.892,0l-0.315,5.616l-5.813,-5.94l-21.779,0l1.918,-15.572l35.881,1.092Z" style="fill:#fbc580;fill-rule:nonzero;"/><path d="M35.751,72.827c-9.725,-0.2 -19.516,-0.266 -29.241,-0.06c-0.186,0.004 -0.186,0.285 0,0.289c9.725,0.206 19.516,0.139 29.241,-0.06c0.109,-0.002 0.109,-0.167 0,-0.169" style="fill:#e6e2eb;fill-rule:nonzero;"/><path d="M35.751,75.67c-9.725,-0.199 -19.516,-0.266 -29.241,-0.06c-0.186,0.004 -0.186,0.285 0,0.289c9.725,0.206 19.516,0.14 29.241,-0.06c0.109,-0.002 0.109,-0.167 0,-0.169" style="fill:#e6e2eb;fill-rule:nonzero;"/><path d="M35.751,78.666c-5.958,-0.191 -12.013,-0.244 -17.971,-0.06c-0.186,0.006 -0.186,0.283 0,0.289c5.958,0.185 12.013,0.131 17.971,-0.06c0.109,-0.003 0.109,-0.166 0,-0.169" style="fill:#e6e2eb;fill-rule:nonzero;"/></g><g id="Designed-by-freepik" serif:id="Designed by freepik"></g></svg>