<?xml version="1.0" encoding="UTF-8" standalone="no"?><!DOCTYPE svg PUBLIC "-//W3C//DTD SVG 1.1//EN" "http://www.w3.org/Graphics/SVG/1.1/DTD/svg11.dtd"><svg width="100%" height="100%" viewBox="0 0 135 159" version="1.1" xmlns="http://www.w3.org/2000/svg" xmlns:xlink="http://www.w3.org/1999/xlink" xml:space="preserve" xmlns:serif="http://www.serif.com/" style="fill-rule:evenodd;clip-rule:evenodd;stroke-linejoin:round;stroke-miterlimit:2;"><g id="Background"></g><g id="Objects"><g><clipPath id="_clip1"><path d="M-460.757,-47.407c-10.499,0 -19.01,8.511 -19.01,19.01l0,306.714c0,10.499 8.511,19.01 19.01,19.01l139.259,0c10.498,0 19.009,-8.511 19.009,-19.01l0,-306.714c0,-10.499 -8.511,-19.01 -19.009,-19.01l-139.259,0Z" clip-rule="nonzero"/></clipPath><g clip-path="url(#_clip1)"></g></g><path d="M51.347,71.971c-1.571,1.509 -2.169,3.858 -0.67,5.67c1.41,1.707 4.141,2.069 5.903,0.708c4.254,-3.283 -0.18,-9.342 -4.771,-8.088c-0.85,0.232 -0.638,1.444 0.202,1.492c1.342,0.076 2.779,0.128 3.852,1.068c1.151,1.011 1.176,2.72 0.231,3.882c-2.502,3.077 -6.849,-1.454 -4.22,-4.205c0.331,-0.347 -0.18,-0.86 -0.527,-0.527" style="fill:#7cabff;fill-rule:nonzero;"/><path d="M95.166,77.168c0.576,2.139 1.211,4.255 1.87,6.37c0.158,0.509 0.64,0.668 1.077,0.371c1.72,-1.168 3.44,-2.316 5.069,-3.609c0.313,-0.249 0.244,-0.75 -0.066,-0.963c-1.907,-1.309 -4.482,-3.241 -6.902,-3.254c-0.616,-0.004 -1.046,0.862 -0.422,1.222c0.977,0.563 2.146,0.764 3.19,1.198c1.205,0.5 2.396,1.088 3.459,1.847c0.024,-0.351 0.047,-0.703 0.072,-1.054c-1.821,1.122 -3.535,2.378 -5.266,3.63c0.341,0.068 0.681,0.137 1.022,0.205c-0.739,-2.089 -1.497,-4.164 -2.316,-6.223c-0.173,-0.434 -0.91,-0.196 -0.787,0.26" style="fill:#ff7081;fill-rule:nonzero;"/><path d="M107.237,88.499c2.555,-1.224 5.171,-2.631 7.474,-4.283c0.846,-0.607 0.013,-1.791 -0.879,-1.324c-2.462,1.289 -4.861,2.955 -7.057,4.654c-0.441,0.341 -0.117,1.23 0.462,0.953" style="fill:#fbc580;fill-rule:nonzero;"/><path d="M13.086,96.31c-0.534,-2.782 -1.23,-5.67 -2.243,-8.317c-0.372,-0.973 -1.729,-0.468 -1.504,0.513c0.621,2.709 1.623,5.453 2.708,8.009c0.218,0.513 1.16,0.425 1.039,-0.205" style="fill:#ff957e;fill-rule:nonzero;"/><path d="M21.131,71.678c-0.048,-0.042 -0.097,-0.085 -0.145,-0.127c-0.632,-0.561 -1.67,-0.671 -2.287,0c-0.622,0.678 -0.599,1.609 0,2.287c0.043,0.048 0.085,0.095 0.128,0.144c0.567,0.64 1.734,0.621 2.304,0c0.566,-0.618 0.681,-1.701 0,-2.304" style="fill:#241352;fill-rule:nonzero;"/><path d="M89.255,143.395c0,0 -26.863,6.249 -37.654,-4.542l3.861,-25.774c1.174,-7.409 0.474,-21.663 6.147,-26.72c1.099,-0.979 2.155,-1.466 2.155,-1.466c3.98,-1.922 11.061,-2.959 17.859,-2.986c8.259,-0.032 16.759,6.213 18.928,14.182l-8.939,20.909l-2.357,26.397Z" style="fill:#ff7081;fill-rule:nonzero;"/><path d="M86.599,99.3c0,0 12.034,23.18 6.059,24.414c-19.657,4.061 -31.067,7.391 -31.067,7.391l-1.002,7.633c0.294,1.154 39.77,0.156 44.445,-5.147c3.301,-3.745 7.69,-12.399 -1.647,-31.13l-2.836,-6.372l-13.952,3.211Z" style="fill:#ffafa7;fill-rule:nonzero;"/><path d="M64,87.36l-29.973,11.604l-0.938,-15.724l-6.417,-2.482c0,0 -9.305,25.239 2.332,29.938c11.637,4.7 24.749,-3.984 24.749,-3.984l10.247,-19.352Z" style="fill:#ffafa7;fill-rule:nonzero;"/><path d="M67.708,83.507c-10.462,3.333 -16.701,7.239 -31.429,13.382l7.563,16.865l13.036,-4.185l10.83,-26.062Z" style="fill:#ff7081;fill-rule:nonzero;"/><path d="M84.796,96.089l7.603,17.665l17.146,-3.131l-11.552,-19.894l-13.676,5.36" style="fill:#ff7081;fill-rule:nonzero;"/><path d="M75.825,108.131c3.652,-0.203 7.258,-0.045 10.907,0.004c0.319,0.004 0.3,-0.447 0,-0.483c-3.595,-0.43 -7.308,-0.258 -10.907,0.051c-0.271,0.024 -0.278,0.444 0,0.428" style="fill:#002c68;fill-rule:nonzero;"/><path d="M92.182,87.644c-12.338,1.114 -3.899,19.305 -0.737,24.812c0.175,0.307 0.649,0.032 0.474,-0.277c-3.142,-5.564 -11.552,-22.492 0.304,-24.234c0.169,-0.025 0.131,-0.317 -0.041,-0.301" style="fill:#002c68;fill-rule:nonzero;"/><path d="M57.987,98.044c-1.519,6.058 -2.538,12.358 -2.915,18.596c-0.016,0.258 0.421,0.323 0.458,0.062c0.883,-6.202 1.77,-12.387 2.765,-18.574c0.032,-0.197 -0.256,-0.288 -0.308,-0.084" style="fill:#002c68;fill-rule:nonzero;"/><path d="M86.865,64.441c0.188,-2.605 0.377,-5.21 0.566,-7.815c2.047,-0.576 3.112,-3.196 2.294,-5.16c-0.816,-1.964 -3.137,-3.067 -5.243,-2.766c1.329,-0.905 1.227,-3.066 0.136,-4.247c-1.09,-1.181 -2.8,-1.564 -4.406,-1.626c-1.607,-0.062 -3.234,0.133 -4.814,-0.16c-1.4,-0.261 -2.772,-0.902 -4.185,-0.724c-1.413,0.179 -2.765,1.769 -2.003,2.972c-2.038,-0.299 -4.243,-0.571 -6.054,0.412c-1.811,0.983 -2.72,3.78 -1.163,5.13c-1.028,0.524 -1.286,2.012 -0.708,3.011c0.578,0.998 1.762,1.523 2.913,1.606c1.15,0.082 2.292,-0.209 3.409,-0.498" style="fill:#241352;fill-rule:nonzero;"/><path d="M86.532,59.375l-0.411,5.415c0,0 4.604,0.621 3.292,4.82c-1.313,4.199 -4.462,2.362 -4.462,2.362c0,0 -0.787,10.761 -11.811,7.349c-8.773,-2.716 -8.236,-14.076 -7.123,-23.761c0.432,-3.752 3.981,-6.332 7.688,-5.61l6.627,1.291c3.831,0.746 6.496,4.243 6.2,8.134" style="fill:#ffafa7;fill-rule:nonzero;"/><path d="M86.121,69.284l-2.97,15.839c-0.669,3.568 -4.187,5.851 -7.718,5.009c-3.274,-0.782 -5.37,-3.978 -4.782,-7.291l1.613,-9.078l13.857,-4.479Z" style="fill:#ffafa7;fill-rule:nonzero;"/><path d="M73.929,69.463c0.017,-0.006 0.05,0.222 -0.274,0.38c-0.338,0.15 -0.878,-0.177 -1.018,-0.714c-0.18,-0.517 -0.152,-1.143 -0.124,-1.786c0.036,-0.684 0.073,-1.381 0.112,-2.113c0.188,-2.997 0.456,-5.419 0.6,-5.411c0.143,0.01 0.107,2.446 -0.08,5.444c-0.053,0.73 -0.104,1.428 -0.153,2.111c-0.057,0.649 -0.11,1.215 -0.002,1.651c0.08,0.44 0.401,0.656 0.611,0.623c0.213,-0.036 0.291,-0.213 0.328,-0.185" style="fill:#241352;fill-rule:nonzero;"/><path d="M70.353,78.216c0.049,-0.066 0.566,0.293 1.477,0.698c0.904,0.407 2.233,0.823 3.74,0.854c1.507,0.032 2.852,-0.327 3.773,-0.696c0.926,-0.366 1.459,-0.703 1.505,-0.635c0.037,0.049 -0.428,0.501 -1.354,0.972c-0.918,0.471 -2.332,0.914 -3.936,0.88c-1.601,-0.033 -2.996,-0.536 -3.893,-1.045c-0.907,-0.51 -1.352,-0.981 -1.312,-1.028" style="fill:#241352;fill-rule:nonzero;"/><path d="M72.506,71.685c0.061,-0.053 0.304,0.182 0.767,0.387c0.452,0.208 1.168,0.361 1.875,0.136c0.705,-0.23 1.198,-0.771 1.444,-1.203c0.257,-0.437 0.317,-0.769 0.397,-0.761c0.062,-0.001 0.139,0.366 -0.064,0.918c-0.191,0.538 -0.731,1.251 -1.618,1.542c-0.891,0.281 -1.744,0.016 -2.214,-0.31c-0.485,-0.331 -0.638,-0.674 -0.587,-0.709" style="fill:#241352;fill-rule:nonzero;"/><path d="M86.468,70.136c-0.007,-0.079 0.268,-0.118 0.574,-0.306c0.151,-0.097 0.284,-0.235 0.331,-0.428c0.049,-0.197 -0.007,-0.38 -0.16,-0.429c-0.126,-0.049 -0.246,-0.008 -0.274,0.039l-0.442,-0.23c0.415,-0.857 0.786,-1.449 0.894,-1.401c0.107,0.048 -0.081,0.72 -0.438,1.603l-0.442,-0.23c0.186,-0.316 0.594,-0.388 0.888,-0.268c0.215,0.071 0.405,0.287 0.456,0.49c0.062,0.209 0.035,0.41 -0.026,0.576c-0.122,0.339 -0.409,0.538 -0.63,0.611c-0.462,0.146 -0.732,0.032 -0.731,-0.027" style="fill:#241352;fill-rule:nonzero;"/><path d="M77.98,59.463c-0.056,-0.129 0.52,-0.432 1.246,-0.239c0.728,0.189 1.08,0.735 0.968,0.821c-0.107,0.102 -0.529,-0.175 -1.1,-0.317c-0.567,-0.157 -1.071,-0.123 -1.114,-0.265" style="fill:#241352;fill-rule:nonzero;"/><path d="M68.45,57.953c-0.066,-0.123 0.506,-0.5 1.306,-0.427c0.8,0.067 1.298,0.537 1.213,0.647c-0.081,0.125 -0.602,-0.078 -1.258,-0.128c-0.656,-0.065 -1.204,0.045 -1.261,-0.092" style="fill:#241352;fill-rule:nonzero;"/><path d="M86.121,64.79c-3.077,-3 -3.98,-7.998 -4.816,-12.212c-2.849,2.075 -6.769,2.585 -10.054,1.309c-1.031,1.212 -2.243,2.27 -3.582,3.129c-0.381,0.244 -0.832,0.482 -1.266,0.351c-0.515,-0.156 -0.746,-0.748 -0.869,-1.273c-0.392,-1.681 -0.407,-3.481 0.18,-5.104c0.586,-1.624 1.815,-3.05 3.425,-3.673c1.721,-0.667 3.657,-0.377 5.444,0.086c2.691,0.698 5.285,1.77 7.684,3.175c2.354,1.379 4.616,3.204 5.615,5.744c0.999,2.539 0.994,7.473 -1.414,8.757" style="fill:#241352;fill-rule:nonzero;"/><path d="M78.812,63.872c-0.144,-0.01 -0.233,-0.391 -0.2,-0.85c0.032,-0.459 0.176,-0.822 0.319,-0.812c0.143,0.01 0.233,0.391 0.2,0.85c-0.033,0.458 -0.175,0.822 -0.319,0.812" style="fill:#241352;fill-rule:nonzero;"/><path d="M69.96,62.743c-0.144,-0.01 -0.233,-0.391 -0.2,-0.85c0.032,-0.459 0.176,-0.822 0.319,-0.812c0.143,0.01 0.233,0.391 0.2,0.85c-0.033,0.458 -0.175,0.822 -0.319,0.812" style="fill:#241352;fill-rule:nonzero;"/><path d="M26.347,81.283c0,0 1.331,-8.175 2.922,-8.087c1.591,0.088 4.772,0 4.772,0c0,0 0.265,-7.776 1.149,-6.539c0.884,1.237 1.162,11.699 -2.247,16.718l-6.596,-2.092Z" style="fill:#ffafa7;fill-rule:nonzero;"/><path d="M61.591,131.105c0,0 -14.262,2.496 -13.983,4.347c0.278,1.85 1.281,3.716 1.281,3.716l12.702,-0.299l0,-7.764Z" style="fill:#ffafa7;fill-rule:nonzero;"/><path d="M77.071,139.617l-0.109,-1.975l-29.375,-1.796l-9.852,-26.352l-32.242,1.772l11,28.497l60.578,-0.146Z" style="fill:#193ff9;fill-rule:nonzero;"/><g opacity="0.41"><path d="M23.271,123.814c0.072,1.318 1.199,2.328 2.518,2.256c1.318,-0.073 2.328,-1.2 2.255,-2.519c-0.073,-1.318 -1.2,-2.328 -2.518,-2.255c-1.318,0.073 -2.327,1.2 -2.255,2.518" style="fill:#fff;fill-rule:nonzero;"/></g><g opacity="0.41"><path d="M22.315,123.867c0.101,1.846 1.68,3.26 3.525,3.158c1.846,-0.101 3.26,-1.68 3.159,-3.526c-0.102,-1.846 -1.68,-3.26 -3.526,-3.158c-1.846,0.101 -3.26,1.68 -3.158,3.526" style="fill:#fff;fill-rule:nonzero;"/></g><path d="M0.708,140.201l126.094,-1.574l7.385,3.878c0,0 -96.799,26.568 -133.479,-2.304" style="fill:#00c6f6;fill-rule:nonzero;"/><path d="M99.341,46.925c-0.381,0.741 0.867,19.884 0.867,19.884l9.427,-0.783l-1.1,5.054l4.606,-5.195l9.223,-1.065l-0.56,-18.556l-22.463,0.661Z" style="fill:#e2d3f5;fill-rule:nonzero;"/><path d="M75.396,17.101c0,0 -6.496,0.325 -6.712,7.254c0,0 0.108,3.789 2.165,5.196c2.057,1.407 1.948,2.924 1.948,2.924l5.413,0c0,0 -0.215,-1.949 0.651,-3.032c0.866,-1.083 3.031,-3.356 2.706,-6.712c-0.324,-3.357 -2.815,-5.955 -6.171,-5.63" style="fill:#ffbc7a;fill-rule:nonzero;"/><path d="M72.693,34.174c1.943,-0.09 3.909,0.123 5.84,0.011c0.278,-0.017 0.373,-0.45 0.069,-0.513c-1.876,-0.388 -4.021,-0.173 -5.909,0.039c-0.289,0.032 -0.304,0.477 0,0.463" style="fill:#6f35a5;fill-rule:nonzero;"/><path d="M73.449,35.872c0.775,-0.045 1.553,-0.077 2.329,-0.069c0.773,0.008 1.564,0.136 2.33,0.08c0.282,-0.021 0.369,-0.435 0.07,-0.513c-1.484,-0.388 -3.291,-0.164 -4.791,0.047c-0.257,0.037 -0.197,0.47 0.062,0.455" style="fill:#6f35a5;fill-rule:nonzero;"/><path d="M74.087,37.13c0.679,0.047 1.38,0.239 2.056,0.225c0.336,-0.008 0.397,-0.48 0.078,-0.58c-0.657,-0.207 -1.453,-0.135 -2.134,-0.108c-0.3,0.012 -0.296,0.442 0,0.463" style="fill:#6f35a5;fill-rule:nonzero;"/><path d="M74.395,32.399c0.15,-1.926 -0.499,-4.057 -0.827,-5.947c-0.189,0.08 -0.377,0.159 -0.566,0.239c0.273,0.447 0.724,1.737 1.419,1.691c0.718,-0.048 0.985,-1.329 1.086,-1.851l-0.62,0c0.139,0.595 0.157,2.03 1.091,1.894c0.79,-0.115 1.324,-1.289 1.566,-1.933c-0.214,-0.059 -0.429,-0.118 -0.644,-0.177c-0.478,1.884 -0.707,4.269 -0.229,6.167c0.086,0.342 0.628,0.274 0.618,-0.083c-0.058,-1.996 -0.338,-3.95 0.255,-5.907c0.127,-0.42 -0.491,-0.569 -0.644,-0.177c-0.087,0.222 -0.599,1.486 -1.082,1.323c-0.122,-0.041 -0.284,-1.168 -0.311,-1.277c-0.072,-0.295 -0.562,-0.318 -0.62,0c-0.07,0.387 -0.23,1.441 -0.687,1.126c-0.264,-0.182 -0.497,-0.831 -0.663,-1.109c-0.192,-0.319 -0.619,-0.093 -0.566,0.239c0.299,1.89 0.38,4.092 1.14,5.86c0.065,0.152 0.274,0.056 0.284,-0.078" style="fill:#6f35a5;fill-rule:nonzero;"/><path d="M55.271,29.993c2.888,-0.919 5.867,-1.711 8.687,-2.823c0.224,-0.089 0.143,-0.431 -0.103,-0.37c-2.939,0.73 -5.824,1.818 -8.707,2.746c-0.283,0.091 -0.163,0.538 0.123,0.447" style="fill:#ffbc7a;fill-rule:nonzero;"/><path d="M58.821,21.4c1.817,-0.037 3.709,0.067 5.514,-0.164c0.302,-0.039 0.316,-0.459 0,-0.482c-1.814,-0.137 -3.697,0.067 -5.514,0.125c-0.334,0.011 -0.336,0.528 0,0.521" style="fill:#ffbc7a;fill-rule:nonzero;"/><path d="M67.548,18.241c-2.045,-1.785 -3.998,-4.01 -6.329,-5.421c-0.368,-0.223 -0.71,0.272 -0.443,0.574c1.788,2.028 4.296,3.533 6.401,5.218c0.258,0.207 0.629,-0.145 0.371,-0.371" style="fill:#ffbc7a;fill-rule:nonzero;"/><path d="M72.156,15.501c0.02,-0.576 -0.423,-1.124 -0.703,-1.602c-0.329,-0.565 -0.614,-1.218 -1.069,-1.69c-0.231,-0.24 -0.699,0.005 -0.58,0.337c0.22,0.618 0.673,1.166 1.032,1.714c0.305,0.466 0.597,1.114 1.123,1.354c0.09,0.042 0.193,-0.007 0.197,-0.113" style="fill:#ffbc7a;fill-rule:nonzero;"/><path d="M76.475,14.338c0.091,-2.756 0.191,-5.675 -0.13,-8.415c-0.048,-0.409 -0.614,-0.423 -0.646,0c-0.21,2.752 0.01,5.664 0.214,8.415c0.026,0.358 0.549,0.365 0.562,0" style="fill:#ffbc7a;fill-rule:nonzero;"/><path d="M79.7,15.662c0.694,-1.019 1.419,-2.039 1.947,-3.157c0.188,-0.397 -0.334,-0.701 -0.587,-0.343c-0.714,1.01 -1.246,2.142 -1.793,3.247c-0.143,0.29 0.251,0.521 0.433,0.253" style="fill:#ffbc7a;fill-rule:nonzero;"/><path d="M82.196,17.965c1.371,-0.575 2.661,-1.325 3.965,-2.037c1.287,-0.702 2.728,-1.313 3.848,-2.265c0.231,-0.197 -0.015,-0.596 -0.293,-0.506c-1.313,0.428 -2.5,1.27 -3.694,1.954c-1.351,0.775 -2.742,1.51 -4.009,2.421c-0.197,0.143 -0.085,0.545 0.183,0.433" style="fill:#ffbc7a;fill-rule:nonzero;"/><path d="M83.998,21.552c1.007,0.366 2.762,0.09 3.545,-0.662c0.276,-0.264 -0.018,-0.653 -0.347,-0.595c-0.54,0.095 -1.039,0.381 -1.578,0.507c-0.536,0.125 -1.086,0.119 -1.62,0.234c-0.278,0.061 -0.229,0.433 0,0.516" style="fill:#ffbc7a;fill-rule:nonzero;"/><path d="M84.415,26.557c3.885,0.971 7.894,2.081 11.866,2.59c0.483,0.062 0.549,-0.694 0.112,-0.824c-3.806,-1.132 -7.893,-1.719 -11.804,-2.394c-0.405,-0.07 -0.587,0.524 -0.174,0.628" style="fill:#ffbc7a;fill-rule:nonzero;"/><path d="M29.381,94.393c0.129,-0.857 0.104,-1.673 0.585,-2.429c0.956,-1.506 2.314,-1.127 3.63,-0.465c1.34,0.675 2.601,1.079 4.057,0.449c2.276,-0.985 3.343,-4.416 1.172,-6.03c-0.703,-0.523 -1.395,0.34 -1.3,1c0.13,0.924 0.588,1.939 -0.203,2.733c-1.056,1.061 -2.296,0.17 -3.351,-0.306c-1.14,-0.514 -2.352,-0.627 -3.527,-0.152c-2.025,0.819 -3.493,3.564 -1.885,5.417c0.226,0.262 0.768,0.144 0.822,-0.217" style="fill:#7e2e84;fill-rule:nonzero;"/><path d="M59.272,96.052c2.733,-0.745 5.56,-1.66 8.121,-2.872c0.942,-0.445 0.335,-1.759 -0.626,-1.46c-2.654,0.826 -5.313,2.034 -7.779,3.311c-0.494,0.256 -0.335,1.189 0.284,1.021" style="fill:#fbc580;fill-rule:nonzero;"/><path d="M45.71,98.897c0.576,2.14 1.211,4.255 1.87,6.37c0.158,0.509 0.64,0.668 1.077,0.371c1.72,-1.167 3.44,-2.316 5.068,-3.609c0.313,-0.249 0.245,-0.75 -0.065,-0.963c-1.907,-1.309 -4.483,-3.241 -6.903,-3.254c-0.615,-0.004 -1.045,0.862 -0.421,1.222c0.977,0.563 2.146,0.764 3.189,1.198c1.205,0.5 2.397,1.088 3.46,1.847l0.071,-1.054c-1.82,1.122 -3.534,2.378 -5.265,3.63c0.34,0.068 0.681,0.137 1.022,0.205c-0.739,-2.089 -1.497,-4.164 -2.316,-6.223c-0.173,-0.434 -0.91,-0.196 -0.787,0.26" style="fill:#f0e7f6;fill-rule:nonzero;"/><path d="M49.469,120.31c2.824,0.21 5.793,0.294 8.613,0.016c1.036,-0.103 0.909,-1.516 -0.096,-1.556c-2.778,-0.108 -5.688,0.135 -8.44,0.504c-0.552,0.074 -0.717,0.988 -0.077,1.036" style="fill:#7e2e84;fill-rule:nonzero;"/><path d="M104.499,55.49l1.981,6.89l2.774,-0.541l-0.271,-1.387l0.787,-0.473l1.487,1.47l4.698,-0.916l0.609,-1.797l-1.337,-0.299l1.726,-0.577l-0.375,-1.925l-1.493,0.131l2.05,-0.559l-0.466,-2.389l-4.775,0.931c0,0 0.308,-3.338 -1.102,-4.423l-1.078,0.211c0,0 0.364,1.048 0.33,1.694c-0.034,0.646 -0.973,3.627 -0.973,3.627l-1.466,0.686l-0.348,-0.972l-2.758,0.618Z" style="fill:#fff;fill-rule:nonzero;"/><path d="M7.337,42.591l1.599,19.085l35.145,0l1.946,6.715l2.051,-7.364l6.697,-0.389l-3.087,-17.094l-44.351,-0.953Z" style="fill:#e2d3f5;fill-rule:nonzero;"/><path d="M11.95,49.653c12.111,-0.507 24.171,-0.485 36.251,0.623c0.434,0.04 0.436,-0.647 0,-0.68c-12.06,-0.916 -24.171,-1.278 -36.251,-0.529c-0.373,0.023 -0.379,0.602 0,0.586" style="fill:#fff;fill-rule:nonzero;"/><path d="M12.656,53.42c12.111,-0.507 24.17,-0.485 36.251,0.623c0.434,0.04 0.436,-0.647 0,-0.68c-12.061,-0.916 -24.171,-1.278 -36.251,-0.529c-0.374,0.023 -0.379,0.602 0,0.586" style="fill:#fff;fill-rule:nonzero;"/><path d="M12.723,56.571c8.13,0.287 16.167,-0.316 24.291,0.412c0.433,0.039 0.437,-0.65 0,-0.68c-8.114,-0.555 -16.169,-0.209 -24.291,-0.318c-0.378,-0.005 -0.377,0.572 0,0.586" style="fill:#fff;fill-rule:nonzero;"/></g><g id="Designed-by-freepik" serif:id="Designed by freepik"></g></svg>