<svg width="110" height="84" viewBox="0 0 110 84" fill="none" xmlns="http://www.w3.org/2000/svg">
<g clip-path="url(#clip0)">
<path fill-rule="evenodd" clip-rule="evenodd" d="M24.66 71.8121L25.1274 72.1679L25.2649 72.3089L25.2197 72.235L25.0863 72.1139L24.9063 71.9859L24.8482 71.9229L24.764 71.8812L24.6086 71.7437L24.66 71.8121Z" fill="#4D4D4D"/>
<path fill-rule="evenodd" clip-rule="evenodd" d="M25.7284 74.4044L25.8174 74.453L25.8646 74.4591L26.0576 74.5344L26.1767 74.5378L26.0603 74.5104L26.0357 74.5187L25.9515 74.4776L25.8475 74.4509L25.7579 74.4023L25.7134 74.3291L25.7284 74.4044Z" fill="#4D4D4D"/>
<path fill-rule="evenodd" clip-rule="evenodd" d="M26.0361 82.7213L26.1204 82.6764L26.1093 82.6626L26.0361 82.7213Z" fill="#4D4D4D"/>
<path fill-rule="evenodd" clip-rule="evenodd" d="M25.7298 82.7906L25.5751 82.8371L25.3588 82.8453L25.339 82.8611L25.261 82.8686L25.584 82.8624L25.9118 82.766L25.8023 82.7324L25.7298 82.7906Z" fill="#4D4D4D"/>
<path fill-rule="evenodd" clip-rule="evenodd" d="M25.0958 82.8601L25.1145 82.8566L25.0378 82.8394L25.0958 82.8601Z" fill="#4D4D4D"/>
<path fill-rule="evenodd" clip-rule="evenodd" d="M24.9623 82.8363L24.9754 82.8259L24.896 82.79L24.9623 82.8363Z" fill="#4D4D4D"/>
<path fill-rule="evenodd" clip-rule="evenodd" d="M24.7799 82.7624L24.8032 82.7659L24.7813 82.7501L24.6772 82.7241L24.7799 82.7624Z" fill="#4D4D4D"/>
<path fill-rule="evenodd" clip-rule="evenodd" d="M24.3 82.5029L24.3151 82.5234L24.3459 82.4666L24.3295 82.3599L24.3 82.5029Z" fill="#4D4D4D"/>
<path fill-rule="evenodd" clip-rule="evenodd" d="M24.177 82.3952L24.1936 82.4035L24.1846 82.3345L24.177 82.3952Z" fill="#4D4D4D"/>
<path fill-rule="evenodd" clip-rule="evenodd" d="M24.0374 82.3641L24.1482 82.3853L24.051 82.3538L23.9888 82.3271L24.0374 82.3641Z" fill="#4D4D4D"/>
<path fill-rule="evenodd" clip-rule="evenodd" d="M23.8989 82.2776L23.9714 82.3183L23.9362 82.27L23.8989 82.2776Z" fill="#4D4D4D"/>
<path fill-rule="evenodd" clip-rule="evenodd" d="M23.7812 82.2194L23.8779 82.2636L23.813 82.2056L23.7812 82.2194Z" fill="#4D4D4D"/>
<path fill-rule="evenodd" clip-rule="evenodd" d="M25.2329 80.0049L25.2452 80.0494L25.3362 80.0856L25.2651 80.0336L25.2685 79.9112L25.2582 79.8975L25.2329 80.0049Z" fill="#4D4D4D"/>
<path fill-rule="evenodd" clip-rule="evenodd" d="M23.797 71.0424L23.8538 71.0623L23.7395 70.9795L23.797 71.0424Z" fill="#4D4D4D"/>
<path fill-rule="evenodd" clip-rule="evenodd" d="M23.8815 71.084L23.8994 71.0806L23.8533 71.062L23.8815 71.084Z" fill="#4D4D4D"/>
<path fill-rule="evenodd" clip-rule="evenodd" d="M23.3843 70.5767L23.4226 70.6554L23.4924 70.7197L23.4027 70.5732L23.3843 70.5767Z" fill="#4D4D4D"/>
<path fill-rule="evenodd" clip-rule="evenodd" d="M22.7041 70.2055L22.7814 70.252L22.8499 70.2308L22.7411 70.1973L22.7041 70.2055Z" fill="#4D4D4D"/>
<path fill-rule="evenodd" clip-rule="evenodd" d="M20.3857 69.1251L20.3898 69.2298L20.4343 69.303L20.4631 69.3126L20.5137 69.2401L20.5411 69.1217L20.4241 69.106L20.3857 69.1251Z" fill="#4D4D4D"/>
<path fill-rule="evenodd" clip-rule="evenodd" d="M20.1311 68.2521L20.1612 68.3479L20.1722 68.4472L20.2481 68.5067L20.3453 68.4951L20.3569 68.4964L20.3549 68.465L20.307 68.2754L20.1468 68.1748L20.1311 68.2521Z" fill="#4D4D4D"/>
<path fill-rule="evenodd" clip-rule="evenodd" d="M17.3755 65.7611L17.6862 65.8507L17.8066 65.8425L17.6923 65.8028L17.5397 65.7823L17.4426 65.7515L17.3755 65.7611Z" fill="#4D4D4D"/>
<path fill-rule="evenodd" clip-rule="evenodd" d="M15.0371 64.979L15.341 65.0741L15.5209 65.1597L15.6037 65.1152L15.6017 65.0844L15.4778 65.0741L15.3033 64.9954L15.1863 64.9803L15.1213 64.9229L15.0884 64.9058L15.0371 64.979Z" fill="#4D4D4D"/>
<path fill-rule="evenodd" clip-rule="evenodd" d="M14.8585 64.8818L14.7771 64.914L14.6806 64.9256L14.6655 64.9482L14.8804 64.9523L14.9831 64.9352L14.9728 64.8784L14.8585 64.8818Z" fill="#4D4D4D"/>
<path fill-rule="evenodd" clip-rule="evenodd" d="M14.2776 64.9509L14.1708 64.9489L13.9388 64.992L13.7643 65.0543L13.6384 65.1542L13.9012 65.0543L14.0798 65.0105L14.3953 64.9667L14.4678 64.9092L14.2776 64.9509Z" fill="#4D4D4D"/>
<path fill-rule="evenodd" clip-rule="evenodd" d="M13.0208 65.7526L12.9599 65.8121L12.9243 65.9052L12.7963 66.0722L12.667 66.1953L12.6218 66.2754L12.8059 66.0852L12.9195 65.9414L13.2186 65.5089L13.4362 65.2934L13.5813 65.1777L13.4122 65.29L13.3568 65.3557L13.2124 65.4597L13.1775 65.5527L13.0995 65.6034L13.0208 65.7526Z" fill="#4D4D4D"/>
<path fill-rule="evenodd" clip-rule="evenodd" d="M7.49624 39.2425L7.38264 39.3869L7.36279 39.5005L7.42028 39.5635L7.48118 39.363L7.52224 39.2761L7.56399 39.1782L7.49624 39.2425Z" fill="#4D4D4D"/>
<path fill-rule="evenodd" clip-rule="evenodd" d="M8.08877 39.0331L8.00049 39.2111L8.06892 39.3308L8.12161 39.246L8.13667 39.1255L8.13393 39.0085L8.11546 38.9141L8.08877 39.0331Z" fill="#4D4D4D"/>
<path fill-rule="evenodd" clip-rule="evenodd" d="M7.35669 38.1279L7.40117 38.2005L7.42649 38.0944L7.3868 38.0273L7.35669 38.1279Z" fill="#4D4D4D"/>
<path fill-rule="evenodd" clip-rule="evenodd" d="M8.19713 37.2647L8.13623 37.3242L8.16634 37.42L8.26694 37.5685L8.36411 37.6L8.30595 37.537L8.26557 37.3413L8.26078 37.2373L8.19713 37.2647Z" fill="#4D4D4D"/>
<path fill-rule="evenodd" clip-rule="evenodd" d="M7.92871 37.0337L7.96019 37.1172L8.02931 37.1815L8.08063 37.1514L8.10322 37.0686L8.05874 36.9954L7.96909 36.9468L7.92871 37.0337Z" fill="#4D4D4D"/>
<path fill-rule="evenodd" clip-rule="evenodd" d="M24.7648 26.7655L24.7388 26.8723L24.6567 26.9168L24.5985 26.9948L24.578 27.1077L24.5452 27.1344L24.628 27.1878L24.6889 27.1289L24.719 27.0283L24.6683 26.9606L24.8189 26.8524L24.8463 26.7327L24.9434 26.7642L25.0194 26.8237L25.0653 26.7436L25.0564 26.7183L24.9469 26.6855L24.8114 26.6738L24.7648 26.7655Z" fill="#4D4D4D"/>
<path fill-rule="evenodd" clip-rule="evenodd" d="M25.2341 26.2955L25.2273 26.3982L25.3039 26.3599L25.2574 26.4399L25.3546 26.4283L25.3512 26.3113L25.3258 26.2764L25.2341 26.2955Z" fill="#4D4D4D"/>
<path fill-rule="evenodd" clip-rule="evenodd" d="M25.0357 26.1709L24.9954 26.2572L25.0392 26.3304L25.1227 26.2859L25.1534 26.186L25.1425 26.1299L25.0357 26.1709Z" fill="#4D4D4D"/>
<path fill-rule="evenodd" clip-rule="evenodd" d="M40.7913 53.5316L40.74 53.6041L40.8249 53.6459L40.9309 53.6479L41.0185 53.6657L41.1848 53.7615L41.2957 53.782L41.3826 53.7567L41.4996 53.7725L41.4859 53.7396L41.3901 53.6965L41.2122 53.6424L41.0322 53.5569L40.8379 53.4946L40.7913 53.5316Z" fill="#4D4D4D"/>
<path fill-rule="evenodd" clip-rule="evenodd" d="M40.5606 54.5607L40.4641 54.5716L40.4162 54.664L40.5148 54.781L40.5866 54.7358L40.5203 54.7879L40.4067 54.7913L40.3916 54.9117L40.6537 54.8666L40.8843 54.8789L40.9952 54.9001L41.078 54.8556L41.1492 54.9514L41.247 54.9829L41.2415 54.8775L41.1286 54.74L40.9644 54.6195L40.7762 54.5518L40.5606 54.5607Z" fill="#4D4D4D"/>
<path fill-rule="evenodd" clip-rule="evenodd" d="M39.3979 57.5107L39.2741 57.5011L39.196 57.551L39.0893 57.5497L38.9627 57.6065L38.9216 57.6927L38.96 57.7714L39.0619 57.7666L39.1481 57.7413L39.2145 57.6886L39.3528 57.6763L39.4089 57.6106L39.5936 57.5613L39.5984 57.5257L39.4944 57.499L39.3979 57.5107Z" fill="#4D4D4D"/>
<path fill-rule="evenodd" clip-rule="evenodd" d="M40.9075 58.1591L40.835 58.2173L40.9109 58.2755L41.0396 58.1516L41.0649 58.1434L40.9841 58.1201L40.9075 58.1591Z" fill="#4D4D4D"/>
<path fill-rule="evenodd" clip-rule="evenodd" d="M49.4233 68.4413L49.5403 68.4571L49.5533 68.4673C49.5082 68.4584 49.4623 68.4489 49.4233 68.4413ZM44.6316 70.0167L44.7178 69.9913L44.6316 70.0167ZM39.2801 55.6949L39.1925 55.5362L39.2801 55.6949L39.3513 55.7469L39.2801 55.6949ZM35.4246 55.5081L35.4136 55.5977C35.4184 55.5471 35.4225 55.4924 35.4198 55.4027L35.4246 55.5081ZM35.3698 55.7579L35.2726 55.8599C35.3226 55.8078 35.3561 55.7688 35.3801 55.7243L35.3698 55.7579ZM34.4343 57.4653L34.4159 57.4687L34.4337 57.4646L34.5322 57.3004L34.4343 57.4653ZM34.6088 49.6228C34.6684 49.5879 34.7033 49.5503 34.7265 49.5127L34.6814 49.5653C34.6403 49.5961 34.602 49.6331 34.5644 49.67L34.6088 49.6228ZM34.7594 49.4271L34.7375 49.499L34.73 49.5079C34.7457 49.4812 34.7519 49.4545 34.7594 49.4271ZM23.3475 31.1664V31.1657L23.4433 31.2095L23.3475 31.1664ZM22.7589 30.3527L22.6234 30.2432L22.7582 30.3527L22.8794 30.4848L22.7589 30.3527ZM21.8891 28.7856L21.8248 28.7281L21.7044 28.5953L21.8248 28.7281L21.8891 28.7856L21.9849 28.8287L21.8891 28.7856ZM53.7873 70.6989L53.6805 70.6969L53.6887 70.5819L53.868 70.5812L53.9029 70.3472L53.9057 70.3226L53.8838 70.2651L53.8427 70.2103L53.7421 70.2028L53.7456 70.081L53.788 69.9824L53.8605 69.925L53.8858 69.8175L53.9372 69.745L54.0248 69.7073L54.022 69.6341L53.9447 69.5869L53.8886 69.5123L53.879 69.4001L53.8215 69.3378L53.8722 69.2646L53.9365 69.2242L53.9721 69.1311L54.0384 69.0784L54.2041 68.8061L54.8809 67.7816L54.848 67.7098L54.8398 67.488L54.7926 67.2978L54.7563 67.2075L54.6619 67.152L54.5483 67.1555L54.4641 67.1137L54.345 67.1103L54.2677 67.0631L54.1507 67.0473L54.1089 66.9502L54.1076 66.8215L54.2157 66.6703L54.1712 66.597L54.1069 66.5396L52.9223 66.9577L52.6739 67.2314L52.5288 67.2485L52.2975 67.3772L52.2626 67.4703L52.123 67.5811L52.1031 67.6947L51.8965 67.7282L51.8691 67.8042L51.6433 67.7987L51.5461 67.8104L51.4633 67.8549L51.44 67.8514L51.3572 68.0362L51.3326 67.9472L51.3107 67.9322L51.234 67.9712L51.1779 68.0376L51.1006 67.9904L51.0828 67.8959L50.9754 67.8939L50.8515 67.8836L50.8207 67.8001L50.7167 67.7741L50.6503 67.8261L50.4861 67.9028L50.43 67.9685L50.4183 67.9671L49.2919 67.0699L49.0079 66.8605L48.4591 66.439L47.9807 66.0263L47.9301 65.9586L47.7501 65.873L47.2964 65.8313L46.764 65.8949L46.6832 65.9702L46.4622 65.9716L46.389 65.9866L46.2733 65.9586L46.0441 65.9346L45.9674 65.9736L45.9654 66.0831L45.9359 66.1283L45.9989 66.0571L46.0879 66.1057L45.9941 66.1912L46.1118 66.2501L46.0146 66.2617L45.9387 66.3L45.8607 66.2535L45.7731 66.4314L45.7313 66.4745L45.6861 66.5546L45.6184 66.6189L45.5164 66.6244L45.4603 66.5491L45.3248 66.5375L45.1921 66.5012L45.0887 66.5183L44.9765 66.5095L44.8862 66.4732L44.7842 66.478L44.763 66.4075L44.6494 66.2699L44.5091 66.1536L44.3223 66.0735L44.2573 65.832L44.0301 65.5569C43.8508 65.342 43.5825 65.2044 43.3368 65.097L43.2472 65.0491L43.241 65.0539L43.1459 65.1948L43.0877 65.2297L43.1733 65.4001L43.1521 65.4282L43.0802 65.4309L42.9947 65.6403L42.9214 65.6978L42.6977 65.68L42.5991 65.704L42.4924 65.7019L42.3398 65.6814L42.1139 65.6759L41.8443 65.6403L41.8039 65.6287L41.4405 65.5377L41.4549 65.5151L41.3311 65.5048L41.1114 65.4515L40.9868 65.3981L40.4373 65.1716L40.2313 65.1079L40.1273 65.0812L40.0151 65.0723L39.8529 65.0819L39.6318 65.0402L39.5046 64.9129L39.4669 64.8349L39.2883 64.7377L39.1911 64.7062L39.1083 64.6522L39.0043 64.6262L38.9667 64.5475L38.9448 64.4346L38.838 64.2915L38.7272 64.271L38.6827 64.1978L38.8004 64.2135L38.9085 64.3011L38.9284 64.1875L38.8113 64.1718L38.7682 64.0862L38.7703 63.9767L38.7135 63.859L38.6957 63.7646L38.6033 63.599L38.6142 63.5579L38.7888 63.495L39.0858 63.4546L39.2965 63.2992L39.378 63.2671L39.4259 63.2609L39.4444 63.2575L39.5655 63.2917L39.6722 63.2938L39.8125 63.1713L39.9145 63.1665L39.9843 63.1329L40.0801 63.1761L40.0596 63.2472L40.0089 63.3198L39.9788 63.3225L40.0342 63.354L40.1307 63.3424L40.2868 63.2404L40.3374 63.1678L40.4866 63.0714L40.5283 63.0707L40.5762 63.0221L40.5714 63.0146L40.633 62.8578L40.6864 62.7607L40.8014 62.6046L40.9102 62.4534L40.9458 62.3603L41.1607 62.0702L41.2387 61.8786L41.2537 61.7581L41.2291 61.6692L41.186 61.5836L41.0252 61.5378L40.9478 61.4906L40.8253 61.4687L40.7473 61.4207L40.6919 61.4871L40.5468 61.548L40.4428 61.5213L40.3518 61.5398L40.2375 61.5432L40.2135 61.4543L40.1636 61.3742L40.1766 61.223L40.2779 61.132L40.4264 61.0355L40.5359 61.0683L40.605 61.1326L40.7617 61.1169L40.9061 61.0136L40.9875 60.9814L41.0785 61.0177L41.1956 61.0334L41.3933 60.8329L41.5377 60.7296L41.6513 60.5852L41.6917 60.4989L41.6821 60.3874L41.7177 60.2943L41.8238 60.2533L41.8881 60.3108L41.9545 60.2581L41.9504 60.1965L41.9757 60.0897L42.0263 60.0165L42.0168 59.9049L41.9654 59.8372L41.9422 59.7359L41.8696 59.5546L41.8518 59.4608L41.7957 59.3855L41.7649 59.3021L41.7998 59.209L41.7889 59.1091L41.7574 59.0256L41.6985 58.9749L41.6472 58.9065L41.6493 58.7963L41.6178 58.7128L41.6014 58.6061L41.5028 58.5869L41.4186 58.5452L41.3153 58.5623L41.1846 58.5575L41.1189 58.6095L41.0717 58.7012L41.0826 58.8011L41.0279 58.8552L40.9567 58.7601L40.8609 58.7163L40.7569 58.6903L40.6549 58.695L40.4688 58.8969L40.3894 58.9599L40.3128 58.9989L40.2252 59.0365L40.1129 59.0276L40.1944 58.9955L40.3333 58.8853L40.3066 58.8634L40.152 58.953L40.05 58.9578L40.1061 58.8921L40.1923 58.8668L40.2402 58.7751L40.3018 58.7587L40.5085 58.6266L40.4045 58.6006L40.3182 58.6259L40.2163 58.6307L40.1396 58.6697L40.0329 58.6677L40.0021 58.5842L39.8098 58.5951L39.7482 58.6547L39.6366 58.6458L39.5326 58.6198L39.4307 58.7655L39.3013 58.8463L39.2452 58.9127L39.1672 58.9633L38.901 59.0441L38.7826 59.0406L38.7114 59.0865L38.6752 59.1796L38.5109 59.3965L38.4028 59.4068L38.3159 59.4321L38.2604 59.4984L38.0442 59.9843L38.1215 60.0309L38.025 60.0425L37.8847 60.306L37.637 60.5674L37.4324 60.7296L37.1505 60.8883L37.0574 60.9191L36.8617 60.954L36.6105 61.056L36.5188 61.0745L36.4107 61.0847L36.293 61.0683L36.2533 61.0574L36.0466 60.993L35.8666 60.9082L35.7907 60.8486L35.7394 60.7378L35.7339 60.59L35.7832 60.4312L35.8345 60.3587L35.8762 60.2601L35.9672 60.1554L35.9755 60.0404L36.0521 59.8605L36.1075 59.7948L36.2519 59.6914L36.3128 59.6319L36.4429 59.4957L36.5195 59.4574L36.5927 59.3992L36.6434 59.3267L36.6735 59.2268L36.7399 59.1741L36.7665 59.055L36.848 59.0228L36.9643 58.8545L37.1073 58.7635L37.2887 58.6957L37.3496 58.6362L37.4324 58.5917L37.5357 58.5753L37.609 58.5171L37.7287 58.3679L37.7951 58.3159L37.9593 58.2393L38.0579 58.216L38.1619 58.242L38.2002 58.2222L38.2981 58.0579L38.3864 58.0203L38.5287 57.9286L38.7833 57.8465L38.8599 57.8075L38.9071 57.7158L38.927 57.6022L38.8182 57.5693L38.7408 57.5221L38.6437 57.5337L38.5677 57.5727L38.4589 57.583L38.3549 57.557L38.2632 57.5755L38.2187 57.5023L38.2748 57.4359L38.3761 57.388L38.5561 57.3325L38.6594 57.3154L38.7306 57.2696L38.8134 57.3236L38.9106 57.3551L38.9571 57.3182L39.0385 57.286L39.0994 57.2265L39.2685 57.2128L39.5497 57.1519L39.7194 57.0828L39.8228 57.0656L39.9419 57.0691L40.0945 56.9911L40.2395 56.9739L40.1533 56.9993L40.1006 57.0841L40.065 57.1772L40.1759 57.1984L40.2259 57.1806L40.3497 57.1909L40.427 57.2374L40.4647 57.3161L40.3867 57.3674L40.2827 57.3407L40.1718 57.3757L40.2156 57.4482L40.3244 57.4386L40.4414 57.4543L40.5509 57.4865L40.6351 57.4311L40.7316 57.4188L40.8062 57.4475L40.8753 57.5118L40.9198 57.5851L41.0614 57.6898L41.1175 57.7643L41.2086 57.8006L41.3598 57.778L41.4823 57.8985L41.5186 57.9888L41.576 58.0518L41.637 58.2311L41.6301 58.4754L41.6547 58.5643L41.78 58.4644L41.8683 58.4275L41.9326 58.485L41.9442 58.5849L42.0215 58.6314L42.2652 58.9701L42.3363 59.0228L42.3712 58.9291L42.3487 58.8278L42.4096 58.769L42.3918 58.6745L42.376 58.654L42.3712 58.5493L42.439 58.485L42.4903 58.4117L42.5321 58.3139L42.5526 58.2003L42.5273 58.1661L42.4985 58.1558L42.4869 58.1544L42.3966 58.1606L42.3124 58.1188L42.3425 58.0189L42.1824 57.9176L42.1002 57.7664L42.1345 57.685L42.3747 57.4838L42.2522 57.3633L42.1748 57.3168L41.9935 57.2436L41.9223 57.1909L41.6883 56.9213L41.6109 56.874L41.4926 56.7728L41.3755 56.757L41.1819 56.6824L40.9615 56.6838L40.9424 56.6017L40.8842 56.5387L40.8411 56.4532L40.85 56.3382L40.6679 56.2219L40.6098 56.1596L40.5872 56.0583L40.6296 55.9598L40.6645 55.7257L40.7069 55.6272L40.6693 55.5485L40.6775 55.4335L40.6344 55.348L40.5276 55.2049L40.4496 55.1577L40.3484 55.1632L40.3025 55.1447L40.4873 55.0955L40.3703 55.0804L40.2799 55.0434L40.1978 55.0756L40.1513 55.0694L40.2019 54.9962L40.3511 54.8997L40.4038 54.6739L40.3942 54.6055L40.425 54.5056L40.1472 54.4871L40.05 54.4987L39.8837 54.4029L39.7543 54.3858L39.6572 54.3543L39.5798 54.3078L39.5169 54.238L39.4457 54.1853L39.3896 54.1107L39.2938 54.0676L39.0577 54.0484L38.8072 53.9109L38.7162 53.8746L38.6375 53.7412L38.6197 53.6467L38.5773 53.5619L38.4863 53.5249L38.4302 53.4503L38.4965 53.4407L38.578 53.4086L38.6444 53.3566L38.7463 53.3511L38.8291 53.3073L38.8264 53.1903L38.7196 53.1335L38.6163 53.1075L38.5205 53.0643L38.4445 53.0048L38.2625 52.9323L37.9546 52.7318L37.8902 52.6743L37.8471 52.5887L37.8622 52.4683L37.9409 52.4601L38.2645 52.5401L38.3747 52.5607L38.4582 52.56L38.5739 52.5874L38.9174 52.6086L39.0858 52.5942L39.536 52.6599L39.8255 52.7783L39.987 52.8666L40.063 52.9261L40.3559 53.063L40.4462 53.0992L40.5639 53.115L40.6611 53.1465L40.5331 52.9761L40.4442 52.9275L40.4264 52.833L40.4407 52.8105L40.4558 52.69L40.3353 52.5579L40.2594 52.4984L40.1588 52.3506L40.0828 52.2917L40.0322 52.2233L40.0828 52.1508L40.0719 52.094L40.1232 52.0638L40.0609 51.9947C39.807 51.8531 39.5169 52.0091 39.4868 51.5383L39.5292 51.4828L39.4621 51.2105L39.508 51.1311L39.4717 51.0401L39.3766 50.9422L39.2555 51.0052L39.2322 50.9046L39.2479 50.8273L39.3095 50.7677L39.3177 50.6521L39.2548 50.5829L39.3431 50.5453L39.2411 50.1703L39.1241 50.0143L39.0659 49.9513L39.044 49.9363L39.016 49.926L38.9735 49.8836L38.8764 49.8952L38.7039 49.7501L38.6875 49.6434L38.7388 49.5708L38.5417 49.2382L38.5376 49.1335L38.4302 48.9912L38.4055 48.9015L38.4254 48.788L38.5301 48.7161L38.6827 48.4978L38.864 48.2891L38.8839 48.1755L38.7949 48.0283L38.7792 47.9654L38.4534 48.2343L38.3775 48.2733L37.9457 47.7259L36.746 46.1273L35.6716 44.6245L34.448 42.839L33.6583 41.6312L33.6316 41.6524L33.6583 41.6312L33.2997 41.0693C31.6984 38.5243 30.2011 35.8848 28.8557 33.1899L28.2589 31.9588L28.17 31.7693L27.8688 31.1294L27.487 30.3253L26.8088 28.8013L26.2429 27.471L25.7611 26.2795L25.6735 26.2617L25.6126 26.3213L25.5722 26.4075L25.5455 26.4287L25.5134 26.5409L25.5312 26.6347L25.4552 26.6737L25.3943 26.7332L25.3176 26.7723L25.2999 26.6778L25.2588 26.764L25.1712 26.8017L25.1548 26.6949L25.1322 26.6368L25.059 26.6949L25.1171 26.7572L25.0658 26.8304L25.0261 26.9598L24.9508 26.9871L24.9296 27.0145L24.7804 27.111L24.7449 27.2041L24.6771 27.2691L24.5546 27.2465L24.4013 27.2383L24.3397 27.2971L24.2426 27.2663L24.2056 27.3717L24.0934 27.3628L23.9579 27.4922L23.8409 27.4764L23.6855 27.382L23.6089 27.3779L23.5048 27.3519L23.4474 27.2896L23.4891 27.1904L23.4001 27.1425L23.3173 27.1863L23.3392 27.1035L23.4042 27.0631L23.3728 26.9796L23.4309 27.0419L23.5377 27.0439L23.7437 27.1083L23.6609 27.1521L23.5692 27.1705L23.5083 27.2301L23.5555 27.2362L23.6383 27.1917L23.7403 27.187L23.8046 27.2451L23.6855 27.2417L23.6958 27.3526L24.0338 27.2691L24.0742 27.1828L24.0099 27.1254L24.0831 27.0672L24.1139 27.1514L24.1851 27.1055L24.248 27.0343L24.2911 27.1199L24.3712 27.1425L24.4492 27.0918L24.4896 27.0049L24.222 26.957L24.1029 26.9536L23.9565 26.8427L23.717 26.8044L23.654 26.8756L23.7184 26.9331L23.7676 27.0131L23.6342 26.8913L23.6479 26.7832L23.7498 26.7784L23.9709 26.8201L24.0619 26.8564L24.311 26.8646L24.2296 26.8968L24.1632 26.9495L24.2549 26.931L24.3774 26.9536L24.4834 26.9125L24.6251 26.7353L24.7134 26.6977L24.6039 26.6648L24.5259 26.7161L24.5964 26.5841L24.5136 26.5307L24.5813 26.4664L24.6319 26.3931L24.5615 26.3404L24.4985 26.2713L24.4903 26.1474L24.4164 25.9784L24.4061 25.8669L24.3438 25.6992L24.3267 25.55L24.3575 25.4501L24.3411 25.3434L24.3445 25.2215L24.3733 24.9923L24.3568 24.8862L24.2795 24.98L24.2508 24.9704L24.1632 25.0074L24.0544 25.0176L23.9935 25.0772L23.912 25.1086L23.8388 25.1668L23.7827 25.2325L23.7444 25.3502L23.6308 25.4946L23.563 25.5589L23.2599 25.7451L23.1079 25.9093L22.8876 26.051L22.7945 26.0818L22.7952 26.1249L22.8766 26.0927L22.8814 26.1974L22.8595 26.3233L22.8842 26.4123L22.7842 26.3069L22.6494 26.2398L22.7124 26.1687L22.5529 26.2515L22.4955 26.3302L22.5119 26.3384L22.5728 26.5177L22.5269 26.5977L22.5119 26.5772L22.4955 26.4705L22.3935 26.4759L22.3428 26.5485L22.2292 26.5519L22.1985 26.6518L22.167 26.6662L22.1957 26.5779L22.1382 26.5149L22.2908 26.4376L22.3538 26.3664L21.9363 26.556L21.9945 26.619L21.9624 26.7305L22.1074 26.8544L22.0719 26.9474L22.1102 27.0261L22.1184 27.0515L22.1239 27.1014L22.1328 27.1274L22.0821 27.2L22.0671 27.3204L22.1245 27.3834L22.0404 27.3416L22.0171 27.2403L22.0192 27.228L22.0479 27.1404L22.0499 27.0302L21.974 26.9714L21.9295 26.8982L21.9473 26.8516L21.9131 26.7914L21.8878 26.8003L21.8686 26.8592L21.8597 26.8338L21.8748 26.8113L21.883 26.6956L21.7899 26.7264L21.6305 26.8092L21.5182 26.8003L21.5107 26.8181L21.4341 26.8564L21.3424 26.8749L21.2746 26.9392L21.2486 27.0036L21.1364 26.9947L21.0385 27.0186L21.0077 27.1185L20.9769 27.035L20.9187 27.0699L20.8271 27.0884L20.749 27.1397L20.6505 27.163L20.5677 27.2075L20.4055 27.2164L20.3179 27.254L20.0373 27.3026L19.8847 27.3799L19.7 27.4292L19.637 27.5004L19.6055 27.5147L19.5364 27.4929L19.4399 27.5045L19.2702 27.5743L18.8124 27.7091L18.709 27.7262L18.6276 27.7584L18.7104 27.8124L18.6823 27.8453L18.6262 27.77L18.5208 27.7563L18.3272 27.7796L18.2341 27.8104L18.2478 27.8425L18.2594 27.8439L18.2526 27.8494L18.2717 27.8884L18.2102 27.9048L18.2526 27.8494L18.2478 27.8425L18.1568 27.8063L18.0637 27.8364L18.1096 27.757L17.7291 27.8412H17.4553L17.3164 27.9514L17.2028 28.0957L17.1145 28.1334L17.0009 28.1361L16.9243 28.1751L16.808 28.2032L16.5465 28.4318L16.4589 28.6097L16.2776 28.6774L16.1811 28.6891L16.1373 28.7999L16.0661 28.8458L15.9375 28.9696L15.9135 28.9662L15.7657 29.0504L15.3408 29.1168L15.2846 29.1825L15.1916 29.2133L15.0896 29.2181L14.9911 29.242L14.9869 29.2783L14.8891 29.2468L14.8001 29.1982L14.7029 29.2098L14.5798 29.1996L14.3943 29.2482L14.2821 29.3378L14.1938 29.3748L14.1007 29.6868L14.035 29.7395L14.0042 29.8401L13.8441 30.0755L13.7723 30.1214L13.71 30.1926L13.6333 30.2316L13.5478 30.3L13.4458 30.3048L13.2672 30.3486L12.9996 30.5826L12.8833 30.6524L12.7711 30.6442L12.678 30.8153L12.6007 31.0069L12.4515 31.2451L12.4145 31.3498L12.394 31.4634L12.3536 31.5503L12.2914 31.6214L12.2202 31.6673L12.2565 31.6598L12.2551 31.6721L12.162 31.8432L12.0382 31.9739L12.1415 31.8165L12.0587 31.8603L11.9499 31.8705L11.8568 31.9007L11.9595 31.939L11.9362 32.0765L11.8849 32.1497L11.8951 32.2613L11.8527 32.3598L11.8376 32.4803L11.9232 32.5097L11.9704 32.418L12.058 32.4358L12.1203 32.3646L12.2188 32.3407L12.3009 32.3947L12.2927 32.5097L12.2606 32.6219L12.2722 32.7218L12.3509 32.7567L12.3954 32.83L12.3755 32.9436L12.4707 33.0852L12.5747 33.1112L12.5131 33.127L12.4159 33.0962L12.4665 33.1639L12.5562 33.2125L12.5541 33.2248L12.5411 33.333L12.5103 33.4336L12.4905 33.4493L12.5541 33.2248L12.3947 33.1235L12.3351 32.8341L12.2469 32.7307L12.2489 32.6206L12.1764 32.5802L12.1257 32.5124L12.0224 32.5289L11.9916 32.6295L11.9102 32.6609L11.8582 32.7465L11.8623 32.8081L11.7453 32.9333L11.6125 33.0387L11.581 33.1509L11.5427 33.0722L11.5714 32.9408L11.6132 32.8423L11.6084 32.7376L11.6802 32.6924L11.7767 32.6801L11.8445 32.6158L11.8609 32.5816L11.8048 32.5063L11.7193 32.5193L11.6481 32.5651L11.4688 32.6212L11.4332 32.7143L11.2991 32.8313L11.2176 32.8635L11.1506 32.8731L11.0849 32.9258L11.039 33.0052L10.9206 33.2837L10.9172 33.4055L11.0062 33.5519L10.8974 33.7032L10.7516 33.8182L10.74 33.7737L10.6531 33.799L10.4799 33.7087L10.3342 33.8243L10.1802 33.914L10.133 34.0057L10.0803 34.2315L9.96668 34.3759L9.95983 34.4792L9.82433 34.6079L9.74837 34.7878L9.68063 34.8522L9.63477 34.9322L9.62861 35.078L9.52049 35.2292L9.4849 35.4633L9.42194 35.5345L9.33503 35.5167L9.25223 35.5611L9.22691 35.6679L9.25634 35.7637L9.22417 35.8759L9.153 35.9218L9.00792 35.9396L8.869 36.0498L8.77251 36.0607L8.70955 36.1326L8.60143 36.1421L8.52342 36.1935L8.54531 36.2516L8.50836 36.357L8.48851 36.4706L8.61375 36.7074L8.6377 36.7964L8.68081 36.8819L8.69039 37.0913L8.71503 37.1803L8.80878 37.3343L8.80947 37.5177L8.78414 37.6244L8.77593 37.7401L8.65207 37.8708L8.64386 38.1267L8.66507 38.3375L8.82794 38.6537L8.82452 38.6776L8.72666 38.8418L8.66576 38.9014L8.58432 38.9335L8.52342 38.9931L8.533 39.1046L8.61169 39.0964L8.64933 39.1751L8.66576 39.2812L8.60416 39.4386L8.57885 39.5453L8.57542 39.6672L8.45772 40.1298L8.37013 40.3077L8.24695 40.4815L8.11829 40.6054L7.9691 40.7019L7.81102 40.773L7.73848 40.8305L7.80623 40.8086L7.8165 40.9209L7.72959 40.9455L7.77681 40.8538L7.7248 40.9386L7.64062 41.0379L7.65979 41.0776L9.07978 43.4344H9.07909L8.86421 43.4419L8.77046 43.4727L8.8081 43.7903L9.15574 46.4338L9.39868 48.1508L10.2534 49.6974L10.547 50.2018L11.0021 50.9915L11.0801 51.038L11.4674 50.7958L11.5844 50.7684L12.5535 52.3978L12.5582 52.4046L12.5849 52.3834L12.6075 52.3006L12.7088 52.1549L12.7423 52.1289L12.7088 52.1549L12.6075 52.3006L12.5849 52.3834L12.5589 52.4046L12.5712 52.4922L12.5699 52.5039L12.589 52.5436L12.587 52.6531L12.5514 52.7468L12.4953 52.8125L12.4091 52.9788L12.407 53.089L12.4364 53.2826L12.4214 53.4031L12.3447 53.6809L12.3146 53.9218L12.2667 54.0135L12.2202 54.2462L12.2236 54.3632L12.2476 54.4522L12.2291 54.6951L12.2476 54.7889L12.1914 54.8553L12.199 54.936L12.1531 55.0154L12.0293 55.1461L12.0286 55.2015L11.9355 55.3726L11.8999 55.4657L11.8342 55.5184L11.7459 55.5553L11.6187 55.6676L11.3867 56.0898L11.3655 56.2588L11.3901 56.3478L11.3949 56.4525L11.3648 56.5524L11.3415 56.8309L11.3661 56.9206L11.44 57.0889L11.3928 57.1806L11.4496 57.44L11.4277 57.5652L11.4257 57.6754L11.4702 57.7486L11.4489 57.7767L11.4866 57.8547L11.5735 57.971L11.6488 57.9436L11.7507 57.982L11.8479 57.9703L11.9252 58.0176L12.0115 57.9922L12.0949 57.9478L12.1518 57.9683L12.5165 57.8636L12.6486 57.8561L12.7067 57.8636L12.7649 57.9265L12.8539 57.9751L12.8984 58.0484L12.9695 58.101L13.066 58.0894L13.1173 58.1572L13.1427 58.3323L13.1742 58.4158L13.2433 58.4802L13.2816 58.5589L13.3377 58.6335L13.4274 58.8661L13.53 58.9044L13.5546 58.9934L13.5526 59.1036L13.5067 59.183L13.4883 59.2849L13.4451 59.3404L13.5095 59.3979L13.4636 59.4772L13.4602 59.5997L13.478 59.6935L13.4239 59.7476L13.4246 60.0726L13.3473 60.2642L13.322 60.371L13.1735 60.5537L13.0893 60.7508L13.0434 60.8302L13.0174 60.8514L12.9935 60.9465L12.9524 61.0327L12.9257 61.1518L12.8908 61.147L12.7772 61.2914L12.689 61.4693L12.6855 61.5911L12.7109 61.6808L12.6568 61.8204L12.6062 61.8936L12.6055 61.9915L12.574 62.1037L12.5179 62.1694L12.4351 62.4527L12.4884 62.5944L12.4864 62.7046L12.4686 62.7511L12.3974 62.7969L12.3516 62.8763L12.2736 62.9276L12.175 62.9509L12.1784 63.0679L12.1059 63.1254L12.0293 63.1644L11.9683 63.224L11.943 63.3307L11.8671 63.5107L11.8349 63.6229L11.7302 63.7926L11.5995 63.9281L11.5899 64.0554L11.5133 64.0944L11.5242 64.1512L11.618 64.3045L11.6364 64.399L11.6734 64.4346L11.6782 64.5393L11.6481 64.6392L11.6515 64.7008L11.7213 64.7651L11.7391 64.8595L11.7884 64.9396L11.7651 65.1757L11.7843 65.2578L11.9725 65.5644L12.1018 65.7225L12.1196 65.8169L12.1572 65.8956L12.1271 66.1365L12.1367 66.1495L12.1401 66.2665L12.1983 66.3295L12.264 66.2768L12.4433 66.4171L12.4754 66.4458L12.5446 66.3692L12.4173 66.3404L12.5056 66.3028L12.392 66.3062L12.4433 66.1782L12.4994 66.2528L12.5302 66.1529L12.6534 66.0222L12.7984 65.7232L12.8765 65.6718L13.0742 65.4289L13.0886 65.3084L13.155 65.2558L13.1796 65.3447L13.2097 65.2017L13.2809 65.1558L13.3322 65.2243L13.4096 65.1729L13.5013 65.1545L13.5745 65.097L13.6559 65.0648L13.5204 64.9553L13.4534 64.7808L13.5362 64.737L13.5451 64.6645L13.5923 64.5728L13.5909 64.683L13.5656 64.7897L13.6231 64.8527L13.6785 64.8842L13.71 64.9676L13.606 64.9416L13.7155 65.0176L14.1664 64.8876L14.2178 64.815L14.2116 64.7651L14.2369 64.6583L14.2903 64.6159L14.2191 64.5639L14.215 64.5023L14.291 64.5612L14.4169 64.7008L14.4012 64.8205L14.6886 64.8103L14.7919 64.7931L14.8514 64.7459L14.7543 64.7144L14.6626 64.7329L14.6715 64.618L14.768 64.6063L14.7858 64.5598L14.8357 64.6398L14.9199 64.6816L14.8816 64.7439L14.9993 64.7596L15.0807 64.7274L15.0198 64.7863L14.9329 64.8116L15.0171 64.8534L15.171 64.8616L15.2436 64.8041L15.2846 64.7172L15.3825 64.6939L15.3989 64.659L15.338 64.8595L15.3626 64.9485L15.633 65.0703L15.6699 65.0628L15.659 64.9635L15.583 64.904L15.6795 64.8924L15.6747 64.7877L15.7575 64.6029L15.8205 64.6727L15.7842 64.7227L15.7801 64.8999L15.8574 64.9464L15.9436 64.7808L15.9608 64.789L15.9183 64.8876L15.9361 64.982L16.0388 65.0197L15.9929 65.0997L16.0504 65.1627L15.9738 65.1586L16.1407 65.2544L16.0593 65.2859L15.8725 65.2065L15.8472 65.2147L16.1181 65.3365L16.2783 65.4378L16.3926 65.4775L16.3234 65.4131L16.2256 65.3817L16.2817 65.316L16.4357 65.422L16.5506 65.5473L16.745 65.6096L16.8682 65.6752L16.9722 65.7013L17.2001 65.7375L17.3294 65.6568L17.4957 65.7095L17.597 65.7047L17.6812 65.7464L17.7934 65.7122L17.7633 65.6164L17.8625 65.5377L17.8646 65.4275L17.9357 65.3824L17.983 65.29L18.035 65.3036L18.0521 65.4528L18.1554 65.4357L18.2594 65.4617L18.2971 65.5404L18.1848 65.6294L18.0049 65.6855L18.1568 65.8039L18.2587 65.9394L18.2293 65.9421L18.1595 65.8771L17.9364 65.8046L17.8331 65.8217L17.8481 65.8422C18.1479 65.8792 18.4038 66.0961 18.6769 66.2159L18.8555 66.4109L18.9246 66.1933L19.1244 66.1646C19.1716 66.1734 19.2052 66.1796 19.2394 66.1858H19.2353L19.2237 66.1837L19.2285 66.1906L19.1764 66.2761L19.0827 66.3062L18.9992 66.2645L18.9157 66.3083L18.9191 66.4253L19.0163 66.4568L19.2996 66.7633L19.3598 66.7592L19.3551 66.6545L19.4591 66.6805L19.6411 66.558L19.6213 66.6716L19.5754 66.7517L19.509 66.8037L19.4248 66.762L19.3763 66.7674L19.4009 66.8571L19.4509 66.9372L19.5248 67.1062L19.5788 67.291L19.5953 67.397L19.6473 67.551L19.8601 67.9472L19.9176 68.0095L20.0469 68.0697L20.0982 68.1375L20.1687 68.0061L20.1701 67.8959L20.233 67.9657L20.2796 67.9719L20.3692 68.0205L20.5225 68.1265L20.4397 68.171L20.4048 68.2093L20.476 68.2613L20.5964 68.3941L20.5389 68.4721L20.5567 68.5666L20.478 68.672L20.5342 68.7465L20.5896 68.9197L20.6868 68.908L20.7087 68.9231L20.7614 68.8814L20.7059 68.9477L20.6888 68.9388L20.6108 68.9902L20.58 69.0901L20.5903 69.2016L20.543 69.2933L20.4616 69.3255L20.4691 69.4062L20.5519 69.4596L20.5677 69.6642L20.6573 69.7128L20.6724 69.7333L20.6888 69.8394L20.7627 69.8675L20.8551 69.7943L20.9434 69.7566L21.0063 69.8264L21.0837 69.8736L21.1227 69.8969L21.07 69.9818L21.148 70.029L21.1836 70.12L21.0727 70.1966L21.0323 70.2836L21.1049 70.3232L21.2089 70.3492L21.3006 70.3315L21.3307 70.2309L21.4019 70.2836L21.5189 70.1583L21.4909 69.9523L21.547 69.8859L21.5586 69.8873L21.6483 70.2178L21.6859 70.2966L21.7044 70.391L21.703 70.4457L21.5942 70.456L21.6503 70.5306L21.7215 70.5833L21.6845 70.688L21.7324 70.7804L21.8036 70.8331L21.7523 70.9056L21.7153 71.011L21.753 71.0897L21.8447 71.0281L21.7967 71.1198L21.6955 71.1246L21.5155 71.1807L21.6325 71.1958L21.7194 71.1711L21.833 71.1677L21.792 71.3518L21.8679 71.3128L21.9665 71.2895L22.0014 71.2512L22.0719 71.3032L22.0869 71.2806L22.0554 71.1971L22.0965 71.1109L22.0896 71.0178L22.0075 70.8659L21.9911 70.7598L21.9186 70.6764L21.9658 70.5847L21.9425 70.4834L21.9015 70.3862L21.9535 70.3013L22.0308 70.3486L22.0623 70.2911L22.1245 70.3609L22.1492 70.4498L22.167 70.3602L22.2074 70.274L22.3298 70.2966L22.3675 70.3746L22.3627 70.4108L22.451 70.3739L22.5174 70.3212L22.5043 70.2336L22.5783 70.1638L22.6296 70.0913L22.4749 70.0399L22.3969 70.0906L22.3107 70.1159L22.2594 70.0481L22.3004 69.9612L22.2361 69.9037L22.2416 69.8127L22.2559 69.7901L22.4544 69.8716L22.5529 69.8483L22.5495 69.8292L22.4469 69.7915L22.5078 69.732L22.4058 69.7368L22.3949 69.6375L22.2826 69.6286L22.2046 69.5814L22.0315 69.3932L21.95 69.2837L21.9233 69.164L21.9849 69.1051L22.0965 69.114L22.3141 69.0935L22.3846 69.1455L22.4428 69.2516L22.453 69.3631L22.4441 69.4781L22.4955 69.5465L22.5043 69.615L22.5447 69.6266L22.5365 69.7416L22.5858 69.8216L22.6145 69.8319L22.5995 69.8545L22.6939 69.9099L22.7514 69.9722L22.8383 69.9469L22.954 69.9749L23.0026 69.9688L22.9984 69.9503L23.058 70.0009L23.0347 69.9982L23.0922 70.0605L23.2592 70.1563L23.3926 70.2781L23.4378 70.2966L23.368 70.1891L23.4679 70.2945L23.4713 70.4108L23.5021 70.495L23.5801 70.5415H23.6219L23.6759 70.7263L23.7793 70.7092L23.8436 70.7667L23.9189 70.9234L23.9702 70.9918L24.2254 70.8112L24.3083 70.7674L24.3883 70.7475L24.4164 70.714L24.3938 70.7968L24.413 70.8358L24.3774 70.9296L24.3213 70.9953L24.235 71.0206L24.194 71.1075L24.2104 71.2136L24.2391 71.2238L24.2022 71.3285L24.1255 71.3675L24.0427 71.3142L23.9989 71.2409L23.9298 71.219L24.1851 71.4613L24.2679 71.5154L24.3493 71.4832L24.3589 71.4538L24.402 71.5393L24.5122 71.5598L24.6538 71.4804L24.6778 71.5701L24.6504 71.6029L24.5327 71.5872L24.441 71.6057L24.465 71.6515L24.5478 71.7056L24.6388 71.7426L24.777 71.7302L24.8756 71.7063L24.892 71.6714L24.8934 71.6597L24.9638 71.6693L24.8968 71.7761L24.9933 71.7651L25.0932 71.7289L25.0371 71.7952L25.0268 71.9225L24.92 71.9205L24.8119 71.8329L24.7832 71.8226L24.8461 71.8924L25.0624 72.0683L25.2198 72.236L25.2519 72.2647L25.4853 72.3078L25.4408 72.3756L25.525 72.4173L25.601 72.4762L25.64 72.6411L25.6058 72.7218L25.5736 72.65L25.5503 72.5494L25.486 72.4919L25.436 72.5097L25.3354 72.3612L25.3669 72.4454L25.4176 72.5131L25.5722 72.8464L25.6454 73.0702L25.6735 73.2761L25.7296 73.2098L25.718 73.1105L25.7454 73.0346L25.8097 73.0921L25.8282 73.1865L25.989 73.2323L25.9123 73.2714L25.8514 73.2323L25.7666 73.2453L25.7768 73.4L25.8466 73.4643L25.8042 73.5629L25.8672 73.6327L25.7898 73.6286L25.7803 73.517L25.7255 73.3323L25.7111 73.4527L25.7289 73.5471L25.7228 73.595L25.7022 73.5677L25.7187 73.6737L25.7501 73.7579L25.7344 73.8783L25.6927 73.9769L25.6365 74.0433L25.5661 73.9913L25.6181 73.9057L25.679 73.8469L25.6016 73.8975L25.5558 73.9776L25.5797 74.0659L25.6427 74.1357L25.6831 74.1473L25.8302 74.2588L25.8877 74.3218L25.9308 74.3088L26.0471 74.3369L26.0239 74.3766L26.0814 74.4388L26.4119 74.5134L26.4879 74.5729L26.5433 74.6044L26.5796 74.6954L26.6254 74.6154L26.5987 74.4956L26.6439 74.612L26.6562 74.5586L26.7479 74.5401L26.8519 74.5661L26.9676 74.6913L27.0435 74.7509L27.0675 74.7967L27.1051 75.0157L27.1503 75.0896L27.1708 75.3004L27.1086 75.5125L27.1551 75.7151L27.1072 75.8061L27.0463 75.8657L27.0668 76.175L27.034 76.2988L27.0586 76.3878L27.0223 76.4816L27.0538 76.5651L27.1742 76.6978L27.1565 76.8846L27.0901 76.9373L27.0654 77.0448L27.088 77.1454L27.0203 77.2104L26.9977 77.2501L26.8027 77.4259L26.752 77.4992L26.6672 77.5553L26.26 77.7585L26.2162 77.8263L26.0773 77.9365L25.939 77.9912L25.9021 78.0966L25.8918 78.2239L25.9356 78.0706L25.9513 78.2745L25.9301 78.3026L26.0321 78.2978L26.1963 78.2218L26.145 78.1534L26.143 78.1226L26.2093 78.0699L26.2264 77.9802L26.2394 77.97L26.2791 78.1773L26.2285 78.2506L26.3455 78.2656L26.3257 78.3799L26.2757 78.4401L25.9794 78.4805L25.8514 78.5496L25.7734 78.5024L25.7276 78.5387L25.7296 78.4292L25.6988 78.5291L25.7344 78.718L25.6995 78.811L25.6625 78.8186L25.5284 79.1744L25.4976 79.2743L25.4668 79.4721L25.4983 79.5563L25.5558 79.6192L25.5633 79.6569L25.614 79.5836L25.6495 79.4906L25.6448 79.3859L25.694 79.4659L25.6735 79.5364L25.8371 79.6131L25.8336 79.6377L25.7317 79.5994L25.7009 79.6993L25.5572 79.8026L25.4942 79.8738L25.4538 79.9607L25.4018 79.9908L25.46 80.0538L25.5832 80.0634L25.6598 80.025L25.8042 80.062L25.6434 80.0593L25.5661 80.1106L25.4586 80.1085L25.4244 80.1469L25.4552 80.2303L25.447 80.346L25.2451 80.6252L25.1924 80.851L25.2335 80.9058L25.1561 80.8586L25.1671 80.9578L25.243 81.0166L25.293 81.0974L25.317 81.1432L25.3662 81.3212L25.3149 81.3944L25.3135 81.5039L25.2608 81.6866L25.2136 81.779L25.1726 82.0062L25.1986 82.0828L25.2547 82.1581L25.2533 82.2676L25.1561 82.2792L25.1294 82.1595L25.1315 82.05L25.0247 82.0479L24.9789 82.1273L24.957 82.2532L25.1103 82.3593L25.23 82.4058L25.2677 82.4845L25.3238 82.5591L25.408 82.6009L25.5086 82.6084L25.6058 82.6392L25.6222 82.746L25.6242 82.6789L25.6578 82.7932L25.7036 82.7138L25.7967 82.683L25.8986 82.6782L25.9951 82.5256L26.0506 82.5146L26.106 82.4483L26.2045 82.425L26.2757 82.3792L26.3763 82.3867L26.4372 82.3271L26.5255 82.2902L26.4728 82.375L26.544 82.3292L26.6151 82.2402L26.7438 82.1164L26.9491 81.9542L27.0114 81.883L27.3193 81.6175L27.5157 81.3307L27.5102 81.2815L27.5862 81.1994L27.6382 80.9735L27.6204 80.8791L27.5917 80.8695L27.6286 80.862L27.6943 80.8093L27.7607 80.6163L27.912 80.3118L28.0851 79.7404L28.2575 79.2668L28.2931 79.1737L28.432 78.9226L28.5354 78.7652L28.5559 78.7919L28.5669 78.8918L28.4909 78.9308L28.4806 79.0581L28.558 79.1046V79.2032L28.495 79.2743L28.3458 79.3708L28.1768 79.5809L28.0652 79.8971L28.0488 80.0291L28.1419 79.7171L28.1823 79.6309L28.2774 79.4906L28.4013 79.3599L28.508 79.3612L28.5552 79.2702L28.586 79.1696L28.6223 78.9233L28.8098 78.1459L29.0048 77.6326L29.1287 77.3609L29.2984 77.053L29.3559 76.975L29.4387 76.7895L29.5489 76.6698L29.5899 76.5835L29.605 76.4631L29.6474 76.3645L29.6317 76.4419L29.7809 76.3454L29.746 76.2427L29.824 76.1914L29.8541 76.0915L29.9307 76.0525L30.0224 76.034L29.9862 75.9868L30.0833 75.9752L30.0916 75.8595L30.1032 75.9594L30.2011 75.9355L30.1367 75.8349L30.2229 75.8095L30.2346 75.9095L30.3865 75.8869L30.4679 75.8547L30.4378 75.7589L30.3872 75.6905L30.3694 75.5967L30.3913 75.6118L30.4221 75.6953L30.4734 75.763L30.546 75.7055L30.5699 75.7514L30.7383 75.6946L30.6671 75.6419L30.6746 75.5817L30.7855 75.6029L30.8265 75.516L30.8361 75.6275L30.9292 75.5974L30.9572 75.5646L30.8799 75.5173L30.936 75.451L31.0051 75.5153L31.1249 75.5071L31.1208 75.4024L31.1933 75.3442L31.2111 75.4386L31.2686 75.5016L31.3302 75.4421L31.4274 75.4735L31.5191 75.4551L31.4849 75.3955L31.6491 75.3189L31.736 75.2936L31.6696 75.3462L31.7121 75.3887L31.814 75.3839L31.8161 75.2737L31.8366 75.2032L31.8872 75.13L31.9687 74.9576L31.9571 75.0534L31.916 75.1403L31.9078 75.2552L32.0515 75.1519L31.9618 75.2997L31.9728 75.3989L32.0823 75.4318L32.2198 75.377L32.1028 75.3606L32.2048 75.3565L32.2178 75.3025L32.161 75.2279L32.1432 75.1334L32.096 75.0842L32.2575 75.1731L32.304 75.2778L32.3882 75.3196L32.4457 75.3818L32.5634 75.3976L32.5606 75.3237L32.5784 75.4181L32.6824 75.4441L32.7632 75.5098L32.7981 75.4715L32.8823 75.5132L32.9808 75.49L32.9562 75.401L33.0349 75.2949L33.0807 75.3558L33.0349 75.4359L33.0992 75.4934L33.2114 75.5023L33.3079 75.4906L33.377 75.5119L33.4291 75.427L33.531 75.4215L33.5625 75.5057L33.633 75.5577L33.7199 75.5331L33.8335 75.5297L33.8191 75.4544L33.8506 75.5379L33.9622 75.5468L33.9882 75.44L33.9834 75.3353L34.0675 75.2785L34.1709 75.2621L34.1996 75.2717L34.0251 75.3346L34.0491 75.4236L34.0039 75.503L34.2338 75.3319L34.3317 75.3079L34.7156 75.2422L34.9921 75.273L35.0824 75.3093L35.1221 75.2778L35.1597 75.3134L35.326 75.4092L35.4615 75.5187L35.5532 75.6412L35.6504 75.6727L35.8003 75.5762L35.9029 75.4181L35.9132 75.4318L35.8728 75.5187L35.7428 75.6973L35.9481 75.5344L36.0364 75.4975L36.2211 75.4482L36.4312 75.4332L36.6694 75.4831L36.705 75.39L36.8021 75.3784L36.8227 75.3079L36.8473 75.3962L36.7453 75.4017L36.7748 75.4975L36.8035 75.5071L36.9055 75.5023L37.0889 75.4653L37.1183 75.5611L37.3325 75.6631L37.3831 75.7315L37.4215 75.7117L37.5282 75.7137L37.481 75.8054L37.5741 75.7753L37.5843 75.8862L37.611 75.9088L37.7896 75.865L37.9019 75.8739L37.9949 75.8431L38.0271 75.774L38.0004 75.7521L37.9019 75.776L37.8375 75.7178L37.919 75.6864L37.96 75.5994L37.8786 75.6316L37.8765 75.6433L37.8232 75.6001L37.7718 75.6727L37.754 75.5782L37.5611 75.5036L37.4666 75.3504L37.4858 75.1505L37.5111 75.0438L37.5173 75.1368L37.5474 75.2327L37.5487 75.3613L37.5987 75.4414L37.6671 75.4626L37.8813 75.4667L37.9477 75.414L37.8834 75.3565L37.9511 75.3346L38.0209 75.3996L38.114 75.3688L38.0545 75.1772L38.0038 75.1095L37.8485 74.7331L37.8594 74.692L37.8779 74.6879L37.9504 74.8693L38.0456 75.0109L38.1236 75.0575L38.1455 75.1156L38.1913 75.0362L38.2522 74.9767L38.3104 75.0397L38.2331 75.0356L38.2249 75.1505L38.2611 75.2415L38.3391 75.1902L38.3036 75.284L38.3412 75.362L38.4521 75.5242L38.5643 75.5324L38.8469 75.4599L38.9133 75.4078L38.9448 75.4913L39.057 75.5002L39.1008 75.4325L39.2295 75.3086L39.2603 75.2087L39.2705 75.0814L39.2356 75.1197L39.1795 75.143L39.0892 75.0513L39.0166 75.1088L38.8996 75.234L38.7826 75.219L38.7949 75.1656L38.8969 75.1601L38.8722 75.0712L38.9639 75.0527L39.0433 74.9897L39.0994 74.924L39.0495 74.844L38.9284 74.7659L38.8524 74.8056L38.7778 74.6359L38.6758 74.5983L38.5978 74.5511L38.5287 74.4867L38.591 74.4156L38.6163 74.3088L38.6587 74.2103L38.7148 74.1439L38.7949 74.124L38.7853 74.1535L38.7135 74.1986L38.6327 74.3718L38.6902 74.4347L38.7196 74.5305L38.9633 74.5873L38.953 74.4758L39.0043 74.5435L39.0604 74.6612L39.0864 74.5545L39.1159 74.6503L39.1932 74.6975L39.2527 74.6503L39.2562 74.5285L39.2254 74.4443L39.2945 74.5086L39.3157 74.7194L39.3821 74.8084L39.3971 74.6879L39.4272 74.5873L39.4286 74.8145L39.3773 74.9425L39.445 74.8775L39.5408 74.5846L39.5744 74.5579L39.5313 74.473L39.5566 74.3656L39.6127 74.2999L39.6284 74.3204L39.6257 74.4299L39.7078 74.3985L39.6668 74.3437L39.7366 74.408L39.5621 74.7523L39.5443 74.8419L39.458 75.0082L39.443 75.1286L39.3964 75.1225L39.4211 75.2114L39.3992 75.3374L39.3568 75.4359L39.3869 75.4338L39.4293 75.3353L39.5011 74.9952L39.5689 74.7906L39.755 74.447L39.7632 74.4299L39.8714 74.1384L39.9644 73.9666L39.8098 73.7743L39.7721 73.6963L39.677 73.7388L39.6579 73.7976L39.6401 73.7032L39.6058 73.6436L39.4834 73.621L39.5648 73.5889L39.5798 73.4684L39.5751 73.3637L39.5634 73.3624L39.6004 73.257L39.6462 73.1769L39.5641 73.1235L39.5395 73.0346L39.4799 72.9839L39.4313 72.8053L39.2678 72.5877L39.3164 72.5822L39.354 72.6609L39.4875 72.7827L39.484 72.9046L39.5094 72.9388L39.5874 72.8874L39.5792 73.0031L39.5901 73.1023L39.6941 73.1283L39.6626 73.2406L39.6538 73.3555L39.6832 73.4513L39.662 73.5773L39.727 73.58L39.7762 73.6169L39.8638 73.58L39.9097 73.4999L39.8803 73.4041L39.9309 73.3316L39.8549 73.272L39.8009 73.0873L39.8214 72.9737V72.7348L39.8638 72.8204L39.8474 73.051L39.8946 73.2406L39.9932 73.2173L40.013 73.103L40.0534 73.1146L40.091 73.1933L40.0897 73.3035L40.1656 73.2645L40.2662 73.1311L40.2087 73.0681L40.1773 72.9839L40.2176 72.9956L40.2211 72.8738L40.1629 72.8108L40.1649 72.7013L40.1896 72.6486L40.1485 72.4536L40.1807 72.3413L40.1574 72.2407L40.1663 72.1682L40.2019 72.0751L40.1807 71.8637L40.1417 71.7973L40.1992 71.8603L40.2272 71.9677L40.2238 72.0902L40.1971 72.2093L40.2217 72.2975L40.1951 72.4173L40.2238 72.47L40.2252 72.6965L40.2697 72.7697L40.2546 72.7923L40.2847 72.8881L40.4147 72.8505L40.4825 72.7862L40.5181 72.6924L40.5557 72.7711L40.6282 72.7136L40.5687 72.522L40.5242 72.4481L40.5509 72.4276L40.5003 72.3591L40.54 72.3277L40.5352 72.223L40.5578 72.1833L40.4291 72.0683L40.427 72.0375L40.3641 71.9677L40.347 71.9164L40.3593 71.722L40.4257 71.6693L40.3696 71.5947L40.2491 71.5605L40.193 71.5284L40.1485 71.4551L40.1944 71.3751L40.2217 71.3976L40.2779 71.3313L40.503 71.1958L40.5071 71.2574L40.529 71.2731L40.5708 71.2724L40.5988 71.2396L40.7165 71.2546L40.7733 71.1766L40.8082 71.1383L40.8554 71.0466L40.8582 71.1205L40.8089 71.1814L40.7329 71.2635L40.6262 71.2615L40.5543 71.3066L40.4578 71.319L40.4291 71.3087L40.3477 71.3408L40.2854 71.412L40.2649 71.5256L40.3785 71.5222L40.4298 71.4928L40.5078 71.5393L40.4654 71.6379L40.44 71.7453L40.4496 71.8562L40.516 71.8041L40.566 71.7864L40.5201 71.8657L40.5051 71.9862L40.5879 72.0402L40.6323 72.1135L40.6118 72.2271L40.6406 72.2373L40.6898 72.3174L40.6878 72.4276L40.7631 72.4002L40.8288 72.2072L40.8041 72.1183L40.8075 71.9958L40.7843 71.852L40.8144 71.7521L40.9177 71.594L40.9574 71.5626L40.9068 71.6351L40.824 71.8206L40.8335 71.9321L40.865 72.0156L40.8438 72.0868L40.941 72.0751L40.9711 71.8336L41.0929 71.6721L41.1285 71.579L41.2099 71.5468L41.2558 71.4674L41.3865 71.3744L41.3851 71.2882L41.4084 71.2916L41.4515 71.3771L41.4789 71.399L41.4672 71.2998L41.55 71.2553L41.522 71.0062L41.5979 71.0657L41.6 71.0965L41.6513 71.1643L41.6595 71.0493L41.6972 71.128L41.7889 71.0664L41.8183 71.0213L41.873 71.0103L41.8464 71.1294L41.9524 71.0452L42.012 71.0411L41.9511 71.1L42.0222 71.1527L42.129 71.1547L42.1659 71.0493L42.2111 71.0247L42.2754 71.0822L42.3254 71.1068L42.2494 71.1458L42.3534 71.1718L42.3418 71.2136L42.1317 71.2286L42.1967 71.3285L42.1126 71.2875L42.0482 71.2293L41.936 71.2204L41.7054 71.3497L41.6684 71.4544L41.7547 71.4298L41.7683 71.462L41.7026 71.5147L41.6862 71.5489L41.5706 71.5215L41.511 71.4709L41.3721 71.581L41.4488 71.542L41.5343 71.5722L41.576 71.5715L41.5459 71.6714L41.5897 71.7446L41.4946 71.7439L41.4542 71.8308L41.4563 71.7206L41.3783 71.6734L41.2955 71.7179L41.2551 71.8041L41.3379 71.7603L41.4022 71.8178L41.4063 71.8794L41.3605 71.9588L41.4002 72.0683L41.4843 72.11L41.3831 72.1155L41.2633 71.928L41.175 71.965L41.2708 72.0088L41.1134 72.0792L41.0402 72.1374L41.0183 72.2626L41.0696 72.1901L41.0874 72.2845L41.0854 72.394L41.1052 72.4762L41.162 72.3981L41.2489 72.3728L41.1826 72.4255L41.175 72.4857L41.3605 72.4372L41.2277 72.5419L41.2435 72.6055L41.1251 72.6014L41.069 72.6678L41.16 72.704L41.134 72.7684L41.2113 72.8149L41.1244 72.8402L41.0163 72.8505L40.9697 72.8874L41.1182 72.9867L41.1641 73.0476L41.0525 73.0394L41.0566 73.1441L40.9738 73.1879L40.9232 73.1201L40.7788 73.2234L40.6187 73.2631L40.475 73.3665L40.412 73.4383L40.3771 73.4335L40.243 73.5506L40.1998 73.7039L40.3785 73.66L40.4941 73.5471L40.5769 73.5027L40.6686 73.4842L40.7446 73.4452L40.7494 73.5506L40.7617 73.5519L40.8493 73.5143L40.9766 73.4027L41.136 73.3199L41.2708 73.2885L41.3317 73.2296L41.4467 73.1714L41.5076 73.1119L41.6144 73.114L41.7793 73.038L41.7848 73.0873L41.949 73.0113L41.9579 72.8963L42.0099 72.9087L42.0469 72.9018L42.0681 72.9169L42.0058 72.988L42.077 72.9422L42.0838 72.9374L42.1872 72.7793L42.1174 72.715L42.0722 72.6965L42.1913 72.6999L42.1721 72.6609L42.2385 72.6089L42.3247 72.5836L42.3446 72.5247L42.2816 72.4549L42.285 72.2346L42.3309 72.1552L42.3343 72.0334L42.4096 71.9082L42.4773 71.8438L42.5074 71.7439L42.5095 71.6337L42.53 71.5201L42.5656 71.4271L42.6368 71.3812L42.6621 71.2745L42.7339 71.2717L42.827 71.2409L42.8982 71.1951L42.957 71.2033L43.0809 71.2136L43.1521 71.2656L43.2622 71.2868L43.3286 71.2341L43.4285 71.2409L43.3307 71.2649L43.2643 71.3176L43.1555 71.2847C42.9981 71.2026 42.9153 71.191 42.7593 71.3053L42.6977 71.3217L42.673 71.3306L42.6374 71.4243L42.6361 71.436L42.5923 71.449L42.582 71.6741L42.6183 71.7645L42.6361 71.8589L42.6354 72.0546L42.7196 72.0964L42.827 72.2394L42.7743 72.3242L42.6416 72.3865L42.5738 72.4508L42.6313 72.5138L42.7155 72.5124L42.7914 72.4734L42.9002 72.4638L43.0597 72.3803L43.1507 72.3619L43.1391 72.3174L43.1767 72.2982L43.2841 72.3003L43.3416 72.3626L43.3758 72.2818L43.4778 72.277L43.5237 72.1969L43.601 72.2442L43.6906 72.1949L43.7988 72.1846L43.8857 72.1593L43.926 72.0731L44.0082 72.0409L44.1033 71.9431L44.1491 71.8637L44.1827 71.8801L44.2593 71.8418L44.2203 71.9164L44.1485 71.9615L44.0253 72.0922L44.1033 72.0416L44.2976 71.8651L44.349 71.7918L44.5604 71.6242L44.6316 71.5359L44.544 71.3771L44.4728 71.3251L44.4455 71.2601L44.6378 71.1075L44.7472 71.0856L44.7561 71.1109L44.8732 71.1266L44.9149 71.0835L45.034 71.0315L45.112 70.9809L45.1797 70.9166L45.3098 70.7373L45.3248 70.6168L45.3803 70.5511L45.4056 70.5422L45.3549 70.6148L45.3645 70.7263L45.2845 70.8447L45.1832 70.935L45.0826 71.0261L44.9115 71.1075L44.932 71.1349L45.0306 71.1109L45.1127 71.165L45.1975 71.1089L45.3994 71.0678L45.4767 71.115L45.7128 71.1342L45.8086 71.1773L45.9222 71.1739L45.9263 71.2361L46.1467 71.2348L46.2158 71.2991L46.3068 71.3354L46.363 71.4107L46.4218 71.4182L46.6381 71.594L46.6777 71.5626L46.7099 71.4934L46.7222 71.5379L46.6894 71.5639L46.7387 71.644L46.9323 71.7186L47.0856 71.8247L47.1027 71.876L47.1308 71.8431L47.1527 71.8151L47.2204 71.7939L47.2834 71.7227L47.7084 71.1355L47.9924 71.345L47.9965 71.4497L47.9513 71.529L47.9616 71.5858L47.9137 71.6344L47.902 71.7309L47.9096 71.8117L47.9903 71.8342L48.0663 71.7959L47.9937 71.8534L47.9123 71.8856L47.9383 71.9622L47.8644 72.0751L47.8302 72.1135L47.9383 72.1032L47.9828 72.1764L48.1258 72.1285L48.2298 72.1545L48.3215 72.136L48.4194 72.1675L48.353 72.2195L48.2394 72.3639L48.3222 72.418L48.4194 72.4488L48.5077 72.4118L48.5145 72.4495L48.7855 72.5713L48.8731 72.6315L48.9764 72.6151L49.0784 72.4693L49.1325 72.2743L49.129 72.1573L49.0982 72.0738L49.0284 72.0094L49.0716 72.0943L49.0811 72.2058L49.0291 72.2907L49.0818 72.3468L48.9949 72.47L48.8827 72.4611L48.6692 72.4022L48.6384 72.3188L48.5754 72.249L48.5713 72.1874L48.6527 72.0142L48.6151 71.9355L48.5966 71.8418L48.663 71.7891L48.6808 71.8835L48.7082 71.7645L48.7314 71.529L48.689 71.4435L48.5925 71.3997L48.5816 71.3005L48.6117 71.2006L48.6678 71.2751L48.7089 71.1889L48.8272 71.1923L48.8437 71.1574L48.9354 71.139L49.1297 71.2019L49.2132 71.1581L49.1489 71.1L49.1461 71.1246L49.0811 71.0664L49.0839 70.9569L49.1393 70.8906L49.1318 70.8098L49.2084 70.7715L49.2741 70.7188L49.439 70.6421L49.4329 70.5929L49.5451 70.6018L49.6382 70.571L49.6957 70.493L49.762 70.4403L49.8791 70.456L50.046 70.4108L50.0864 70.3239L50.2972 70.3096L50.2808 70.2459L50.3424 70.1864L50.43 70.1494L50.6572 70.1426L50.5572 70.2767L50.6284 70.2309L50.5675 70.2904L50.6592 70.2712L50.7475 70.2343L50.7557 70.2596L50.6578 70.4245L50.7461 70.3869L50.8864 70.1241L50.8392 70.1179L50.9104 70.0721L51.0021 70.0536L50.9247 70.1043L50.7762 70.3855L50.8625 70.3602L50.8946 70.248L51.0027 70.1946L51.0363 70.211L51.0007 70.3048L50.9193 70.3369L50.9418 70.4375L51.0493 70.2993L51.1266 70.248L51.1506 70.2514L51.0787 70.2966L51.0219 70.3746L51.0226 70.4608L51.0992 70.4218L51.167 70.3575L51.2532 70.3321L51.3032 70.4122L51.3326 70.508L51.4188 70.4827L51.5393 70.4745L51.5803 70.3876L51.6631 70.3438L51.7309 70.2788L51.8123 70.2473L51.8903 70.196L51.9259 70.1029L52.0614 70.1576L52.1593 70.0481L52.1339 70.1549L52.0573 70.1939L52.1216 70.2514L52.0436 70.302L51.9718 70.3048L52.0792 70.4478L52.1155 70.5812L52.1579 70.4827L52.214 70.4163L52.3023 70.3794L52.3632 70.3205L52.3427 70.4341L52.4535 70.4546L52.5096 70.3889L52.6007 70.6093L52.5637 70.7147L52.6506 70.6894L52.6965 70.6093L52.7601 70.6237L52.7143 70.7037L52.7923 70.6524L52.7348 70.7311L52.8176 70.6866L52.8682 70.6141L52.9784 70.5915L52.9517 70.7106L52.9702 70.7503L53.0468 70.7113L53.0982 70.779L53.1639 70.727L53.2432 70.7619L53.248 70.7687L53.2946 70.7318L53.3322 70.8098L53.3692 70.7051L53.4376 70.8242L53.5355 70.8557L53.7237 70.8255L53.7948 70.7797L53.7982 70.6579L53.7873 70.6989Z" fill="#4D4D4D"/>
<path fill-rule="evenodd" clip-rule="evenodd" d="M53.9404 70.9464L53.9418 70.9341L53.8501 70.9526L53.7721 71.0039L53.7249 71.0949L53.8439 71.099L53.9096 71.0463L53.9404 70.9464Z" fill="#4D4D4D"/>
<path fill-rule="evenodd" clip-rule="evenodd" d="M52.4722 70.4941L52.284 70.5242L52.2327 70.5975L52.4065 70.6878L52.4893 70.6433L52.4859 70.5263L52.4722 70.4941Z" fill="#4D4D4D"/>
<path fill-rule="evenodd" clip-rule="evenodd" d="M48.6099 72.9277L48.6003 72.9572L48.5223 73.0078L48.4121 72.9873L48.5401 73.1022L48.5805 73.1139L48.6058 73.0064L48.6099 72.9277Z" fill="#4D4D4D"/>
<path fill-rule="evenodd" clip-rule="evenodd" d="M48.2142 72.4702L48.1122 72.475L47.9473 72.5085L48.1204 72.5989L48.2361 72.6262L48.2614 72.5195L48.2142 72.4702Z" fill="#4D4D4D"/>
<path fill-rule="evenodd" clip-rule="evenodd" d="M46.6308 72.034L46.6356 71.9977L46.5589 71.9388L46.4686 71.9019L46.2626 71.9238L46.2079 71.8923L46.1504 71.8294L46.2517 71.8246L46.368 71.8519L46.4405 71.7944L46.6109 71.7678L46.2079 71.7513L46.0409 71.6555L45.8363 71.4817L45.7589 71.4345L45.6672 71.453L45.6152 71.3845L45.4352 71.2997L45.4024 71.2278L45.2991 71.2018L45.2382 71.2614L45.2067 71.1772L45.1136 71.208L44.9418 71.1484L44.8358 71.1895L44.7639 71.2347L44.7714 71.273L44.9056 71.3948L44.7961 71.362L44.9699 71.4523L45.297 71.5933L45.3251 71.6158L45.4455 71.6501L45.5228 71.6973L45.7206 71.7787L45.8041 71.8321L45.9122 71.8649L45.9711 71.9279L46.1764 71.9922L46.2407 71.9635L46.3098 72.0278L46.5309 72.0696L46.6328 72.1079L46.8169 72.114L46.7081 72.0812L46.6308 72.034Z" fill="#4D4D4D"/>
<path fill-rule="evenodd" clip-rule="evenodd" d="M43.848 72.2221L43.9144 72.1694L43.6619 72.283L43.848 72.2221Z" fill="#4D4D4D"/>
<path fill-rule="evenodd" clip-rule="evenodd" d="M41.5563 73.2474L41.4646 73.2658L41.3935 73.3117L41.3018 73.3302L41.4037 73.3254L41.5734 73.2556L41.661 73.2186L41.8937 73.0776L41.8006 73.1084L41.5563 73.2474Z" fill="#4D4D4D"/>
<path fill-rule="evenodd" clip-rule="evenodd" d="M39.2788 75.7248L39.3671 75.5469L39.311 75.6126L39.2686 75.7111L39.2125 75.7775L38.9702 76.0026L38.8785 76.0211L38.7676 75.9999L38.7649 76.0245L38.8826 76.0827L39.0318 75.9862L39.2166 75.7967L39.2788 75.7248Z" fill="#4D4D4D"/>
<path fill-rule="evenodd" clip-rule="evenodd" d="M38.4918 75.9156L38.385 75.9136L38.606 75.9553L38.619 75.9451L38.6026 75.9362L38.4918 75.9156Z" fill="#4D4D4D"/>
<path fill-rule="evenodd" clip-rule="evenodd" d="M38.1731 75.8976L38.2808 75.8997L38.2601 75.8721L38.1731 75.8976Z" fill="#4D4D4D"/>
<path fill-rule="evenodd" clip-rule="evenodd" d="M37.793 75.9263L37.702 75.9448L37.4954 76.0214L37.7732 75.942L38.0134 75.9249L37.8971 75.9092L37.793 75.9263Z" fill="#4D4D4D"/>
<path fill-rule="evenodd" clip-rule="evenodd" d="M37.3483 75.7265L37.1882 75.6259L37.1143 75.5972L37.2806 75.693L37.4215 75.81L37.4126 75.784L37.3483 75.7265Z" fill="#4D4D4D"/>
<path fill-rule="evenodd" clip-rule="evenodd" d="M36.5871 75.4726L36.4701 75.4575L36.3716 75.4808L36.479 75.4828L36.7069 75.5191L36.6966 75.5054L36.5871 75.4726Z" fill="#4D4D4D"/>
<path fill-rule="evenodd" clip-rule="evenodd" d="M37.9184 33.0025C37.2512 33.3987 36.6476 33.6539 36.107 33.7682C35.5664 33.8832 35.0702 33.8565 34.6186 33.6902C34.1669 33.5232 33.7577 33.2474 33.3902 32.8628C33.0227 32.4783 32.6586 31.9643 32.298 31.3217L27.6582 23.0605L30.4647 21.3955L35.3761 30.1419C35.4671 30.3034 35.5513 30.4376 35.63 30.5436C35.708 30.6497 35.8059 30.7578 35.9236 30.8687C36.0413 30.9796 36.172 31.0418 36.315 31.0555C36.4587 31.0685 36.6065 31.0302 36.7592 30.9392C36.9124 30.8489 37.0185 30.7359 37.0794 30.6018C37.1396 30.4677 37.1527 30.3205 37.1184 30.1597C37.0835 29.9996 37.0397 29.8586 36.9877 29.7375C36.935 29.6164 36.8632 29.4747 36.7722 29.3132L31.86 20.5667L34.6733 18.897L39.3124 27.1582C39.673 27.8008 39.9228 28.3825 40.0611 28.9033C40.1993 29.4241 40.2267 29.9271 40.1439 30.4109C40.0604 30.8947 39.8346 31.3498 39.465 31.7754C39.0962 32.2004 38.5802 32.6096 37.9184 33.0025Z" fill="#4D4D4D"/>
<path fill-rule="evenodd" clip-rule="evenodd" d="M42.9181 29.7868L36.2698 17.9486L38.2701 16.7619L43.2212 20.5819L40.3744 15.5123L42.7011 14.1313L49.3488 25.9696L47.4251 27.1118L42.2071 22.7834L45.3345 28.3525L42.9181 29.7868Z" fill="#4D4D4D"/>
<path fill-rule="evenodd" clip-rule="evenodd" d="M51.0289 24.9727L44.3806 13.1344L47.1939 11.4653L53.8422 23.3029L51.0289 24.9727Z" fill="#4D4D4D"/>
<path fill-rule="evenodd" clip-rule="evenodd" d="M56.55 21.6965L51.104 12.0002L49.424 12.998L48.2209 10.856L54.395 7.19141L55.5981 9.33337L53.9242 10.3263L59.3694 20.0227L56.55 21.6965Z" fill="#4D4D4D"/>
<path fill-rule="evenodd" clip-rule="evenodd" d="M62.0638 18.4238L55.4155 6.58549L60.8047 3.38623L61.8955 5.32837L59.3258 6.85375L60.8094 9.49528L62.7263 8.35791L63.8568 10.3712L61.94 11.5093L63.7966 14.8146L66.3943 13.2728L67.481 15.2081L62.0638 18.4238Z" fill="#4D4D4D"/>
<path fill-rule="evenodd" clip-rule="evenodd" d="M68.5978 14.545L61.9502 2.70672L64.9852 0.905553C65.777 0.435416 66.4668 0.11652 67.0546 -0.0518259C67.6418 -0.219488 68.1769 -0.237283 68.6587 -0.104522C69.1412 0.0282388 69.5723 0.287602 69.9528 0.67425C70.334 1.0609 70.7206 1.60426 71.1134 2.30365L73.5113 6.5732C73.9069 7.27807 74.1724 7.89602 74.3079 8.42843C74.4427 8.96084 74.4468 9.47547 74.3188 9.97366C74.1909 10.4719 73.9096 10.9399 73.4737 11.3793C73.0385 11.8186 72.4273 12.2723 71.6404 12.7391L68.5978 14.545ZM70.295 10.8722L70.5591 10.7155C70.8 10.5725 70.9793 10.439 71.0977 10.3145C71.2168 10.1906 71.2825 10.0544 71.2955 9.90728C71.3078 9.76015 71.2893 9.61713 71.2393 9.47821C71.1894 9.33997 71.1004 9.15657 70.9718 8.928L67.8526 3.37326C67.7239 3.14469 67.6151 2.9743 67.5248 2.86344C67.4344 2.75189 67.3249 2.66771 67.197 2.61023C67.069 2.55274 66.9239 2.54658 66.7611 2.59243C66.5989 2.63828 66.397 2.73272 66.1561 2.87575L65.8926 3.03246L70.295 10.8722Z" fill="#4D4D4D"/>
<path fill-rule="evenodd" clip-rule="evenodd" d="M46.0168 48.0819C44.8774 48.758 43.8728 48.9613 43.0016 48.691C42.1311 48.4213 41.2915 47.6056 40.484 46.2445L42.693 44.5049C42.912 44.895 43.1173 45.2111 43.3089 45.4534C43.4998 45.695 43.6743 45.8626 43.8317 45.9564C43.9898 46.0501 44.1294 46.0987 44.2519 46.1021C44.3744 46.1055 44.4955 46.072 44.616 46.0002C44.9308 45.8133 44.9574 45.4869 44.6953 45.0202C44.4387 44.5638 44.1178 44.2305 43.7318 44.0218C43.3458 43.813 42.8209 43.6454 42.1571 43.5188L41.0711 43.3162C40.6763 43.2396 40.3437 43.1609 40.0727 43.0801C39.8024 42.9994 39.506 42.8789 39.1844 42.7174C38.8621 42.5566 38.5699 42.341 38.3078 42.0721C38.045 41.8025 37.8041 41.4726 37.5851 41.0819C37.0103 40.0588 36.8673 39.0918 37.1554 38.1817C37.4435 37.2708 38.1141 36.5002 39.1666 35.8686C41.0561 34.7477 42.6547 35.3348 43.9617 37.6301L41.6576 39.3313C41.4838 39.022 41.3503 38.7921 41.2566 38.6415C41.1628 38.4903 41.0533 38.3432 40.9288 38.1981C40.8042 38.053 40.6879 37.9695 40.5798 37.9476C40.4723 37.9264 40.358 37.951 40.2376 38.0229C40.0692 38.129 39.9912 38.2987 40.0049 38.532C40.0186 38.7647 40.0775 38.9741 40.1815 39.1602C40.2383 39.2602 40.3006 39.3526 40.3704 39.4381C40.4402 39.5236 40.5024 39.5996 40.5579 39.6653C40.6133 39.7303 40.6886 39.7933 40.7844 39.8542C40.8802 39.9144 40.9548 39.9643 41.0068 40.0027C41.0595 40.0417 41.145 40.0834 41.262 40.1272C41.3797 40.1717 41.4598 40.2039 41.5016 40.2237C41.5433 40.2429 41.6323 40.2696 41.7684 40.3031C41.9046 40.3366 41.9867 40.3565 42.0141 40.3619C42.0422 40.3674 42.1332 40.3866 42.2872 40.4187C42.4411 40.4516 42.5253 40.4694 42.5397 40.4735L43.5477 40.6849C43.9768 40.7787 44.3545 40.882 44.6796 40.9936C45.0047 41.1051 45.3407 41.2564 45.6883 41.4466C46.036 41.6369 46.3535 41.8798 46.6402 42.1761C46.927 42.4724 47.1836 42.8228 47.4108 43.2279C47.8898 44.0799 48.0082 44.9641 47.7673 45.8818C47.5264 46.7988 46.9427 47.5324 46.0168 48.0819Z" fill="#4D4D4D"/>
<path fill-rule="evenodd" clip-rule="evenodd" d="M51.2651 44.72L45.8198 35.0237L44.1391 36.0214L42.936 33.8795L49.1101 30.2148L50.3132 32.3568L48.6393 33.3505L54.0845 43.0461L51.2651 44.72Z" fill="#4D4D4D"/>
<path fill-rule="evenodd" clip-rule="evenodd" d="M57.142 35.8524L58.1774 35.2385L55.1739 31.1277L57.142 35.8524ZM56.1785 41.8034L51.6208 28.7244L54.8988 26.7788L63.6165 37.3887L61.04 38.9175L59.3518 36.7687L57.8585 37.6549L58.8385 40.2246L56.1785 41.8034Z" fill="#4D4D4D"/>
<path fill-rule="evenodd" clip-rule="evenodd" d="M65.5761 36.2254L60.1308 26.529L58.4501 27.5268L57.2471 25.3848L63.4211 21.7202L64.6242 23.8622L62.9503 24.8552L68.3955 34.5515L65.5761 36.2254Z" fill="#4D4D4D"/>
<path fill-rule="evenodd" clip-rule="evenodd" d="M71.0887 32.9534L64.4404 21.1151L69.8296 17.9165L70.9204 19.8586L68.3507 21.3833L69.8344 24.0256L71.7512 22.8875L72.8817 24.9008L70.9649 26.0389L72.8215 29.3449L75.4192 27.8031L76.5059 29.7377L71.0887 32.9534Z" fill="#4D4D4D"/>
<path fill-rule="evenodd" clip-rule="evenodd" d="M80.8857 27.3861C79.747 28.0622 78.7417 28.2654 77.8712 27.9951C77 27.7248 76.1611 26.9091 75.3535 25.548L77.5619 23.8091C77.7809 24.1991 77.9862 24.5153 78.1778 24.7569C78.3694 24.9991 78.5439 25.1668 78.7013 25.2605C78.8587 25.3543 78.999 25.4029 79.1208 25.4063C79.2433 25.4097 79.3651 25.3755 79.4855 25.3043C79.8003 25.1175 79.8263 24.7911 79.5642 24.3244C79.3076 23.8672 78.9867 23.5346 78.6007 23.3252C78.2147 23.1165 77.6899 22.9489 77.0267 22.8222L75.9407 22.6197C75.5452 22.543 75.2126 22.4643 74.9423 22.3843C74.6713 22.3035 74.3756 22.1824 74.0533 22.0216C73.7317 21.8601 73.4388 21.6452 73.1767 21.3756C72.9139 21.1059 72.6737 20.7761 72.454 20.386C71.8792 19.3623 71.7361 18.396 72.0243 17.4851C72.3124 16.575 72.983 15.8037 74.0362 15.1728C75.925 14.0511 77.5236 14.6383 78.8313 16.9342L76.5272 18.6348C76.3533 18.3255 76.2192 18.0956 76.1255 17.945C76.0317 17.7945 75.9222 17.6466 75.7977 17.5016C75.6731 17.3565 75.5568 17.2737 75.4493 17.2518C75.3412 17.2299 75.2269 17.2552 75.1065 17.3264C74.9382 17.4331 74.8608 17.6028 74.8745 17.8355C74.8875 18.0689 74.947 18.2783 75.0511 18.4637C75.1072 18.5636 75.1701 18.6567 75.2399 18.7422C75.3091 18.8278 75.372 18.9031 75.4274 18.9688C75.4829 19.0345 75.5582 19.0974 75.654 19.1583C75.7498 19.2185 75.8237 19.2685 75.8764 19.3068C75.9291 19.3452 76.0139 19.3869 76.1316 19.4314C76.2493 19.4759 76.3287 19.508 76.3705 19.5272C76.4122 19.547 76.5012 19.5737 76.6374 19.6073C76.7735 19.6408 76.8557 19.6599 76.8837 19.6654C76.9111 19.6716 77.0021 19.6907 77.1561 19.7229C77.3101 19.7551 77.3949 19.7735 77.4093 19.7776L78.4166 19.9884C78.8464 20.0829 79.2234 20.1855 79.5485 20.2971C79.8736 20.4093 80.2103 20.5598 80.5579 20.7501C80.9055 20.9403 81.2224 21.184 81.5091 21.4803C81.7959 21.7766 82.0532 22.127 82.2804 22.5314C82.7587 23.3834 82.8778 24.2682 82.6362 25.1853C82.3953 26.1029 81.8116 26.8366 80.8857 27.3861Z" fill="#4D4D4D"/>
<path fill-rule="evenodd" clip-rule="evenodd" d="M56.1858 61.5901C55.819 62.0363 55.3072 62.4544 54.6495 62.8451C53.9926 63.2352 53.3835 63.4809 52.8223 63.5822C52.2619 63.6828 51.7479 63.6424 51.2812 63.459C50.8145 63.2763 50.3889 62.9861 50.0049 62.5885C49.6217 62.1909 49.2508 61.6736 48.8922 61.0358L46.4382 56.6663C46.0803 56.0285 45.8298 55.4393 45.6868 54.8987C45.5438 54.3587 45.5123 53.8345 45.5917 53.3274C45.6711 52.8203 45.8935 52.3427 46.2589 51.8937C46.6243 51.4455 47.1355 51.026 47.7932 50.6353C48.4501 50.2452 49.0606 49.9988 49.6238 49.8969C50.1863 49.7942 50.7023 49.8339 51.1717 50.0153C51.6412 50.1966 52.0689 50.4854 52.4549 50.8816C52.8408 51.2779 53.2131 51.7945 53.571 52.4323L56.025 56.8025C56.3836 57.4403 56.6327 58.0295 56.773 58.5715C56.914 59.1128 56.9434 59.6384 56.862 60.1468C56.7798 60.6553 56.5547 61.1364 56.1858 61.5901ZM53.5231 60.8387C53.6757 60.7477 53.7811 60.6395 53.84 60.5122C53.8981 60.3856 53.9111 60.2433 53.8776 60.0852C53.8447 59.9271 53.803 59.7903 53.753 59.6739C53.7031 59.5576 53.6326 59.4187 53.5423 59.2565L50.2581 53.4089C50.1671 53.2474 50.085 53.1146 50.0118 53.0119C49.9392 52.9093 49.8448 52.8053 49.7298 52.6992C49.6142 52.5931 49.489 52.5343 49.3528 52.5227C49.2166 52.5117 49.0722 52.5514 48.9196 52.6417C48.795 52.7163 48.7027 52.8053 48.6445 52.91C48.5856 53.0147 48.5542 53.1146 48.5487 53.2097C48.5432 53.3048 48.5631 53.4198 48.6082 53.5553C48.6534 53.6901 48.6965 53.7976 48.7389 53.8776C48.7807 53.9577 48.8402 54.0665 48.9175 54.2047L52.2017 60.0524C52.2762 60.1851 52.3378 60.2919 52.3857 60.3713C52.433 60.4507 52.5028 60.5444 52.5938 60.6518C52.6855 60.76 52.7724 60.8353 52.8552 60.8777C52.938 60.9208 53.0386 60.9434 53.1577 60.9461C53.2761 60.9489 53.3979 60.9126 53.5231 60.8387Z" fill="#4D4D4D"/>
<path fill-rule="evenodd" clip-rule="evenodd" d="M58.6366 51.1299L59.3729 50.6926C59.8362 50.4182 60.0798 50.0911 60.1044 49.7113C60.1291 49.3314 59.9997 48.8894 59.7164 48.385C59.4434 47.8998 59.1484 47.5748 58.8309 47.4112C58.5141 47.247 58.1603 47.2805 57.7716 47.5118L56.8963 48.0312L58.6366 51.1299ZM59.6507 59.6293L53.0024 47.791L56.4398 45.7503C56.9312 45.4595 57.3794 45.2275 57.7866 45.0564C58.1931 44.8846 58.6078 44.7656 59.0301 44.6985C59.453 44.6321 59.8389 44.6486 60.1886 44.7492C60.5376 44.8498 60.8812 45.0455 61.2179 45.3377C61.5546 45.6292 61.8632 46.0254 62.1445 46.525C62.5906 47.3202 62.8486 48.0107 62.9191 48.5978C62.9889 49.1843 62.8315 49.7886 62.4462 50.4106L67.1996 55.1483L64.2481 56.9002L60.1147 52.3754L59.531 52.7216L62.4702 57.9554L59.6507 59.6293Z" fill="#4D4D4D"/>
<path fill-rule="evenodd" clip-rule="evenodd" d="M68.5262 54.3609L61.8779 42.5226L64.6905 40.8535L71.3388 52.6918L68.5262 54.3609Z" fill="#4D4D4D"/>
<path fill-rule="evenodd" clip-rule="evenodd" d="M76.2013 50.0528C75.6038 50.4072 75.0358 50.6112 74.498 50.6639C73.9594 50.7172 73.4646 50.6269 73.0123 50.3936C72.5606 50.1609 72.1452 49.8358 71.7661 49.4198C71.3877 49.0037 71.0215 48.4815 70.6691 47.8533L68.4313 43.8691C68.0707 43.2265 67.8148 42.625 67.6635 42.0638C67.5116 41.5034 67.4678 40.958 67.5321 40.4283C67.5958 39.8986 67.8072 39.399 68.1665 38.9282C68.5258 38.4581 69.0342 38.0276 69.6919 37.6376C70.2147 37.3269 70.7095 37.1113 71.1755 36.9902C71.6415 36.8691 72.0604 36.8314 72.432 36.8773C72.8035 36.9231 73.156 37.0456 73.4899 37.2441C73.8232 37.4425 74.1202 37.6903 74.3796 37.9873C74.6382 38.2843 74.8832 38.6374 75.1132 39.0466L75.5901 39.8959L72.8193 41.541L72.1815 40.4057C72.1069 40.2723 72.0432 40.1655 71.9919 40.0848C71.9406 40.004 71.8694 39.9102 71.7777 39.8028C71.6867 39.6947 71.5998 39.6194 71.517 39.577C71.4342 39.5339 71.3343 39.512 71.2166 39.512C71.0996 39.512 70.9784 39.5489 70.8532 39.6235C70.7006 39.7138 70.5931 39.8254 70.5316 39.9568C70.4693 40.0889 70.4535 40.2333 70.483 40.3907C70.5124 40.5474 70.5528 40.6883 70.6048 40.8129C70.6561 40.9381 70.7259 41.0791 70.8142 41.2358L74.0743 47.041C74.1572 47.1881 74.2454 47.3182 74.3399 47.4311C74.4336 47.5433 74.5418 47.6453 74.6649 47.7377C74.7874 47.83 74.9236 47.8807 75.0742 47.8896C75.2247 47.8992 75.376 47.8581 75.5286 47.7678C75.7277 47.6494 75.8557 47.4845 75.9132 47.273C75.9699 47.0615 75.9734 46.8576 75.922 46.6626C75.8714 46.4675 75.7913 46.2725 75.6818 46.0775L74.8155 44.535L73.8916 45.0831L72.9575 43.4195L76.4161 41.3672L79.9165 47.6001L78.0346 48.7169L77.4105 47.9354C77.4652 48.836 77.0622 49.5416 76.2013 50.0528Z" fill="#4D4D4D"/>
<path fill-rule="evenodd" clip-rule="evenodd" d="M81.4862 46.668L74.8379 34.8304L77.6512 33.1606L84.2988 44.9989L81.4862 46.668Z" fill="#4D4D4D"/>
<path fill-rule="evenodd" clip-rule="evenodd" d="M85.9735 44.0056L79.3252 32.1673L81.3255 30.98L86.2767 34.8006L83.4298 29.7311L85.7559 28.3501L92.4042 40.1884L90.4805 41.3299L85.2625 37.0021L88.3899 42.5712L85.9735 44.0056Z" fill="#4D4D4D"/>
<path fill-rule="evenodd" clip-rule="evenodd" d="M94.5282 33.5492L95.5629 32.9346L92.5601 28.8245L94.5282 33.5492ZM93.564 39.5001L89.0063 26.4211L92.285 24.4756L101.003 35.0848L98.4262 36.6143L96.7373 34.4655L95.244 35.3517L96.224 37.9214L93.564 39.5001Z" fill="#4D4D4D"/>
<path fill-rule="evenodd" clip-rule="evenodd" d="M102.163 34.3962L95.5146 22.558L98.3341 20.8848L103.896 30.7878L106.459 29.2665L107.545 31.2018L102.163 34.3962Z" fill="#4D4D4D"/>
</g>
<defs>
<clipPath id="clip0">
<rect width="109.493" height="83.4887" fill="white"/>
</clipPath>
</defs>
</svg>
