<svg width="66" height="70" viewBox="0 0 66 70" fill="none" xmlns="http://www.w3.org/2000/svg">
<path fill-rule="evenodd" clip-rule="evenodd" d="M2.9946 66.3094L2.61186 66.3693L3.09616 68.4467L3.16589 68.9182L3.18105 68.9212L3.28261 68.4467L3.97687 65.9805H4.42783L5.12435 68.4467L5.22819 68.931H5.24335L5.31838 68.4467L5.79284 66.3693L5.40706 66.3094V65.9805H6.60608V66.3094L6.30292 66.3488L5.48209 69.7526H5.02582L4.28003 67.1363L4.21258 66.7967H4.19666L4.13224 67.1363L3.37584 69.7526H2.9226L2.10102 66.3488L1.79785 66.3094V65.9805H2.9946V66.3094Z" fill="#4D4D4D"/>
<path fill-rule="evenodd" clip-rule="evenodd" d="M6.85986 69.7526V69.426L7.28202 69.3532V66.3822L6.85986 66.3094V65.9805H9.75587V66.8877H9.31855L9.27686 66.3822H7.7921V67.6024H9.23518V68.0041H7.7921V69.3532H9.30794L9.34962 68.8484H9.78467V69.7526H6.85986Z" fill="#4D4D4D"/>
<path fill-rule="evenodd" clip-rule="evenodd" d="M12.9735 67.0945H12.5877L12.4922 66.5556C12.4141 66.4897 12.3103 66.4359 12.1807 66.3927C12.0518 66.3495 11.901 66.3275 11.7305 66.3275C11.4591 66.3275 11.2507 66.3851 11.106 66.5003C10.9612 66.6147 10.8884 66.7648 10.8884 66.9497C10.8884 67.1134 10.9619 67.2506 11.1097 67.3598C11.2575 67.4697 11.4963 67.5659 11.826 67.6485C12.2231 67.7471 12.5248 67.8926 12.7317 68.0843C12.9378 68.2761 13.0409 68.5133 13.0409 68.7968C13.0409 69.1007 12.9174 69.3447 12.6695 69.5297C12.4217 69.7146 12.0973 69.8071 11.6964 69.8071C11.4068 69.8071 11.1484 69.7593 10.9233 69.6646C10.6982 69.5691 10.5148 69.4448 10.373 69.2909V68.5891H10.7566L10.8543 69.1303C10.9529 69.2121 11.0703 69.2781 11.2068 69.3303C11.3432 69.3819 11.5069 69.4077 11.6964 69.4077C11.9541 69.4077 12.1572 69.3531 12.3065 69.2447C12.4558 69.1356 12.5308 68.9878 12.5308 68.8013C12.5308 68.6293 12.4657 68.4845 12.3368 68.3678C12.2072 68.2511 11.9783 68.1533 11.6501 68.0737C11.2507 67.979 10.9392 67.8388 10.7149 67.6538C10.4905 67.4689 10.3784 67.237 10.3784 66.9573C10.3784 66.6617 10.5034 66.4162 10.7535 66.2199C11.0044 66.0243 11.3295 65.9258 11.7305 65.9258C11.9942 65.9258 12.2353 65.9713 12.452 66.0622C12.6688 66.1532 12.8423 66.2631 12.9735 66.3927V67.0945Z" fill="#4D4D4D"/>
<path fill-rule="evenodd" clip-rule="evenodd" d="M16.5205 65.9805V66.8149H16.0847L16.046 66.3822H15.2093V69.3532L15.6315 69.426V69.7526H14.2771V69.426L14.6992 69.3532V66.3822H13.8594L13.8231 66.8149H13.3857V65.9805H16.5205Z" fill="#4D4D4D"/>
<path fill-rule="evenodd" clip-rule="evenodd" d="M21.0444 67.1384H20.6844L20.5889 66.6049C20.5056 66.5238 20.404 66.4571 20.2827 66.4055C20.1622 66.3532 20.0175 66.3275 19.85 66.3275C19.4581 66.3275 19.1572 66.47 18.9465 66.7542C18.7358 67.0376 18.6305 67.3984 18.6305 67.8357V67.8949C18.6305 68.3322 18.7335 68.6929 18.9397 68.9794C19.1458 69.2652 19.4323 69.4077 19.7984 69.4077C19.9697 69.4077 20.1251 69.3811 20.2645 69.3273C20.4048 69.2743 20.5124 69.2083 20.5889 69.1303L20.6844 68.5967H21.0444V69.2682C20.9361 69.4077 20.7723 69.5327 20.5548 69.6426C20.3373 69.7518 20.0849 69.8071 19.7984 69.8071C19.308 69.8071 18.9056 69.6252 18.5911 69.2629C18.2773 68.8999 18.1196 68.4443 18.1196 67.8949V67.8403C18.1196 67.2878 18.2742 66.8307 18.5835 66.4692C18.8927 66.1069 19.2974 65.9258 19.7984 65.9258C20.0849 65.9258 20.3373 65.9819 20.5548 66.0933C20.7723 66.2047 20.9361 66.3298 21.0444 66.4677V67.1384Z" fill="#4D4D4D"/>
<path fill-rule="evenodd" clip-rule="evenodd" d="M24.9016 67.8949C24.9016 68.4443 24.7447 68.8999 24.4294 69.2629C24.1141 69.6252 23.7064 69.8071 23.2054 69.8071C22.7181 69.8071 22.3224 69.6252 22.0185 69.2629C21.7146 68.8999 21.563 68.4443 21.563 67.8949V67.8403C21.563 67.2931 21.7146 66.8368 22.0185 66.473C22.3224 66.1084 22.7181 65.9258 23.2054 65.9258C23.7064 65.9258 24.1141 66.1084 24.4294 66.473C24.7447 66.8368 24.9016 67.2931 24.9016 67.8403V67.8949ZM24.3917 67.8363C24.3917 67.3974 24.2871 67.0389 24.0772 66.7623C23.8672 66.4849 23.577 66.3462 23.2056 66.3462C22.8494 66.3462 22.572 66.4856 22.3726 66.763C22.1733 67.0412 22.0732 67.3989 22.0732 67.8363V67.8954C22.0732 68.3372 22.1733 68.6973 22.3726 68.9747C22.572 69.2513 22.8494 69.39 23.2056 69.39C23.5815 69.39 23.8741 69.252 24.081 68.9754C24.2879 68.6995 24.3917 68.3395 24.3917 67.8954V67.8363Z" fill="#4D4D4D"/>
<path fill-rule="evenodd" clip-rule="evenodd" d="M25.0361 69.426L25.3158 69.3873L26.6346 65.9805H27.0727L28.3679 69.3873L28.6446 69.426V69.7526H27.5623V69.426L27.8473 69.3767L27.5987 68.6824H26.0881L25.8319 69.3767L26.1169 69.426V69.7526H25.0361V69.426ZM26.2456 68.2547H27.4431L26.8572 66.6357H26.8421L26.2456 68.2547Z" fill="#4D4D4D"/>
<path fill-rule="evenodd" clip-rule="evenodd" d="M31.6942 67.0945H31.3084L31.2129 66.5556C31.1348 66.4897 31.031 66.4359 30.9014 66.3927C30.7725 66.3495 30.6217 66.3275 30.4512 66.3275C30.1798 66.3275 29.9714 66.3851 29.8267 66.5003C29.6819 66.6147 29.6091 66.7648 29.6091 66.9497C29.6091 67.1134 29.6827 67.2506 29.8304 67.3598C29.9782 67.4697 30.217 67.5659 30.5467 67.6485C30.9438 67.7471 31.2462 67.8926 31.4524 68.0843C31.6585 68.2761 31.7616 68.5133 31.7616 68.7968C31.7616 69.1007 31.6381 69.3447 31.3902 69.5297C31.1424 69.7146 30.818 69.8071 30.4171 69.8071C30.1276 69.8071 29.8691 69.7593 29.644 69.6646C29.4189 69.5691 29.2355 69.4448 29.0938 69.2909V68.5891H29.4773L29.575 69.1303C29.6736 69.2121 29.791 69.2781 29.9275 69.3303C30.0639 69.3819 30.2276 69.4077 30.4171 69.4077C30.6748 69.4077 30.8779 69.3531 31.0272 69.2447C31.1765 69.1356 31.2515 68.9878 31.2515 68.8013C31.2515 68.6293 31.1864 68.4845 31.0575 68.3678C30.9279 68.2511 30.699 68.1533 30.3708 68.0737C29.9714 67.979 29.6599 67.8388 29.4356 67.6538C29.2112 67.4689 29.0991 67.237 29.0991 66.9573C29.0991 66.6617 29.2241 66.4162 29.4742 66.2199C29.7251 66.0243 30.0502 65.9258 30.4512 65.9258C30.7149 65.9258 30.956 65.9713 31.1727 66.0622C31.3895 66.1532 31.563 66.2631 31.6942 66.3927V67.0945Z" fill="#4D4D4D"/>
<path fill-rule="evenodd" clip-rule="evenodd" d="M35.2412 65.9805V66.8149H34.8054L34.7667 66.3822H33.93V69.3532L34.3522 69.426V69.7526H32.9978V69.426L33.4199 69.3532V66.3822H32.5801L32.5438 66.8149H32.1064V65.9805H35.2412Z" fill="#4D4D4D"/>
<path fill-rule="evenodd" clip-rule="evenodd" d="M39.7646 67.1384H39.4046L39.3091 66.6049C39.2258 66.5238 39.1242 66.4571 39.0029 66.4055C38.8824 66.3532 38.7384 66.3275 38.5702 66.3275C38.1783 66.3275 37.8774 66.47 37.6667 66.7542C37.456 67.0376 37.3507 67.3984 37.3507 67.8357V67.8949C37.3507 68.3322 37.4538 68.6929 37.6599 68.9794C37.8661 69.2652 38.1526 69.4077 38.5186 69.4077C38.6899 69.4077 38.8453 69.3811 38.9848 69.3273C39.125 69.2743 39.2326 69.2083 39.3091 69.1303L39.4046 68.5967H39.7646V69.2682C39.6563 69.4077 39.4926 69.5327 39.275 69.6426C39.0575 69.7518 38.8051 69.8071 38.5186 69.8071C38.0283 69.8071 37.6258 69.6252 37.3113 69.2629C36.9975 68.8999 36.8398 68.4443 36.8398 67.8949V67.8403C36.8398 67.2878 36.9945 66.8307 37.3037 66.4692C37.6129 66.1069 38.0176 65.9258 38.5186 65.9258C38.8051 65.9258 39.0575 65.9819 39.275 66.0933C39.4926 66.2047 39.6563 66.3298 39.7646 66.4677V67.1384Z" fill="#4D4D4D"/>
<path fill-rule="evenodd" clip-rule="evenodd" d="M40.2622 69.7526V69.426L40.6851 69.3532V66.3822L40.2622 66.3094V65.9805H41.6174V66.3094L41.1952 66.3822V69.3532H42.5056L42.5451 68.9212H42.9801V69.7526H40.2622Z" fill="#4D4D4D"/>
<path fill-rule="evenodd" clip-rule="evenodd" d="M46.5593 67.8949C46.5593 68.4443 46.4024 68.8999 46.0871 69.2629C45.7719 69.6252 45.3641 69.8071 44.8631 69.8071C44.3758 69.8071 43.9801 69.6252 43.6762 69.2629C43.3723 68.8999 43.2207 68.4443 43.2207 67.8949V67.8403C43.2207 67.2931 43.3723 66.8368 43.6762 66.473C43.9801 66.1084 44.3758 65.9258 44.8631 65.9258C45.3641 65.9258 45.7719 66.1084 46.0871 66.473C46.4024 66.8368 46.5593 67.2931 46.5593 67.8403V67.8949ZM46.0493 67.8363C46.0493 67.3974 45.9447 67.0389 45.7348 66.7623C45.5248 66.4849 45.2345 66.3462 44.8632 66.3462C44.5069 66.3462 44.2295 66.4856 44.0302 66.763C43.8309 67.0412 43.7308 67.3989 43.7308 67.8363V67.8954C43.7308 68.3372 43.8309 68.6973 44.0302 68.9747C44.2295 69.2513 44.5069 69.39 44.8632 69.39C45.2391 69.39 45.5316 69.252 45.7386 68.9754C45.9455 68.6995 46.0493 68.3395 46.0493 67.8954V67.8363Z" fill="#4D4D4D"/>
<path fill-rule="evenodd" clip-rule="evenodd" d="M49.9204 65.9805V66.8149H49.4846L49.4459 66.3822H48.6092V69.3532L49.0314 69.426V69.7526H47.677V69.426L48.0991 69.3532V66.3822H47.2593L47.223 66.8149H46.7856V65.9805H49.9204Z" fill="#4D4D4D"/>
<path fill-rule="evenodd" clip-rule="evenodd" d="M50.2002 66.3094V65.9805H51.5546V66.3094L51.1324 66.3822V67.685H52.9613V66.3822L52.5391 66.3094V65.9805H53.8943V66.3094L53.4721 66.3822V69.3532L53.8943 69.426V69.7526H52.5391V69.426L52.9613 69.3532V68.0867H51.1324V69.3532L51.5546 69.426V69.7526H50.2002V69.426L50.6224 69.3532V66.3822L50.2002 66.3094Z" fill="#4D4D4D"/>
<path fill-rule="evenodd" clip-rule="evenodd" d="M54.2725 66.3094V65.9805H55.6269V66.3094L55.2047 66.3822V69.3532L55.6269 69.426V69.7526H54.2725V69.426L54.6946 69.3532V66.3822L54.2725 66.3094Z" fill="#4D4D4D"/>
<path fill-rule="evenodd" clip-rule="evenodd" d="M59.6838 65.9805V66.3094L59.2617 66.3822V69.7526H58.7508L56.9379 66.8407L56.922 66.846V69.3532L57.3441 69.426V69.7526H55.9897V69.426L56.4119 69.3532V66.3822L55.9897 66.3094V65.9805H56.922L58.7357 68.8901L58.7508 68.8848V66.3822L58.3287 66.3094V65.9805H59.6838Z" fill="#4D4D4D"/>
<path fill-rule="evenodd" clip-rule="evenodd" d="M63.0331 69.325C62.9224 69.441 62.7594 69.5501 62.5434 69.6525C62.3274 69.7555 62.047 69.8071 61.7014 69.8071C61.1974 69.8071 60.7858 69.6297 60.4675 69.2758C60.1484 68.9218 59.9893 68.4625 59.9893 67.8979V67.8357C59.9893 67.2673 60.1469 66.8072 60.4622 66.4548C60.7775 66.1024 61.1966 65.9258 61.7196 65.9258C61.9993 65.9258 62.2456 65.9697 62.457 66.0569C62.6685 66.1441 62.8466 66.2593 62.9921 66.4025V67.0869H62.6344L62.5101 66.5662C62.4252 66.4973 62.3229 66.4396 62.2031 66.3949C62.0826 66.3502 61.9394 66.3275 61.7719 66.3275C61.3641 66.3275 61.0503 66.4669 60.8298 66.7458C60.61 67.0248 60.4993 67.3863 60.4993 67.8304V67.8979C60.4993 68.3481 60.6062 68.7126 60.8199 68.9908C61.0329 69.269 61.327 69.4077 61.7014 69.4077C61.9075 69.4077 62.0758 69.3864 62.2069 69.3432C62.338 69.3 62.4434 69.2523 62.523 69.2007V68.3739L61.9038 68.3481V67.9729H63.0331V69.325Z" fill="#4D4D4D"/>
<path fill-rule="evenodd" clip-rule="evenodd" d="M65.1317 16.6576L61.0465 17.1685L51.0026 60.2379H41.7757L32.6852 27.5186H32.4806L23.3901 60.2379H14.1632L4.05107 17.1685L0 16.6576V10.6655H18.2491V16.6576L13.7206 17.4406L19.4065 44.6104L19.6111 44.6445L28.9055 10.6655H36.2262L45.5888 44.6445L45.7934 44.6104L51.4452 17.4406L46.9166 16.6576V10.6655H65.1317V16.6576Z" fill="#4D4D4D"/>
<path fill-rule="evenodd" clip-rule="evenodd" d="M32.583 0L33.7404 2.345L36.3287 2.72093L34.4558 4.54675L34.8977 7.12443L32.583 5.90721L30.2684 7.12443L30.7102 4.54675L28.8374 2.72093L31.4257 2.345L32.583 0Z" fill="#4D4D4D"/>
<path fill-rule="evenodd" clip-rule="evenodd" d="M39.2153 3.33496H63.8477H39.2153ZM39.2153 5.22949H63.8477H39.2153ZM1.31934 3.33496H25.9517H1.31934ZM1.31934 5.22949H25.9517H1.31934Z" fill="#4D4D4D"/>
<path d="M39.2153 3.67713H63.8477V2.99279H39.2153V3.67713ZM39.2153 5.57166H63.8477V4.88733H39.2153V5.57166ZM1.31934 3.67713H25.9517V2.99279H1.31934V3.67713ZM1.31934 5.57166H25.9517V4.88733H1.31934V5.57166Z" fill="#4D4D4D"/>
</svg>
